<?xml version="1.0" encoding="UTF-8" standalone="no"?>
<svg
   width="2383.4607"
   height="448.43271"
   viewBox="0 0 2383.4607 448.43272"
   version="1.1"
   xml:space="preserve"
   style="clip-rule:evenodd;fill-rule:evenodd;stroke-linecap:round;stroke-linejoin:round;stroke-miterlimit:1.5"
   id="svg14867"
   sodipodi:docname="poster_logo_with_NU_THERS.svg"
   inkscape:version="1.2.2 (732a01da63, 2022-12-09)"
   xmlns:inkscape="http://www.inkscape.org/namespaces/inkscape"
   xmlns:sodipodi="http://sodipodi.sourceforge.net/DTD/sodipodi-0.dtd"
   xmlns="http://www.w3.org/2000/svg"
   xmlns:svg="http://www.w3.org/2000/svg"><defs
     id="defs14871"><clipPath
       clipPathUnits="userSpaceOnUse"
       id="clipPath27093"><g
         id="g27097"
         style="stroke-width:1.33333"
         transform="matrix(0.75000002,0,0,-0.75000002,-986.35997,779.52834)"><path
           d="M 859.67764,1534.3931 H 1419.0483 V 812.50382 H 859.67764 Z"
           id="path27095"
           style="stroke-width:1.33333" /></g></clipPath><clipPath
       clipPathUnits="userSpaceOnUse"
       id="clipPath27099"><g
         id="g27103"
         style="stroke-width:1.33333"
         transform="matrix(0.75000002,0,0,-0.75000002,-869.87072,782.01617)"><path
           d="M 859.67764,1534.3931 H 1419.0483 V 812.50382 H 859.67764 Z"
           id="path27101"
           style="stroke-width:1.33333" /></g></clipPath><clipPath
       clipPathUnits="userSpaceOnUse"
       id="clipPath27105"><g
         id="g27109"
         style="stroke-width:1.33333"
         transform="matrix(0.75000002,0,0,-0.75000002,-878.42635,787.11039)"><path
           d="M 859.67764,1534.3931 H 1419.0483 V 812.50382 H 859.67764 Z"
           id="path27107"
           style="stroke-width:1.33333" /></g></clipPath><clipPath
       clipPathUnits="userSpaceOnUse"
       id="clipPath27111"><g
         id="g27115"><path
           d="M 859.67764,1534.3931 H 1419.0483 V 812.50382 H 859.67764 Z"
           id="path27113"
           style="stroke-width:1" /></g></clipPath><clipPath
       clipPathUnits="userSpaceOnUse"
       id="clipPath27117"><g
         id="g27121"><path
           d="M 859.67764,1534.3931 H 1419.0483 V 812.50382 H 859.67764 Z"
           id="path27119"
           style="stroke-width:1" /></g></clipPath><clipPath
       clipPathUnits="userSpaceOnUse"
       id="clipPath27123"><g
         id="g27127"><path
           d="M 859.67764,1534.3931 H 1419.0483 V 812.50382 H 859.67764 Z"
           id="path27125"
           style="stroke-width:1" /></g></clipPath><clipPath
       clipPathUnits="userSpaceOnUse"
       id="clipPath27129"><g
         id="g27133"><path
           d="M 859.67764,1534.3931 H 1419.0483 V 812.50382 H 859.67764 Z"
           id="path27131"
           style="stroke-width:1" /></g></clipPath><clipPath
       clipPathUnits="userSpaceOnUse"
       id="clipPath27135"><g
         id="g27139"
         style="stroke-width:1.33333"
         transform="matrix(0.75000002,0,0,-0.75000002,-965.57185,788.72574)"><path
           d="M 859.67764,1534.3931 H 1419.0483 V 812.50382 H 859.67764 Z"
           id="path27137"
           style="stroke-width:1.33333" /></g></clipPath><clipPath
       clipPathUnits="userSpaceOnUse"
       id="clipPath27141"><g
         id="g27145"
         style="stroke-width:1.33333"
         transform="matrix(0.75000002,0,0,-0.75000002,-918.10502,788.87304)"><path
           d="M 859.67764,1534.3931 H 1419.0483 V 812.50382 H 859.67764 Z"
           id="path27143"
           style="stroke-width:1.33333" /></g></clipPath><clipPath
       clipPathUnits="userSpaceOnUse"
       id="clipPath27147"><g
         id="g27151"
         style="stroke-width:1.33333"
         transform="matrix(0.75000002,0,0,-0.75000002,-892.78765,788.41224)"><path
           d="M 859.67764,1534.3931 H 1419.0483 V 812.50382 H 859.67764 Z"
           id="path27149"
           style="stroke-width:1.33333" /></g></clipPath><clipPath
       clipPathUnits="userSpaceOnUse"
       id="clipPath27153"><g
         id="g27157"
         style="stroke-width:1.33333"
         transform="matrix(0.75000002,0,0,-0.75000002,-902.40872,776.14067)"><path
           d="M 859.67764,1534.3931 H 1419.0483 V 812.50382 H 859.67764 Z"
           id="path27155"
           style="stroke-width:1.33333" /></g></clipPath><clipPath
       clipPathUnits="userSpaceOnUse"
       id="clipPath27159"><g
         id="g27163"
         style="stroke-width:1.33333"
         transform="matrix(0.75000002,0,0,-0.75000002,-856.84045,776.14067)"><path
           d="M 859.67764,1534.3931 H 1419.0483 V 812.50382 H 859.67764 Z"
           id="path27161"
           style="stroke-width:1.33333" /></g></clipPath><clipPath
       clipPathUnits="userSpaceOnUse"
       id="clipPath27165"><g
         id="g27169"
         style="stroke-width:1.33333"
         transform="matrix(0.75000002,0,0,-0.75000002,-978.65395,780.94697)"><path
           d="M 859.67764,1534.3931 H 1419.0483 V 812.50382 H 859.67764 Z"
           id="path27167"
           style="stroke-width:1.33333" /></g></clipPath><clipPath
       clipPathUnits="userSpaceOnUse"
       id="clipPath27171"><g
         id="g27175"
         style="stroke-width:1.33333"
         transform="matrix(0.75000002,0,0,-0.75000002,-953.06897,785.60589)"><path
           d="M 859.67764,1534.3931 H 1419.0483 V 812.50382 H 859.67764 Z"
           id="path27173"
           style="stroke-width:1.33333" /></g></clipPath><clipPath
       clipPathUnits="userSpaceOnUse"
       id="clipPath27177"><g
         id="g27181"
         style="stroke-width:1.33333"
         transform="matrix(0.75000002,0,0,-0.75000002,-944.54747,779.52834)"><path
           d="M 859.67764,1534.3931 H 1419.0483 V 812.50382 H 859.67764 Z"
           id="path27179"
           style="stroke-width:1.33333" /></g></clipPath><clipPath
       clipPathUnits="userSpaceOnUse"
       id="clipPath27183"><g
         id="g27187"
         style="stroke-width:1.33333"
         transform="matrix(0.75000002,0,0,-0.75000002,-960.96835,779.45079)"><path
           d="M 859.67764,1534.3931 H 1419.0483 V 812.50382 H 859.67764 Z"
           id="path27185"
           style="stroke-width:1.33333" /></g></clipPath><clipPath
       clipPathUnits="userSpaceOnUse"
       id="clipPath27189"><g
         id="g27193"
         style="stroke-width:1.33333"
         transform="matrix(0.75000002,0,0,-0.75000002,-929.52797,779.22137)"><path
           d="M 859.67764,1534.3931 H 1419.0483 V 812.50382 H 859.67764 Z"
           id="path27191"
           style="stroke-width:1.33333" /></g></clipPath><clipPath
       clipPathUnits="userSpaceOnUse"
       id="clipPath27195"><g
         id="g27199"
         style="stroke-width:1.33333"
         transform="matrix(0.75000002,0,0,-0.75000002,-849.28472,776.14067)"><path
           d="M 859.67764,1534.3931 H 1419.0483 V 812.50382 H 859.67764 Z"
           id="path27197"
           style="stroke-width:1.33333" /></g></clipPath><clipPath
       clipPathUnits="userSpaceOnUse"
       id="clipPath27201"><g
         id="g27205"
         style="stroke-width:1.33333"
         transform="matrix(0.75000002,0,0,-0.75000002,-909.29747,795.02627)"><path
           d="M 859.67764,1534.3931 H 1419.0483 V 812.50382 H 859.67764 Z"
           id="path27203"
           style="stroke-width:1.33333" /></g></clipPath><clipPath
       clipPathUnits="userSpaceOnUse"
       id="clipPath27207"><g
         id="g27211"
         style="stroke-width:1.33333"
         transform="matrix(0.75000002,0,0,-0.75000002,-887.24275,795.88389)"><path
           d="M 859.67764,1534.3931 H 1419.0483 V 812.50382 H 859.67764 Z"
           id="path27209"
           style="stroke-width:1.33333" /></g></clipPath><clipPath
       clipPathUnits="userSpaceOnUse"
       id="clipPath27213"><g
         id="g27217"
         style="stroke-width:1.33333"
         transform="matrix(0.75000002,0,0,-0.75000002,-867.40007,793.21389)"><path
           d="M 859.67764,1534.3931 H 1419.0483 V 812.50382 H 859.67764 Z"
           id="path27215"
           style="stroke-width:1.33333" /></g></clipPath><clipPath
       clipPathUnits="userSpaceOnUse"
       id="clipPath27219"><g
         id="g27223"
         style="stroke-width:1.33333"
         transform="matrix(0.75000002,0,0,-0.75000002,-901.38242,798.69587)"><path
           d="M 859.67764,1534.3931 H 1419.0483 V 812.50382 H 859.67764 Z"
           id="path27221"
           style="stroke-width:1.33333" /></g></clipPath><clipPath
       clipPathUnits="userSpaceOnUse"
       id="clipPath27225"><g
         id="g27229"
         style="stroke-width:1.33333"
         transform="matrix(0.75000002,0,0,-0.75000002,-853.01627,798.69587)"><path
           d="M 859.67764,1534.3931 H 1419.0483 V 812.50382 H 859.67764 Z"
           id="path27227"
           style="stroke-width:1.33333" /></g></clipPath><clipPath
       clipPathUnits="userSpaceOnUse"
       id="clipPath27231"><g
         id="g27235"
         style="stroke-width:1.33333"
         transform="matrix(0.75000002,0,0,-0.75000002,-879.44395,798.04254)"><path
           d="M 859.67764,1534.3931 H 1419.0483 V 812.50382 H 859.67764 Z"
           id="path27233"
           style="stroke-width:1.33333" /></g></clipPath><clipPath
       clipPathUnits="userSpaceOnUse"
       id="clipPath27237"><g
         id="g27241"><path
           d="M 859.67764,1534.3931 H 1419.0483 V 812.50382 H 859.67764 Z"
           id="path27239"
           style="stroke-width:1" /></g></clipPath><clipPath
       clipPathUnits="userSpaceOnUse"
       id="clipPath27243"><g
         id="g27247"
         style="stroke-width:1.33333"
         transform="matrix(0.75000002,0,0,-0.75000002,-846.16952,793.24127)"><path
           d="M 859.67764,1534.3931 H 1419.0483 V 812.50382 H 859.67764 Z"
           id="path27245"
           style="stroke-width:1.33333" /></g></clipPath><clipPath
       clipPathUnits="userSpaceOnUse"
       id="clipPath27249"><g
         id="g27253"><path
           d="M 859.67764,1534.3931 H 1419.0483 V 812.50382 H 859.67764 Z"
           id="path27251"
           style="stroke-width:1" /></g></clipPath><clipPath
       clipPathUnits="userSpaceOnUse"
       id="clipPath27255"><g
         id="g27259"><path
           d="M 859.67764,1534.3931 H 1419.0483 V 812.50382 H 859.67764 Z"
           id="path27257"
           style="stroke-width:1" /></g></clipPath><clipPath
       clipPathUnits="userSpaceOnUse"
       id="clipPath27261"><g
         id="g27265"><path
           d="M 859.67764,1534.3931 H 1419.0483 V 812.50382 H 859.67764 Z"
           id="path27263"
           style="stroke-width:1" /></g></clipPath><clipPath
       clipPathUnits="userSpaceOnUse"
       id="clipPath27267"><g
         id="g27271"><path
           d="M 859.67764,1534.3931 H 1419.0483 V 812.50382 H 859.67764 Z"
           id="path27269"
           style="stroke-width:1" /></g></clipPath><clipPath
       clipPathUnits="userSpaceOnUse"
       id="clipPath27273"><g
         id="g27277"><path
           d="M 859.67764,1534.3931 H 1419.0483 V 812.50382 H 859.67764 Z"
           id="path27275"
           style="stroke-width:1" /></g></clipPath><clipPath
       clipPathUnits="userSpaceOnUse"
       id="clipPath27279"><g
         id="g27283"><path
           d="M 859.67764,1534.3931 H 1419.0483 V 812.50382 H 859.67764 Z"
           id="path27281"
           style="stroke-width:1" /></g></clipPath><clipPath
       clipPathUnits="userSpaceOnUse"
       id="clipPath27285"><g
         id="g27289"
         style="stroke-width:1.33333"
         transform="matrix(0.75000002,0,0,-0.75000002,-895.00352,794.86239)"><path
           d="M 859.67764,1534.3931 H 1419.0483 V 812.50382 H 859.67764 Z"
           id="path27287"
           style="stroke-width:1.33333" /></g></clipPath><clipPath
       clipPathUnits="userSpaceOnUse"
       id="clipPath27291"><g
         id="g27295"
         style="stroke-width:1.33333"
         transform="matrix(0.75000002,0,0,-0.75000002,-856.65295,794.86239)"><path
           d="M 859.67764,1534.3931 H 1419.0483 V 812.50382 H 859.67764 Z"
           id="path27293"
           style="stroke-width:1.33333" /></g></clipPath><clipPath
       clipPathUnits="userSpaceOnUse"
       id="clipPath27297"><g
         id="g27301"
         style="stroke-width:1.33333"
         transform="matrix(0.75000002,0,0,-0.75000002,-873.15092,799.94769)"><path
           d="M 859.67764,1534.3931 H 1419.0483 V 812.50382 H 859.67764 Z"
           id="path27299"
           style="stroke-width:1.33333" /></g></clipPath><clipPath
       clipPathUnits="userSpaceOnUse"
       id="clipPath27303"><g
         id="g27307"
         style="stroke-width:1.33333"
         transform="matrix(0.75000002,0,0,-0.75000002,-861.07187,799.94769)"><path
           d="M 859.67764,1534.3931 H 1419.0483 V 812.50382 H 859.67764 Z"
           id="path27305"
           style="stroke-width:1.33333" /></g></clipPath><clipPath
       clipPathUnits="userSpaceOnUse"
       id="clipPath27309"><g
         id="g27313"
         style="stroke-width:1.33333"
         transform="matrix(0.75000002,0,0,-0.75000002,-905.18222,794.98539)"><path
           d="M 859.67764,1534.3931 H 1419.0483 V 812.50382 H 859.67764 Z"
           id="path27311"
           style="stroke-width:1.33333" /></g></clipPath><clipPath
       clipPathUnits="userSpaceOnUse"
       id="clipPath27315"><g
         id="g27319"
         style="stroke-width:1.33333"
         transform="matrix(0.75000002,0,0,-0.75000002,-848.68517,794.98539)"><path
           d="M 859.67764,1534.3931 H 1419.0483 V 812.50382 H 859.67764 Z"
           id="path27317"
           style="stroke-width:1.33333" /></g></clipPath><clipPath
       clipPathUnits="userSpaceOnUse"
       id="clipPath27321"><g
         id="g27325"
         style="stroke-width:1.33333"
         transform="matrix(0.75000002,0,0,-0.75000002,-942.67052,795.02627)"><path
           d="M 859.67764,1534.3931 H 1419.0483 V 812.50382 H 859.67764 Z"
           id="path27323"
           style="stroke-width:1.33333" /></g></clipPath><clipPath
       clipPathUnits="userSpaceOnUse"
       id="clipPath27327"><g
         id="g27331"
         style="stroke-width:1.33333"
         transform="matrix(0.75000002,0,0,-0.75000002,-947.70467,793.98009)"><path
           d="M 859.67764,1534.3931 H 1419.0483 V 812.50382 H 859.67764 Z"
           id="path27329"
           style="stroke-width:1.33333" /></g></clipPath><clipPath
       clipPathUnits="userSpaceOnUse"
       id="clipPath27333"><g
         id="g27337"
         style="stroke-width:1.33333"
         transform="matrix(0.75000002,0,0,-0.75000002,-928.83752,795.88389)"><path
           d="M 859.67764,1534.3931 H 1419.0483 V 812.50382 H 859.67764 Z"
           id="path27335"
           style="stroke-width:1.33333" /></g></clipPath><clipPath
       clipPathUnits="userSpaceOnUse"
       id="clipPath27339"><g
         id="g27343"
         style="stroke-width:1.33333"
         transform="matrix(0.75000002,0,0,-0.75000002,-971.94497,798.67599)"><path
           d="M 859.67764,1534.3931 H 1419.0483 V 812.50382 H 859.67764 Z"
           id="path27341"
           style="stroke-width:1.33333" /></g></clipPath><clipPath
       clipPathUnits="userSpaceOnUse"
       id="clipPath27345"><g
         id="g27349"
         style="stroke-width:1.33333"
         transform="matrix(0.75000002,0,0,-0.75000002,-978.79067,799.35077)"><path
           d="M 859.67764,1534.3931 H 1419.0483 V 812.50382 H 859.67764 Z"
           id="path27347"
           style="stroke-width:1.33333" /></g></clipPath><clipPath
       clipPathUnits="userSpaceOnUse"
       id="clipPath27351"><g
         id="g27355"
         style="stroke-width:1.33333"
         transform="matrix(0.75000002,0,0,-0.75000002,-959.15297,799.35077)"><path
           d="M 859.67764,1534.3931 H 1419.0483 V 812.50382 H 859.67764 Z"
           id="path27353"
           style="stroke-width:1.33333" /></g></clipPath><clipPath
       clipPathUnits="userSpaceOnUse"
       id="clipPath27357"><g
         id="g27361"
         style="stroke-width:1.33333"
         transform="matrix(0.75000002,0,0,-0.75000002,-920.19595,799.35077)"><path
           d="M 859.67764,1534.3931 H 1419.0483 V 812.50382 H 859.67764 Z"
           id="path27359"
           style="stroke-width:1.33333" /></g></clipPath><clipPath
       clipPathUnits="userSpaceOnUse"
       id="clipPath27363"><g
         id="g27367"
         style="stroke-width:1.33333"
         transform="matrix(0.75000002,0,0,-0.75000002,-975.27985,795.78564)"><path
           d="M 859.67764,1534.3931 H 1419.0483 V 812.50382 H 859.67764 Z"
           id="path27365"
           style="stroke-width:1.33333" /></g></clipPath><clipPath
       clipPathUnits="userSpaceOnUse"
       id="clipPath27369"><g
         id="g27373"
         style="stroke-width:1.33333"
         transform="matrix(0.75000002,0,0,-0.75000002,-938.45852,795.78564)"><path
           d="M 859.67764,1534.3931 H 1419.0483 V 812.50382 H 859.67764 Z"
           id="path27371"
           style="stroke-width:1.33333" /></g></clipPath><clipPath
       clipPathUnits="userSpaceOnUse"
       id="clipPath27375"><g
         id="g27379"><path
           d="M 859.67764,1534.3931 H 1419.0483 V 812.50382 H 859.67764 Z"
           id="path27377"
           style="stroke-width:1" /></g></clipPath><clipPath
       clipPathUnits="userSpaceOnUse"
       id="clipPath27381"><g
         id="g27385"><path
           d="M 859.67764,1534.3931 H 1419.0483 V 812.50382 H 859.67764 Z"
           id="path27383"
           style="stroke-width:1" /></g></clipPath><clipPath
       clipPathUnits="userSpaceOnUse"
       id="clipPath27387"><g
         id="g27391"><path
           d="M 859.67764,1534.3931 H 1419.0483 V 812.50382 H 859.67764 Z"
           id="path27389"
           style="stroke-width:1" /></g></clipPath><clipPath
       clipPathUnits="userSpaceOnUse"
       id="clipPath27393"><g
         id="g27397"><path
           d="M 859.67764,1534.3931 H 1419.0483 V 812.50382 H 859.67764 Z"
           id="path27395"
           style="stroke-width:1" /></g></clipPath><clipPath
       clipPathUnits="userSpaceOnUse"
       id="clipPath27399"><g
         id="g27403"><path
           d="M 859.67764,1534.3931 H 1419.0483 V 812.50382 H 859.67764 Z"
           id="path27401"
           style="stroke-width:1" /></g></clipPath><clipPath
       clipPathUnits="userSpaceOnUse"
       id="clipPath27405"><g
         id="g27409"><path
           d="M 859.67764,1534.3931 H 1419.0483 V 812.50382 H 859.67764 Z"
           id="path27407"
           style="stroke-width:1" /></g></clipPath><clipPath
       clipPathUnits="userSpaceOnUse"
       id="clipPath27411"><g
         id="g27415"><path
           d="M 859.67764,1534.3931 H 1419.0483 V 812.50382 H 859.67764 Z"
           id="path27413"
           style="stroke-width:1" /></g></clipPath><clipPath
       clipPathUnits="userSpaceOnUse"
       id="clipPath27417"><g
         id="g27421"
         style="stroke-width:1.33333"
         transform="matrix(0.75000002,0,0,-0.75000002,-917.41465,793.21389)"><path
           d="M 859.67764,1534.3931 H 1419.0483 V 812.50382 H 859.67764 Z"
           id="path27419"
           style="stroke-width:1.33333" /></g></clipPath><clipPath
       clipPathUnits="userSpaceOnUse"
       id="clipPath27423"><g
         id="g27427"
         style="stroke-width:1.33333"
         transform="matrix(0.75000002,0,0,-0.75000002,-985.77407,794.86239)"><path
           d="M 859.67764,1534.3931 H 1419.0483 V 812.50382 H 859.67764 Z"
           id="path27425"
           style="stroke-width:1.33333" /></g></clipPath><clipPath
       clipPathUnits="userSpaceOnUse"
       id="clipPath27429"><g
         id="g27433"
         style="stroke-width:1.33333"
         transform="matrix(0.75000002,0,0,-0.75000002,-956.06305,794.86239)"><path
           d="M 859.67764,1534.3931 H 1419.0483 V 812.50382 H 859.67764 Z"
           id="path27431"
           style="stroke-width:1.33333" /></g></clipPath><clipPath
       clipPathUnits="userSpaceOnUse"
       id="clipPath27435"><g
         id="g27439"
         style="stroke-width:1.33333"
         transform="matrix(0.75000002,0,0,-0.75000002,-951.06992,794.86239)"><path
           d="M 859.67764,1534.3931 H 1419.0483 V 812.50382 H 859.67764 Z"
           id="path27437"
           style="stroke-width:1.33333" /></g></clipPath><clipPath
       clipPathUnits="userSpaceOnUse"
       id="clipPath27441"><g
         id="g27445"
         style="stroke-width:1.33333"
         transform="matrix(0.75000002,0,0,-0.75000002,-966.73787,795.02687)"><path
           d="M 859.67764,1534.3931 H 1419.0483 V 812.50382 H 859.67764 Z"
           id="path27443"
           style="stroke-width:1.33333" /></g></clipPath><clipPath
       clipPathUnits="userSpaceOnUse"
       id="clipPath27447"><g
         id="g27451"><path
           d="M 859.67764,1534.3931 H 1419.0483 V 812.50382 H 859.67764 Z"
           id="path27449"
           style="stroke-width:1" /></g></clipPath><clipPath
       clipPathUnits="userSpaceOnUse"
       id="clipPath27453"><g
         id="g27457"><path
           d="M 859.67764,1534.3931 H 1419.0483 V 812.50382 H 859.67764 Z"
           id="path27455"
           style="stroke-width:1" /></g></clipPath><clipPath
       clipPathUnits="userSpaceOnUse"
       id="clipPath27459"><g
         id="g27463"
         style="stroke-width:1.33333"
         transform="matrix(0.75000002,0,0,-0.75000002,-806.02982,776.13917)"><path
           d="M 859.67764,1534.3931 H 1419.0483 V 812.50382 H 859.67764 Z"
           id="path27461"
           style="stroke-width:1.33333" /></g></clipPath><clipPath
       clipPathUnits="userSpaceOnUse"
       id="clipPath27465"><g
         id="g27469"><path
           d="M 859.67764,1534.3931 H 1419.0483 V 812.50382 H 859.67764 Z"
           id="path27467"
           style="stroke-width:1" /></g></clipPath><clipPath
       clipPathUnits="userSpaceOnUse"
       id="clipPath27471"><g
         id="g27475"><path
           d="M 859.67764,1534.3931 H 1419.0483 V 812.50382 H 859.67764 Z"
           id="path27473"
           style="stroke-width:1" /></g></clipPath><clipPath
       clipPathUnits="userSpaceOnUse"
       id="clipPath27477"><g
         id="g27481"><path
           d="M 859.67764,1534.3931 H 1419.0483 V 812.50382 H 859.67764 Z"
           id="path27479"
           style="stroke-width:1" /></g></clipPath><clipPath
       clipPathUnits="userSpaceOnUse"
       id="clipPath27483"><g
         id="g27487"><path
           d="M 859.67764,1534.3931 H 1419.0483 V 812.50382 H 859.67764 Z"
           id="path27485"
           style="stroke-width:1" /></g></clipPath><clipPath
       clipPathUnits="userSpaceOnUse"
       id="clipPath27489"><g
         id="g27493"><path
           d="M 859.67764,1534.3931 H 1419.0483 V 812.50382 H 859.67764 Z"
           id="path27491"
           style="stroke-width:1" /></g></clipPath><clipPath
       clipPathUnits="userSpaceOnUse"
       id="clipPath49707"><g
         id="g49713"><g
           id="g49711"
           style="stroke-width:0.49806"
           transform="matrix(2.0077845,0,0,2.0077845,-675.62361,-1318.6223)"><path
             d="M 859.67764,1534.3931 H 1419.0483 V 812.50382 H 859.67764 Z"
             id="path49709"
             style="stroke-width:0.49806" /></g></g></clipPath><clipPath
       clipPathUnits="userSpaceOnUse"
       id="clipPath49722"><g
         id="g49728"><g
           id="g49726"
           style="stroke-width:0.49806"
           transform="matrix(2.0077845,0,0,2.0077845,-675.62363,-1318.6223)"><path
             d="M 859.67764,1534.3931 H 1419.0483 V 812.50382 H 859.67764 Z"
             id="path49724"
             style="stroke-width:0.49806" /></g></g></clipPath><clipPath
       clipPathUnits="userSpaceOnUse"
       id="clipPath49737"><g
         id="g49743"><g
           id="g49741"
           style="stroke-width:0.49806"
           transform="matrix(2.0077845,0,0,2.0077845,-675.62365,-1318.6223)"><path
             d="M 859.67764,1534.3931 H 1419.0483 V 812.50382 H 859.67764 Z"
             id="path49739"
             style="stroke-width:0.49806" /></g></g></clipPath><clipPath
       clipPathUnits="userSpaceOnUse"
       id="clipPath49752"><g
         id="g49758"><g
           id="g49756"
           style="stroke-width:0.49806"
           transform="matrix(2.0077845,0,0,2.0077845,-675.62368,-1318.6223)"><path
             d="M 859.67764,1534.3931 H 1419.0483 V 812.50382 H 859.67764 Z"
             id="path49754"
             style="stroke-width:0.49806" /></g></g></clipPath><clipPath
       clipPathUnits="userSpaceOnUse"
       id="clipPath49767"><g
         id="g49773"><g
           id="g49771"
           style="stroke-width:0.49806"
           transform="matrix(2.0077845,0,0,2.0077845,-675.62364,-1318.6223)"><path
             d="M 859.67764,1534.3931 H 1419.0483 V 812.50382 H 859.67764 Z"
             id="path49769"
             style="stroke-width:0.49806" /></g></g></clipPath><clipPath
       clipPathUnits="userSpaceOnUse"
       id="clipPath49782"><g
         id="g49788"><g
           id="g49786"
           style="stroke-width:0.49806"
           transform="matrix(2.0077845,0,0,2.0077845,-675.62362,-1318.6223)"><path
             d="M 859.67764,1534.3931 H 1419.0483 V 812.50382 H 859.67764 Z"
             id="path49784"
             style="stroke-width:0.49806" /></g></g></clipPath><clipPath
       clipPathUnits="userSpaceOnUse"
       id="clipPath49797"><g
         id="g49803"><g
           id="g49801"
           style="stroke-width:0.49806"
           transform="matrix(2.0077845,0,0,2.0077845,-675.62363,-1318.6223)"><path
             d="M 859.67764,1534.3931 H 1419.0483 V 812.50382 H 859.67764 Z"
             id="path49799"
             style="stroke-width:0.49806" /></g></g></clipPath><clipPath
       clipPathUnits="userSpaceOnUse"
       id="clipPath49812"><g
         id="g49818"><g
           id="g49816"
           style="stroke-width:0.49806"
           transform="matrix(2.0077845,0,0,2.0077845,-675.62361,-1318.6223)"><path
             d="M 859.67764,1534.3931 H 1419.0483 V 812.50382 H 859.67764 Z"
             id="path49814"
             style="stroke-width:0.49806" /></g></g></clipPath><clipPath
       clipPathUnits="userSpaceOnUse"
       id="clipPath49827"><g
         id="g49833"><g
           id="g49831"
           style="stroke-width:0.49806"
           transform="matrix(2.0077845,0,0,2.0077845,-675.6236,-1318.6223)"><path
             d="M 859.67764,1534.3931 H 1419.0483 V 812.50382 H 859.67764 Z"
             id="path49829"
             style="stroke-width:0.49806" /></g></g></clipPath><clipPath
       clipPathUnits="userSpaceOnUse"
       id="clipPath49842"><g
         id="g49848"><g
           id="g49846"
           style="stroke-width:0.49806"
           transform="matrix(2.0077845,0,0,2.0077845,-675.62368,-1318.6223)"><path
             d="M 859.67764,1534.3931 H 1419.0483 V 812.50382 H 859.67764 Z"
             id="path49844"
             style="stroke-width:0.49806" /></g></g></clipPath><clipPath
       clipPathUnits="userSpaceOnUse"
       id="clipPath49857"><g
         id="g49863"><g
           id="g49861"
           style="stroke-width:0.49806"
           transform="matrix(2.0077845,0,0,2.0077845,-675.62365,-1318.6223)"><path
             d="M 859.67764,1534.3931 H 1419.0483 V 812.50382 H 859.67764 Z"
             id="path49859"
             style="stroke-width:0.49806" /></g></g></clipPath><clipPath
       clipPathUnits="userSpaceOnUse"
       id="clipPath49872"><g
         id="g49878"><g
           id="g49876"
           style="stroke-width:0.49806"
           transform="matrix(2.0077845,0,0,2.0077845,-675.62364,-1318.6223)"><path
             d="M 859.67764,1534.3931 H 1419.0483 V 812.50382 H 859.67764 Z"
             id="path49874"
             style="stroke-width:0.49806" /></g></g></clipPath><clipPath
       clipPathUnits="userSpaceOnUse"
       id="clipPath49887"><g
         id="g49893"><g
           id="g49891"
           style="stroke-width:0.49806"
           transform="matrix(2.0077845,0,0,2.0077845,-675.6237,-1318.6223)"><path
             d="M 859.67764,1534.3931 H 1419.0483 V 812.50382 H 859.67764 Z"
             id="path49889"
             style="stroke-width:0.49806" /></g></g></clipPath><clipPath
       clipPathUnits="userSpaceOnUse"
       id="clipPath49902"><g
         id="g49908"><g
           id="g49906"
           style="stroke-width:0.49806"
           transform="matrix(2.0077845,0,0,2.0077845,-675.62364,-1318.6223)"><path
             d="M 859.67764,1534.3931 H 1419.0483 V 812.50382 H 859.67764 Z"
             id="path49904"
             style="stroke-width:0.49806" /></g></g></clipPath><clipPath
       clipPathUnits="userSpaceOnUse"
       id="clipPath49917"><g
         id="g49923"><g
           id="g49921"
           style="stroke-width:0.49806"
           transform="matrix(2.0077845,0,0,2.0077845,-675.6236,-1318.6223)"><path
             d="M 859.67764,1534.3931 H 1419.0483 V 812.50382 H 859.67764 Z"
             id="path49919"
             style="stroke-width:0.49806" /></g></g></clipPath><clipPath
       clipPathUnits="userSpaceOnUse"
       id="clipPath49932"><g
         id="g49938"><g
           id="g49936"
           style="stroke-width:0.49806"
           transform="matrix(2.0077845,0,0,2.0077845,-675.62371,-1318.6223)"><path
             d="M 859.67764,1534.3931 H 1419.0483 V 812.50382 H 859.67764 Z"
             id="path49934"
             style="stroke-width:0.49806" /></g></g></clipPath><clipPath
       clipPathUnits="userSpaceOnUse"
       id="clipPath49947"><g
         id="g49953"><g
           id="g49951"
           style="stroke-width:0.49806"
           transform="matrix(2.0077845,0,0,2.0077845,-675.62368,-1318.6223)"><path
             d="M 859.67764,1534.3931 H 1419.0483 V 812.50382 H 859.67764 Z"
             id="path49949"
             style="stroke-width:0.49806" /></g></g></clipPath><clipPath
       clipPathUnits="userSpaceOnUse"
       id="clipPath49962"><g
         id="g49968"><g
           id="g49966"
           style="stroke-width:0.49806"
           transform="matrix(2.0077845,0,0,2.0077845,-675.62364,-1318.6223)"><path
             d="M 859.67764,1534.3931 H 1419.0483 V 812.50382 H 859.67764 Z"
             id="path49964"
             style="stroke-width:0.49806" /></g></g></clipPath><clipPath
       clipPathUnits="userSpaceOnUse"
       id="clipPath49977"><g
         id="g49983"><g
           id="g49981"
           style="stroke-width:0.49806"
           transform="matrix(2.0077845,0,0,2.0077845,-675.62367,-1318.6223)"><path
             d="M 859.67764,1534.3931 H 1419.0483 V 812.50382 H 859.67764 Z"
             id="path49979"
             style="stroke-width:0.49806" /></g></g></clipPath><clipPath
       clipPathUnits="userSpaceOnUse"
       id="clipPath49992"><g
         id="g49998"><g
           id="g49996"
           style="stroke-width:0.49806"
           transform="matrix(2.0077845,0,0,2.0077845,-675.6237,-1318.6223)"><path
             d="M 859.67764,1534.3931 H 1419.0483 V 812.50382 H 859.67764 Z"
             id="path49994"
             style="stroke-width:0.49806" /></g></g></clipPath><clipPath
       clipPathUnits="userSpaceOnUse"
       id="clipPath50007"><g
         id="g50013"><g
           id="g50011"
           style="stroke-width:0.49806"
           transform="matrix(2.0077845,0,0,2.0077845,-675.62367,-1318.6223)"><path
             d="M 859.67764,1534.3931 H 1419.0483 V 812.50382 H 859.67764 Z"
             id="path50009"
             style="stroke-width:0.49806" /></g></g></clipPath><clipPath
       clipPathUnits="userSpaceOnUse"
       id="clipPath50022"><g
         id="g50028"><g
           id="g50026"
           style="stroke-width:0.49806"
           transform="matrix(2.0077845,0,0,2.0077845,-675.6237,-1318.6223)"><path
             d="M 859.67764,1534.3931 H 1419.0483 V 812.50382 H 859.67764 Z"
             id="path50024"
             style="stroke-width:0.49806" /></g></g></clipPath><clipPath
       clipPathUnits="userSpaceOnUse"
       id="clipPath50037"><g
         id="g50043"><g
           id="g50041"
           style="stroke-width:0.49806"
           transform="matrix(2.0077845,0,0,2.0077845,-675.6236,-1318.6223)"><path
             d="M 859.67764,1534.3931 H 1419.0483 V 812.50382 H 859.67764 Z"
             id="path50039"
             style="stroke-width:0.49806" /></g></g></clipPath><clipPath
       clipPathUnits="userSpaceOnUse"
       id="clipPath50052"><g
         id="g50058"><g
           id="g50056"
           style="stroke-width:0.49806"
           transform="matrix(2.0077845,0,0,2.0077845,-675.62367,-1318.6223)"><path
             d="M 859.67764,1534.3931 H 1419.0483 V 812.50382 H 859.67764 Z"
             id="path50054"
             style="stroke-width:0.49806" /></g></g></clipPath><clipPath
       clipPathUnits="userSpaceOnUse"
       id="clipPath50067"><g
         id="g50073"><g
           id="g50071"
           style="stroke-width:0.49806"
           transform="matrix(2.0077845,0,0,2.0077845,-675.62363,-1318.6223)"><path
             d="M 859.67764,1534.3931 H 1419.0483 V 812.50382 H 859.67764 Z"
             id="path50069"
             style="stroke-width:0.49806" /></g></g></clipPath></defs><sodipodi:namedview
     id="namedview14869"
     pagecolor="#ffffff"
     bordercolor="#000000"
     borderopacity="0.25"
     inkscape:showpageshadow="2"
     inkscape:pageopacity="0.0"
     inkscape:pagecheckerboard="0"
     inkscape:deskcolor="#d1d1d1"
     showgrid="false"
     inkscape:zoom="1.2684564"
     inkscape:cx="1771.8386"
     inkscape:cy="655.12698"
     inkscape:window-width="2787"
     inkscape:window-height="1384"
     inkscape:window-x="1034"
     inkscape:window-y="9"
     inkscape:window-maximized="0"
     inkscape:current-layer="svg14867" /><g
     id="g33263"
     inkscape:export-filename="logo_with_TMI.svg"
     inkscape:export-xdpi="96"
     inkscape:export-ydpi="96"
     transform="translate(-260.42837,-399.26351)"><path
       d="m 345.96137,476.77653 c 23.607,0 43.735,8.382 60.386,25.147 16.764,16.65 25.146,36.779 25.146,60.386 0,23.607 -8.382,43.79199 -25.146,60.55699 -16.651,16.65 -36.779,24.975 -60.386,24.975 -23.607,0 -43.793,-8.325 -60.557,-24.975 -16.651,-16.765 -24.976,-36.94999 -24.976,-60.55699 0,-23.607 8.325,-43.736 24.976,-60.386 16.764,-16.765 36.95,-25.147 60.557,-25.147 z m 0,34.213 c -14.142,0 -26.23,5.018 -36.266,15.054 -10.036,10.036 -15.054,22.124 -15.054,36.266 0,14.141 5.018,26.23 15.054,36.265 10.036,10.03599 22.124,15.05399 36.266,15.05399 14.141,0 26.23,-5.018 36.265,-15.05399 10.036,-10.035 15.054,-22.124 15.054,-36.265 0,-14.142 -5.018,-26.23 -15.054,-36.266 -10.035,-10.036 -22.124,-15.054 -36.265,-15.054 z"
       style="fill:#808080;fill-rule:nonzero"
       id="path14789" /><path
       d="m 470.55137,562.30953 v 85.53199 h -34.213 v -85.53199 c 0,-23.607 8.325,-43.736 24.975,-60.386 16.765,-16.765 36.95,-25.147 60.557,-25.147 23.607,0 43.736,8.382 60.386,25.147 16.765,16.65 25.147,36.779 25.147,60.386 v 85.53199 h -34.213 v -85.53199 c 0,-14.142 -5.018,-26.23 -15.054,-36.266 -10.036,-10.036 -22.124,-15.054 -36.266,-15.054 -14.141,0 -26.23,5.018 -36.266,15.054 -10.035,10.036 -15.053,22.124 -15.053,36.266 z"
       style="fill:#808080;fill-rule:nonzero"
       id="path14791" /><path
       d="m 697.78037,476.77653 c 23.607,0 43.73604,8.382 60.38604,25.147 16.764,16.65 25.146,36.779 25.146,60.386 0,23.607 -8.382,43.79199 -25.146,60.55699 -16.65,16.65 -36.77904,24.975 -60.38604,24.975 -23.607,0 -43.793,-8.325 -60.557,-24.975 -16.65,-16.765 -24.976,-36.94999 -24.976,-60.55699 0,-23.607 8.326,-43.736 24.976,-60.386 16.764,-16.765 36.95,-25.147 60.557,-25.147 z m 0,34.213 c -14.141,0 -26.23,5.018 -36.266,15.054 -10.036,10.036 -15.054,22.124 -15.054,36.266 0,14.141 5.018,26.23 15.054,36.265 10.036,10.03599 22.125,15.05399 36.266,15.05399 14.141,0 26.23,-5.018 36.266,-15.05399 10.03604,-10.035 15.05304,-22.124 15.05304,-36.265 0,-14.142 -5.017,-26.23 -15.05304,-36.266 -10.036,-10.036 -22.125,-15.054 -36.266,-15.054 z"
       style="fill:#808080;fill-rule:nonzero"
       id="path14793" /><g
       id="g14799"
       transform="translate(260.42837,399.26353)"><path
         d="m 1096.35,44.819 v 32.694 h 51.319 v 34.213 h -51.319 v 51.32 c 0,14.141 5.017,26.23 15.053,36.265 10.036,10.036 22.125,15.054 36.266,15.054 v 34.213 c -23.607,0 -43.793,-8.325 -60.557,-24.975 -16.65,-16.765 -24.976,-36.95 -24.976,-60.557 V 44.819 Z"
         style="fill:#808080"
         id="path14795" /><path
         d="m 1238.05,77.513 c 23.607,0 43.736,8.382 60.386,25.147 16.765,16.65 25.147,36.779 25.147,60.386 0,23.607 -8.382,43.792 -25.147,60.557 -16.65,16.65 -36.779,24.975 -60.386,24.975 -23.607,0 -43.793,-8.325 -60.557,-24.975 -16.65,-16.765 -24.975,-36.95 -24.975,-60.557 0,-23.607 8.325,-43.736 24.975,-60.386 16.764,-16.765 36.95,-25.147 60.557,-25.147 z m 0,34.213 c -14.141,0 -26.23,5.018 -36.266,15.054 -10.035,10.036 -15.053,22.124 -15.053,36.266 0,14.141 5.018,26.23 15.053,36.265 10.036,10.036 22.125,15.054 36.266,15.054 14.142,0 26.23,-5.018 36.266,-15.054 10.036,-10.035 15.054,-22.124 15.054,-36.265 0,-14.142 -5.018,-26.23 -15.054,-36.266 -10.036,-10.036 -22.124,-15.054 -36.266,-15.054 z"
         style="fill:#808080"
         id="path14797" /></g><path
       d="m 1879.0984,476.77653 c 23.607,0 43.735,8.382 60.386,25.147 16.764,16.65 25.146,36.779 25.146,60.386 0,23.607 -8.382,43.79199 -25.146,60.55699 -16.651,16.65 -36.779,24.975 -60.386,24.975 -23.607,0 -43.793,-8.325 -60.557,-24.975 -16.651,-16.765 -24.976,-36.94999 -24.976,-60.55699 0,-23.607 8.325,-43.736 24.976,-60.386 16.764,-16.765 36.95,-25.147 60.557,-25.147 z m 0,34.213 c -14.142,0 -26.23,5.018 -36.266,15.054 -10.036,10.036 -15.054,22.124 -15.054,36.266 0,14.141 5.018,26.23 15.054,36.265 10.036,10.03599 22.124,15.05399 36.266,15.05399 14.141,0 26.23,-5.018 36.266,-15.05399 10.035,-10.035 15.053,-22.124 15.053,-36.265 0,-14.142 -5.018,-26.23 -15.053,-36.266 -10.036,-10.036 -22.125,-15.054 -36.266,-15.054 z"
       style="fill:#808080"
       id="path14801" /><path
       d="m 2103.5884,545.20253 c -2.509,-7.071 -6.615,-13.457 -12.317,-19.159 -10.036,-10.036 -22.124,-15.054 -36.266,-15.054 -14.141,0 -26.23,5.018 -36.265,15.054 -5.703,5.702 -9.808,12.088 -12.317,19.159 z m -10.435,51.32 h 40.542 c -4.219,9.57899 -10.264,18.30399 -18.133,26.17299 -16.764,16.764 -36.95,25.146 -60.557,25.146 -23.607,0 -43.792,-8.325 -60.557,-24.975 -16.65,-16.765 -24.975,-36.94999 -24.975,-60.55699 0,-23.607 8.325,-43.736 24.975,-60.386 16.765,-16.765 36.95,-25.147 60.557,-25.147 23.607,0 43.736,8.382 60.386,25.147 16.765,16.65 25.147,36.779 25.147,60.386 0,5.93 -0.513,11.632 -1.54,17.106 h -132.575 c 2.509,7.071 6.614,13.457 12.317,19.159 10.035,10.03599 22.124,15.05399 36.265,15.05399 14.142,0 26.23,-5.018 36.266,-15.05399 0.684,-0.684 1.312,-1.368 1.882,-2.052 z"
       style="fill:#808080"
       id="path14803" /><rect
       x="2145.3882"
       y="507.62152"
       width="34.213001"
       height="140.22099"
       style="fill:#808080"
       id="rect14805" /><rect
       x="2145.3882"
       y="444.08252"
       width="34.213001"
       height="34.213001"
       style="fill:#808080"
       id="rect14807" /><path
       d="m 823.97941,644.15252 c -10.276,0 -17.634,-1.519 -22.071,-4.555 -4.438,-3.036 -7.124,-7.007 -8.058,-11.911 -0.934,-4.905 -1.401,-10.16 -1.401,-15.766 V 431.14453 c 0,-5.138 0.467,-10.043 1.401,-14.714 0.934,-4.905 3.62,-8.876 8.058,-11.912 4.437,-3.27 12.028,-4.905 22.772,-4.905 7.24,0 12.495,0.467 15.765,1.402 3.504,0.934 5.956,2.102 7.357,3.503 1.635,1.401 3.27,3.036 4.905,4.905 l 72.521,93.191 h -2.102 l 72.17,-92.841 c 2.336,-2.569 4.438,-4.554 6.30599,-5.956 2.102,-1.401 4.788,-2.452 8.058,-3.153 3.504,-0.7 8.408,-1.051 14.714,-1.051 10.511,0 17.985,1.635 22.422,4.905 4.438,3.036 7.124,7.007 8.058,11.912 0.934,4.905 1.402,10.043 1.402,15.415 v 180.77599 c 0,5.138 -0.468,10.16 -1.402,15.065 -0.934,4.904 -3.62,8.875 -8.058,11.911 -4.437,3.036 -12.028,4.555 -22.772,4.555 -10.51,0 -17.984,-1.519 -22.422,-4.555 -4.43699,-3.27 -7.12299,-7.357 -8.05799,-12.262 -0.934,-5.138 -1.401,-10.276 -1.401,-15.415 v -99.49699 l -40.99,55.705 c -0.934,1.167 -2.335,2.919 -4.204,5.255 -1.868,2.335 -4.554,4.437 -8.058,6.306 -3.503,1.868 -8.408,2.803 -14.714,2.803 -6.306,0 -11.328,-0.935 -15.065,-2.803 -3.503,-1.869 -6.189,-3.854 -8.058,-5.956 -1.868,-2.336 -3.27,-4.204 -4.204,-5.605 l -40.639,-55.354 v 99.84699 c 0,5.138 -0.467,10.16 -1.402,15.065 -0.934,4.904 -3.62,8.875 -8.058,11.911 -4.437,3.036 -12.028,4.555 -22.772,4.555 z"
       style="fill:#54dddc;fill-rule:nonzero"
       id="path14809" /><path
       d="m 1307.7984,600.00953 c 3.503,7.00599 5.372,12.96199 5.605,17.86699 0.234,4.905 -1.285,9.226 -4.554,12.963 -3.27,3.737 -8.525,7.474 -15.766,11.211 -11.211,5.371 -19.852,7.006 -25.925,4.904 -6.073,-1.868 -11.795,-8.525 -17.167,-19.969 l -59.558,-121.91899 -58.857,122.26899 c -5.606,10.978 -11.445,17.401 -17.517,19.269 -6.073,2.102 -14.598,0.467 -25.575,-4.905 -7.24,-3.503 -12.612,-7.123 -16.116,-10.86 -3.27,-3.737 -4.788,-8.058 -4.554,-12.963 0.233,-4.905 2.102,-10.861 5.605,-17.86699 l 87.936,-182.178 c 2.803,-5.605 6.89,-10.043 12.262,-13.313 5.605,-3.503 11.328,-5.255 17.167,-5.255 4.204,0 8.057,0.817 11.561,2.452 3.737,1.402 7.123,3.504 10.16,6.307 3.036,2.802 5.488,6.189 7.357,10.159 z m -172.719,-6.307 26.626,-54.653 h 57.807 l 26.626,54.653 z"
       style="fill:#54dddc;fill-rule:nonzero"
       id="path14811" /><path
       d="m 1625.0284,647.84152 c -10.51,0 -17.984,-1.518 -22.422,-4.554 -4.438,-3.27 -7.124,-7.357 -8.058,-12.262 -0.934,-5.139 -1.401,-10.277 -1.401,-15.415 V 434.83453 c 0,-5.139 0.467,-10.16 1.401,-15.065 0.934,-4.905 3.62,-8.875 8.058,-11.912 4.438,-3.27 12.028,-4.904 22.772,-4.904 h 69.718 c 8.875,0 18.451,1.868 28.728,5.605 10.277,3.503 19.97,8.992 29.078,16.466 9.343,7.474 16.934,16.816 22.773,28.027 5.839,11.211 8.758,24.524 8.758,39.939 0,15.182 -2.919,28.378 -8.758,39.589 -5.839,11.211 -13.43,20.553 -22.773,28.027 -9.108,7.241 -18.801,12.729 -29.078,16.466 -10.277,3.504 -19.969,5.255 -29.078,5.255 h -37.487 v 33.63299 c 0,5.138 -0.467,10.16 -1.401,15.065 -0.934,4.905 -3.62,8.992 -8.058,12.262 -4.438,3.036 -12.028,4.554 -22.772,4.554 z m 32.231,-129.62599 h 37.837 c 3.036,0 6.54,-0.701 10.51,-2.102 3.971,-1.635 7.474,-4.321 10.511,-8.058 3.036,-3.737 4.554,-8.875 4.554,-15.415 0,-4.905 -1.168,-9.226 -3.503,-12.963 -2.336,-3.97 -5.489,-7.007 -9.46,-9.109 -3.737,-2.335 -8.057,-3.503 -12.962,-3.503 h -37.487 z"
       style="fill:#54dddc;fill-rule:nonzero"
       id="path14813" /><path
       d="m 2428.7384,600.00953 c 3.503,7.00599 5.372,12.96199 5.605,17.86699 0.234,4.905 -1.284,9.226 -4.554,12.963 -3.27,3.737 -8.525,7.474 -15.766,11.211 -11.21,5.371 -19.852,7.006 -25.925,4.904 -6.072,-1.868 -11.795,-8.525 -17.167,-19.969 l -59.558,-121.91899 -58.857,122.26899 c -5.605,10.978 -11.444,17.401 -17.517,19.269 -6.073,2.102 -14.598,0.467 -25.575,-4.905 -7.24,-3.503 -12.612,-7.123 -16.116,-10.86 -3.269,-3.737 -4.788,-8.058 -4.554,-12.963 0.234,-4.905 2.102,-10.861 5.605,-17.86699 l 87.936,-182.178 c 2.803,-5.605 6.89,-10.043 12.262,-13.313 5.605,-3.503 11.328,-5.255 17.167,-5.255 4.204,0 8.058,0.817 11.561,2.452 3.737,1.402 7.124,3.504 10.16,6.307 3.036,2.802 5.489,6.189 7.357,10.159 z m -172.719,-6.307 26.626,-54.653 h 57.807 l 26.626,54.653 z"
       style="fill:#ff9292;fill-rule:nonzero"
       id="path14815" /><path
       d="m 2480.2384,644.15252 c -10.51,0 -17.984,-1.519 -22.422,-4.555 -4.438,-3.27 -7.124,-7.357 -8.058,-12.262 -0.934,-5.138 -1.401,-10.276 -1.401,-15.415 V 431.14453 c 0,-5.138 0.467,-10.16 1.401,-15.065 0.934,-4.904 3.62,-8.875 8.058,-11.911 4.438,-3.27 12.028,-4.905 22.772,-4.905 h 70.419 c 8.875,0 18.451,1.868 28.728,5.605 10.277,3.504 19.969,8.993 29.078,16.467 9.109,7.473 16.583,16.816 22.422,28.027 5.839,11.211 8.759,24.524 8.759,39.939 0,10.744 -1.635,20.787 -4.905,30.129 -3.036,9.343 -7.708,17.867 -14.014,25.575 -6.072,7.474 -13.546,14.13 -22.422,19.969 -8.641,5.606 -18.568,10.044 -29.779,13.313 h -56.405 v 33.98399 c 0,5.138 -0.467,10.159 -1.401,15.064 -0.934,4.905 -3.62,8.992 -8.058,12.262 -4.438,3.036 -12.028,4.555 -22.772,4.555 z m 146.793,-8.409 c -10.51,7.941 -18.802,11.095 -24.874,9.46 -6.073,-1.402 -12.613,-6.774 -19.619,-16.116 l -64.463,-87.58499 72.871,-9.109 43.442,58.507 c 4.671,6.773 7.591,12.49499 8.759,17.16599 1.401,4.672 0.817,9.109 -1.752,13.313 -2.569,4.205 -7.357,8.993 -14.364,14.364 z m -114.562,-121.21799 h 38.538 c 2.102,0 4.554,-0.35 7.357,-1.051 3.036,-0.934 5.839,-2.335 8.408,-4.204 2.569,-2.102 4.671,-4.788 6.306,-8.058 1.869,-3.27 2.803,-7.357 2.803,-12.262 0,-4.904 -1.168,-9.225 -3.503,-12.962 -2.336,-3.971 -5.489,-7.007 -9.46,-9.109 -3.736,-2.336 -7.941,-3.504 -12.612,-3.504 h -37.837 z"
       style="fill:#ff9292;fill-rule:nonzero"
       id="path14817" /></g><path
     d="M 672.25033,301.29609 H 1711.2103"
     style="fill:none;stroke:#808080;stroke-width:4.17px"
     id="path14865" /><path
     d="m 1309.8753,755.8612 h -33.0508 c 8.5558,-4.55901 18.1316,-7.44486 28.3017,-8.23192 l 4.7491,8.23192"
     style="fill:#f39700;fill-opacity:1;fill-rule:nonzero;stroke:none;stroke-width:1.33333"
     id="path19295"
     clip-path="url(#clipPath49722)"
     transform="translate(-260.42837,-399.26351)" /><path
     d="m 1315.0112,764.75408 h -16.7101 c -13.2568,0 -26.2003,1.33585 -38.7021,3.88439 -1.7267,1.73205 -3.3704,3.55244 -4.9124,5.45047 h 15.8883 9.5009 10.2718 10.7778 19.2747 l -5.3889,-9.33486"
     style="fill:#facd88;fill-opacity:1;fill-rule:nonzero;stroke:none;stroke-width:1.33333"
     id="path19299"
     clip-path="url(#clipPath49962)"
     transform="translate(-260.42837,-399.26351)" /><path
     d="m 1309.8753,755.8612 v 0 h -5.3434 c -11.3801,0 -22.5006,1.12704 -33.2462,3.2767 -2.6208,1.71064 -5.1212,3.58725 -7.4877,5.61645 h 51.2119 l -2.4576,-4.26186 -2.677,-4.63129"
     style="fill:#f8b756;fill-opacity:1;fill-rule:nonzero;stroke:none;stroke-width:1.33333"
     id="path19303"
     clip-path="url(#clipPath50067)"
     transform="translate(-260.42837,-399.26351)" /><path
     d="m 1280.0763,774.08807 -16.5254,28.62565 c 0.3319,-9.68555 2.6181,-19.42464 7.0246,-28.62565 h 9.5008"
     style="fill:#15ae68;fill-opacity:1;fill-rule:nonzero;stroke:none;stroke-width:1.33333"
     id="path19307"
     clip-path="url(#clipPath49797)"
     transform="translate(-260.42837,-399.26351)" /><path
     d="m 1301.1254,774.08807 h -10.7778 l -8.355,14.47211 c -6.6284,11.47917 -11.945,23.3599 -15.9874,35.46283 0.6372,2.36115 1.3894,4.69286 2.2621,6.98173 l 7.9455,-13.76537 2.0105,-3.47748 22.9021,-39.67382"
     style="fill:#abd7b2;fill-opacity:1;fill-rule:nonzero;stroke:none;stroke-width:1.33333"
     id="path19311"
     clip-path="url(#clipPath49827)"
     transform="translate(-260.42837,-399.26351)" /><path
     d="m 1290.3465,774.08807 h -10.2691 l -2.6717,4.62861 c -5.6914,9.85689 -10.2692,20.0484 -13.7868,30.43266 0.1767,3.12679 0.5488,6.22949 1.1163,9.29738 l 25.6113,-44.35865"
     style="fill:#81c692;fill-opacity:1;fill-rule:nonzero;stroke:none;stroke-width:1.33333"
     id="path19315"
     clip-path="url(#clipPath49857)"
     transform="translate(-260.42837,-399.26351)" /><path
     d="m 1280.9637,809.01208 16.5281,28.62297 c -8.2239,-5.12922 -15.5162,-11.97978 -21.2772,-20.39373 l 4.7491,-8.22924"
     style="fill:#2ea7e0;fill-opacity:1;fill-rule:nonzero;stroke:none;stroke-width:1.33333"
     id="path19319"
     clip-path="url(#clipPath50052)"
     transform="translate(-260.42837,-399.26351)" /><path
     d="m 1291.4904,790.7822 -5.3916,9.33754 8.3551,14.46943 c 6.6257,11.47917 14.2579,22.02138 22.7147,31.57308 2.3665,0.63178 4.7625,1.1431 7.1799,1.53395 l -7.9455,-13.7627 v 0 l -3.2446,-5.62179 -4.1815,-7.24141 -2.4602,-4.25918 -5.3916,-9.33486 v 0 l -9.6374,-16.69406"
     style="fill:#aed4f0;fill-opacity:1;fill-rule:nonzero;stroke:none;stroke-width:1.33333"
     id="path19323"
     clip-path="url(#clipPath49737)"
     transform="translate(-260.42837,-399.26351)" /><path
     d="m 1286.0996,800.1192 -5.1346,8.89315 2.7494,4.76246 c 5.6726,9.80334 12.1832,18.82231 19.3818,27.01943 2.7921,1.4108 5.6726,2.64224 8.6093,3.67826 l -25.6059,-44.3533"
     style="fill:#86c1ea;fill-opacity:1;fill-rule:nonzero;stroke:none;stroke-width:1.33333"
     id="path19327"
     clip-path="url(#clipPath49947)"
     transform="translate(-260.42837,-399.26351)" /><path
     d="m 1280.9637,809.01208 2.6717,4.62594 c 0.027,0.0455 0.054,0.091 0.078,0.13652 l -2.7493,-4.76246"
     style="fill:#30a8e1;fill-opacity:1;fill-rule:nonzero;stroke:none;stroke-width:1.33333"
     id="path19331"
     clip-path="url(#clipPath50007)"
     transform="translate(-260.42837,-399.26351)" /><path
     d="m 1311.6518,825.70299 h 33.0481 c -8.5531,4.55901 -18.1289,7.44486 -28.299,8.23192 l -4.7491,-8.23192"
     style="fill:#093692;fill-opacity:1;fill-rule:nonzero;stroke:none;stroke-width:1.33333"
     id="path19335"
     clip-path="url(#clipPath49782)"
     transform="translate(-260.42837,-399.26351)" /><path
     d="m 1366.8409,807.47632 h -65.7134 l 5.3888,9.33486 h 16.7075 c 13.2594,0 26.2002,-1.33852 38.7047,-3.88439 1.7267,-1.73205 3.3677,-3.55512 4.9124,-5.45047"
     style="fill:#8f8ec4;fill-opacity:1;fill-rule:nonzero;stroke:none;stroke-width:1.33333"
     id="path19339"
     clip-path="url(#clipPath49767)"
     transform="translate(-260.42837,-399.26351)" /><path
     d="m 1301.128,807.47632 v 0 l 5.3916,9.33486 z"
     style="fill:#617cbd;fill-opacity:1;fill-rule:nonzero;stroke:none;stroke-width:1.33333"
     id="path19343"
     clip-path="url(#clipPath49932)"
     transform="translate(-260.42837,-399.26351)" /><path
     d="m 1357.7302,816.81011 h -34.5071 -16.7075 l 2.4602,4.25918 2.6771,4.63397 h 5.3407 c 11.3801,0 22.5006,-1.12704 33.2489,-3.27671 2.6182,-1.71063 5.1185,-3.58724 7.4877,-5.61644"
     style="fill:#6165ad;fill-opacity:1;fill-rule:nonzero;stroke:none;stroke-width:1.33333"
     id="path19347"
     clip-path="url(#clipPath50037)"
     transform="translate(-260.42837,-399.26351)" /><path
     d="m 1306.5161,816.81011 v 0 l 2.4602,4.25918 z"
     style="fill:#425eaa;fill-opacity:1;fill-rule:nonzero;stroke:none;stroke-width:1.33333"
     id="path19351"
     clip-path="url(#clipPath49992)"
     transform="translate(-260.42837,-399.26351)" /><path
     d="m 1323.2228,816.81011 h -16.7074 z"
     style="fill:#3d4b9e;fill-opacity:1;fill-rule:nonzero;stroke:none;stroke-width:1.33333"
     id="path19355"
     clip-path="url(#clipPath49812)"
     transform="translate(-260.42837,-399.26351)" /><path
     d="m 1341.4476,807.47632 16.5254,-28.62565 c -0.3293,9.68555 -2.6181,19.42464 -7.0219,28.62565 h -9.5035"
     style="fill:#963e92;fill-opacity:1;fill-rule:nonzero;stroke:none;stroke-width:1.33333"
     id="path19359"
     clip-path="url(#clipPath49842)"
     transform="translate(-260.42837,-399.26351)" /><path
     d="m 1353.2598,750.56166 -32.8581,56.914 h 10.7805 l 8.3524,-14.47211 c 6.6284,-11.47918 11.9423,-23.35991 15.9873,-35.46015 -0.6345,-2.36384 -1.3921,-4.69554 -2.2621,-6.98174"
     style="fill:#c79fc8;fill-opacity:1;fill-rule:nonzero;stroke:none;stroke-width:1.33333"
     id="path19363"
     clip-path="url(#clipPath49752)"
     transform="translate(-260.42837,-399.26351)" /><path
     d="m 1356.7891,763.11874 -25.6059,44.35865 h 10.2637 l 2.6717,-4.63129 c 5.6914,-9.85688 10.2772,-20.0484 13.7868,-30.42998 -0.1713,-3.12679 -0.5461,-6.22949 -1.1163,-9.29738"
     style="fill:#b378b1;fill-opacity:1;fill-rule:nonzero;stroke:none;stroke-width:1.33333"
     id="path19367"
     clip-path="url(#clipPath49977)"
     transform="translate(-260.42837,-399.26351)" /><path
     d="m 1340.5628,772.55232 -16.5308,-28.62297 c 8.2266,5.12922 15.5189,11.97978 21.2826,20.39373 l -4.7518,8.22924"
     style="fill:#e83929;fill-opacity:1;fill-rule:nonzero;stroke:none;stroke-width:1.33333"
     id="path19371"
     clip-path="url(#clipPath49872)"
     transform="translate(-260.42837,-399.26351)" /><path
     d="m 1297.1791,733.86813 7.9455,13.76269 3.2446,5.6218 4.1815,7.24141 2.4602,4.25918 v 0 0 l 5.3916,9.33486 v 0 l 9.6374,16.69406 5.3915,-9.33754 -8.355,-14.46943 c -6.6284,-11.47918 -14.2607,-22.02138 -22.7174,-31.57308 -2.3612,-0.63179 -4.7625,-1.1431 -7.1772,-1.53395"
     style="fill:#f4a587;fill-opacity:1;fill-rule:nonzero;stroke:none;stroke-width:1.33333"
     id="path19375"
     clip-path="url(#clipPath49887)"
     transform="translate(-260.42837,-399.26351)" /><path
     d="m 1305.1251,747.62989 v 0 l 3.2446,5.6218 z"
     style="fill:#ed6c19;fill-opacity:1;fill-rule:nonzero;stroke:none;stroke-width:1.33333"
     id="path19379"
     clip-path="url(#clipPath50022)"
     transform="translate(-260.42837,-399.26351)" /><path
     d="m 1315.0112,764.75408 v 0 l 5.3889,9.33486 v 0 z"
     style="fill:#f08950;fill-opacity:1;fill-rule:nonzero;stroke:none;stroke-width:1.33333"
     id="path19383"
     clip-path="url(#clipPath49902)"
     transform="translate(-260.42837,-399.26351)" /><path
     d="m 1312.5513,760.49376 2.4602,4.25918 v 0 z"
     style="fill:#ef7e3b;fill-opacity:1;fill-rule:nonzero;stroke:none;stroke-width:1.33333"
     id="path19387"
     clip-path="url(#clipPath49917)"
     transform="translate(-260.42837,-399.26351)" /><path
     d="m 1309.8191,737.09063 25.6086,44.35597 5.1346,-8.89314 -2.6744,-4.62862 c -5.6887,-9.8542 -12.226,-18.92136 -19.4567,-27.15327 -2.7922,-1.41348 -5.67,-2.64225 -8.6121,-3.68094"
     style="fill:#ee7d5b;fill-opacity:1;fill-rule:nonzero;stroke:none;stroke-width:1.33333"
     id="path19391"
     clip-path="url(#clipPath49707)"
     transform="translate(-260.42837,-399.26351)" /><path
     d="m 1045.8883,1039.0558 h -17.0733 v -4.2027 h 17.0733 z"
     style="fill:#000000;fill-opacity:1;fill-rule:nonzero;stroke:none;stroke-width:0.66408"
     id="path19393"
     clip-path="url(#clipPath27489)"
     transform="matrix(2.0077845,0,0,2.0077845,-936.05205,-1717.8858)" /><path
     d="m 1039.5576,1066.3731 h -4.412 v -26.5306 h 4.412 z"
     style="fill:#000000;fill-opacity:1;fill-rule:nonzero;stroke:none;stroke-width:0.66408"
     id="path19395"
     clip-path="url(#clipPath27483)"
     transform="matrix(2.0077845,0,0,2.0077845,-936.05205,-1717.8858)" /><path
     d="m 1108.9323,1039.0558 h -17.0747 v -4.2027 h 17.0747 z"
     style="fill:#000000;fill-opacity:1;fill-rule:nonzero;stroke:none;stroke-width:0.66408"
     id="path19397"
     clip-path="url(#clipPath27477)"
     transform="matrix(2.0077845,0,0,2.0077845,-936.05205,-1717.8858)" /><path
     d="m 1108.9323,1066.3731 h -17.0747 v -4.2026 h 17.0747 z"
     style="fill:#000000;fill-opacity:1;fill-rule:nonzero;stroke:none;stroke-width:0.66408"
     id="path19399"
     clip-path="url(#clipPath27471)"
     transform="matrix(2.0077845,0,0,2.0077845,-936.05205,-1717.8858)" /><path
     d="m 1102.6016,1061.3825 h -4.4133 v -21.54 h 4.4133 z"
     style="fill:#000000;fill-opacity:1;fill-rule:nonzero;stroke:none;stroke-width:0.66408"
     id="path19401"
     clip-path="url(#clipPath27465)"
     transform="matrix(2.0077845,0,0,2.0077845,-936.05205,-1717.8858)" /><g
     id="g19403"
     transform="matrix(2.6770459,0,0,-2.6770459,1221.7268,359.8744)"
     clip-path="url(#clipPath27459)"
     style="stroke-width:0.498061"><path
       d="M 0,0 -4.375,-20.583 -8.75,0 h -3.223 l 4.942,-23.247 h 5.312 L 3.223,0 Z"
       style="fill:#000000;fill-opacity:1;fill-rule:nonzero;stroke:none;stroke-width:0.498061"
       id="path19405" /></g><path
     d="m 1058.3696,1066.3731 h -4.4133 v -31.5213 h 4.4133 z"
     style="fill:#000000;fill-opacity:1;fill-rule:nonzero;stroke:none;stroke-width:0.66408"
     id="path19407"
     clip-path="url(#clipPath27453)"
     transform="matrix(2.0077845,0,0,2.0077845,-936.05205,-1717.8858)" /><path
     d="m 1083.7896,1066.3731 h -4.4133 v -31.5213 h 4.4133 z"
     style="fill:#000000;fill-opacity:1;fill-rule:nonzero;stroke:none;stroke-width:0.66408"
     id="path19409"
     clip-path="url(#clipPath27447)"
     transform="matrix(2.0077845,0,0,2.0077845,-936.05205,-1717.8858)" /><g
     id="g19411"
     transform="matrix(2.6770459,0,0,-2.6770459,1651.9496,410.43764)"
     clip-path="url(#clipPath27441)"
     style="stroke-width:0.498061"><path
       d="M 0,0 -1.302,-3.703 -2.604,0 h -0.893 l 1.768,-4.753 h 0.854 L 0.894,0 Z"
       style="fill:#000000;fill-opacity:1;fill-rule:nonzero;stroke:none;stroke-width:0.498061"
       id="path19413" /></g><g
     id="g19415"
     transform="matrix(2.6770459,0,0,-2.6770459,1610.0058,409.99733)"
     clip-path="url(#clipPath27435)"
     style="stroke-width:0.498061"><path
       d="m 0,0 c -0.822,0 -1.277,-0.373 -1.525,-0.83 v 0.775 H -2.4 v -4.863 h 0.875 v 2.189 c 0,1.158 0.181,1.854 1.525,1.854 0.358,0 0.746,-0.147 0.746,-1.041 v -3.002 h 0.876 v 2.897 C 1.622,-1.207 1.622,0 0,0"
       style="fill:#000000;fill-opacity:1;fill-rule:nonzero;stroke:none;stroke-width:0.498061"
       id="path19417" /></g><g
     id="g19419"
     transform="matrix(2.6770459,0,0,-2.6770459,1623.3726,409.99733)"
     clip-path="url(#clipPath27429)"
     style="stroke-width:0.498061"><path
       d="m 0,0 c -0.822,0 -1.277,-0.373 -1.525,-0.83 v 0.775 H -2.4 v -4.863 h 0.875 v 2.189 c 0,1.158 0.181,1.854 1.525,1.854 0.358,0 0.746,-0.147 0.746,-1.041 v -3.002 h 0.876 v 2.897 C 1.622,-1.207 1.622,0 0,0"
       style="fill:#000000;fill-opacity:1;fill-rule:nonzero;stroke:none;stroke-width:0.498061"
       id="path19421" /></g><g
     id="g19423"
     transform="matrix(2.6770459,0,0,-2.6770459,1702.9104,409.99733)"
     clip-path="url(#clipPath27423)"
     style="stroke-width:0.498061"><path
       d="m 0,0 c -0.822,0 -1.278,-0.373 -1.525,-0.83 v 0.775 h -0.876 v -4.863 h 0.876 v 2.189 c 0,1.158 0.18,1.854 1.525,1.854 0.357,0 0.746,-0.147 0.746,-1.041 v -3.002 h 0.875 v 2.897 C 1.621,-1.207 1.621,0 0,0"
       style="fill:#000000;fill-opacity:1;fill-rule:nonzero;stroke:none;stroke-width:0.498061"
       id="path19425" /></g><g
     id="g19427"
     transform="matrix(2.6770459,0,0,-2.6770459,1519.9091,405.58422)"
     clip-path="url(#clipPath27417)"
     style="stroke-width:0.498061"><path
       d="M 0,0 -2.032,-5.351 -4.065,0 h -1.264 v -6.566 h 0.876 v 5.286 l 2.029,-5.286 h 0.783 L 0.388,-1.28 V -6.566 H 1.264 V 0 Z"
       style="fill:#000000;fill-opacity:1;fill-rule:nonzero;stroke:none;stroke-width:0.498061"
       id="path19429" /></g><path
     d="m 1302.9443,1066.3731 h -1.168 v -6.3373 h 1.168 z"
     style="fill:#000000;fill-opacity:1;fill-rule:nonzero;stroke:none;stroke-width:0.66408"
     id="path19431"
     clip-path="url(#clipPath27411)"
     transform="matrix(2.0077845,0,0,2.0077845,-936.05205,-1717.8858)" /><path
     d="m 1302.9443,1058.9611 h -1.168 v -1.3426 h 1.168 z"
     style="fill:#000000;fill-opacity:1;fill-rule:nonzero;stroke:none;stroke-width:0.66408"
     id="path19433"
     clip-path="url(#clipPath27405)"
     transform="matrix(2.0077845,0,0,2.0077845,-936.05205,-1717.8858)" /><path
     d="m 1246.8336,1066.3731 h -1.168 v -6.3373 h 1.168 z"
     style="fill:#000000;fill-opacity:1;fill-rule:nonzero;stroke:none;stroke-width:0.66408"
     id="path19435"
     clip-path="url(#clipPath27399)"
     transform="matrix(2.0077845,0,0,2.0077845,-936.05205,-1717.8858)" /><path
     d="m 1246.8336,1058.9611 h -1.168 v -1.3426 h 1.168 z"
     style="fill:#000000;fill-opacity:1;fill-rule:nonzero;stroke:none;stroke-width:0.66408"
     id="path19437"
     clip-path="url(#clipPath27393)"
     transform="matrix(2.0077845,0,0,2.0077845,-936.05205,-1717.8858)" /><path
     d="m 1241.3936,1066.3731 h -1.168 v -6.3373 h 1.168 z"
     style="fill:#000000;fill-opacity:1;fill-rule:nonzero;stroke:none;stroke-width:0.66408"
     id="path19439"
     clip-path="url(#clipPath27387)"
     transform="matrix(2.0077845,0,0,2.0077845,-936.05205,-1717.8858)" /><path
     d="m 1241.3936,1058.9611 h -1.168 v -1.3426 h 1.168 z"
     style="fill:#000000;fill-opacity:1;fill-rule:nonzero;stroke:none;stroke-width:0.66408"
     id="path19441"
     clip-path="url(#clipPath27381)"
     transform="matrix(2.0077845,0,0,2.0077845,-936.05205,-1717.8858)" /><path
     d="m 1244.143,1066.3731 h -1.168 v -8.7546 h 1.168 z"
     style="fill:#000000;fill-opacity:1;fill-rule:nonzero;stroke:none;stroke-width:0.66408"
     id="path19443"
     clip-path="url(#clipPath27375)"
     transform="matrix(2.0077845,0,0,2.0077845,-936.05205,-1717.8858)" /><g
     id="g19445"
     transform="matrix(2.6770459,0,0,-2.6770459,1576.2445,412.46891)"
     clip-path="url(#clipPath27369)"
     style="stroke-width:0.498061"><path
       d="m 0,0 v 0.766 h -0.924 v 1.41 H -1.745 V 0.766 H -2.529 V 0 h 0.784 v -2.48 c 0,-1.183 0.31,-1.515 1.267,-1.515 H 0 v 0.739 h -0.357 c -0.5,0 -0.567,0.12 -0.567,0.774 V 0 Z"
       style="fill:#000000;fill-opacity:1;fill-rule:nonzero;stroke:none;stroke-width:0.498061"
       id="path19447" /></g><g
     id="g19449"
     transform="matrix(2.6770459,0,0,-2.6770459,1674.8169,412.46891)"
     clip-path="url(#clipPath27363)"
     style="stroke-width:0.498061"><path
       d="m 0,0 v 0.766 h -0.924 v 1.41 h -0.82 V 0.766 H -2.528 V 0 h 0.784 v -2.48 c 0,-1.183 0.31,-1.515 1.266,-1.515 H 0 v 0.739 h -0.356 c -0.501,0 -0.568,0.12 -0.568,0.774 V 0 Z"
       style="fill:#000000;fill-opacity:1;fill-rule:nonzero;stroke:none;stroke-width:0.498061"
       id="path19451" /></g><g
     id="g19453"
     transform="matrix(2.6770459,0,0,-2.6770459,1527.3547,422.01292)"
     clip-path="url(#clipPath27357)"
     style="stroke-width:0.498061"><path
       d="M 0,0 C -0.439,0.438 -0.666,1.099 -0.653,1.913 -0.666,2.726 -0.439,3.387 0,3.825 c 0.771,0.767 2.317,0.77 3.092,0 C 3.532,3.387 3.758,2.726 3.745,1.913 3.758,1.099 3.532,0.438 3.092,0 2.328,-0.759 0.769,-0.764 0,0 m 1.556,0.254 c 0.982,0 1.385,0.669 1.369,1.651 L 2.924,1.913 2.925,1.92 C 2.935,2.508 2.792,2.966 2.513,3.243 2.054,3.7 0.131,4.035 0.168,1.92 V 1.913 1.905 C 0.137,0.092 1.397,0.254 1.556,0.254"
       style="fill:#000000;fill-opacity:1;fill-rule:nonzero;stroke:none;stroke-width:0.498061"
       id="path19455" /></g><g
     id="g19457"
     transform="matrix(2.6770459,0,0,-2.6770459,1631.6445,422.01292)"
     clip-path="url(#clipPath27351)"
     style="stroke-width:0.498061"><path
       d="M 0,0 C -0.439,0.438 -0.666,1.099 -0.653,1.913 -0.666,2.726 -0.439,3.387 0,3.825 c 0.771,0.767 2.317,0.77 3.092,0 C 3.532,3.387 3.758,2.726 3.745,1.913 3.758,1.099 3.532,0.438 3.092,0 2.328,-0.759 0.769,-0.764 0,0 m 1.556,0.254 c 0.982,0 1.385,0.669 1.369,1.651 L 2.924,1.913 2.925,1.92 C 2.935,2.508 2.792,2.966 2.513,3.243 2.054,3.7 0.131,4.035 0.168,1.92 V 1.913 1.905 C 0.137,0.092 1.397,0.254 1.556,0.254"
       style="fill:#000000;fill-opacity:1;fill-rule:nonzero;stroke:none;stroke-width:0.498061"
       id="path19459" /></g><g
     id="g19461"
     transform="matrix(2.6770459,0,0,-2.6770459,1684.2155,422.01292)"
     clip-path="url(#clipPath27345)"
     style="stroke-width:0.498061"><path
       d="M 0,0 C -0.439,0.438 -0.666,1.099 -0.653,1.913 -0.666,2.726 -0.439,3.387 0,3.825 c 0.771,0.767 2.317,0.77 3.092,0 C 3.532,3.387 3.758,2.726 3.745,1.913 3.758,1.099 3.532,0.438 3.092,0 2.328,-0.759 0.769,-0.764 0,0 m 1.556,0.254 c 0.982,0 1.385,0.669 1.369,1.651 L 2.924,1.913 2.925,1.92 C 2.935,2.508 2.792,2.966 2.513,3.243 2.054,3.7 0.131,4.035 0.168,1.92 V 1.913 1.905 C 0.137,0.092 1.397,0.254 1.556,0.254"
       style="fill:#000000;fill-opacity:1;fill-rule:nonzero;stroke:none;stroke-width:0.498061"
       id="path19463" /></g><g
     id="g19465"
     transform="matrix(2.6770459,0,0,-2.6770459,1665.8893,420.20651)"
     clip-path="url(#clipPath27339)"
     style="stroke-width:0.498061"><path
       d="m 0,0 v 2.443 c 0,1.349 -1.282,1.349 -1.83,1.349 -1.116,0 -1.926,-0.685 -1.926,-1.628 h 0.8 c 0,0.569 0.584,0.828 1.126,0.828 0.971,0 1.095,-0.414 1.011,-0.919 -0.105,-0.63 -2.557,-0.072 -3.014,-1.49 -0.517,-1.568 1.929,-2.587 3.134,-1.092 0.042,-0.485 0.291,-0.638 1.146,-0.638 v 0.72 C 0.033,-0.427 0,-0.243 0,0 M -3.061,0.351 C -2.91,1.1 -1.26,0.77 -0.801,1.283 v -0.68 c 0,-1.309 -2.521,-1.555 -2.26,-0.252"
       style="fill:#000000;fill-opacity:1;fill-rule:nonzero;stroke:none;stroke-width:0.498061"
       id="path19467" /></g><g
     id="g19469"
     transform="matrix(2.6770459,0,0,-2.6770459,1550.4886,412.73193)"
     clip-path="url(#clipPath27333)"
     style="stroke-width:0.498061"><path
       d="M 0,0 C -0.713,1.211 -2.672,1.153 -3.278,0.285 V 2.67 H -4.1 v -6.566 h 0.822 v 0.42 c 0.665,-0.769 2.511,-0.809 3.229,0.29 0.271,0.404 0.415,0.968 0.416,1.631 v 10e-4 C 0.366,-0.931 0.238,-0.392 0,0 m -1.833,-3.213 c -0.146,0 -0.605,-0.031 -0.966,0.328 -0.279,0.278 -0.422,0.735 -0.411,1.323 v 0.008 0.007 c -0.011,0.588 0.132,1.046 0.411,1.323 0.471,0.468 1.703,0.467 2.095,-0.198 0.16,-0.264 0.25,-0.666 0.25,-1.132 -0.002,-1.03 -0.353,-1.655 -1.379,-1.659"
       style="fill:#000000;fill-opacity:1;fill-rule:nonzero;stroke:none;stroke-width:0.498061"
       id="path19471" /></g><g
     id="g19473"
     transform="matrix(2.6770459,0,0,-2.6770459,1600.9969,407.63537)"
     clip-path="url(#clipPath27327)"
     style="stroke-width:0.498061"><path
       d="M 0,0 V 0.766 H -2.529 V 0 h 0.827 V -5.034 H -2.529 V -5.8 H 0 v 0.766 H -0.827 V 0 Z"
       style="fill:#000000;fill-opacity:1;fill-rule:nonzero;stroke:none;stroke-width:0.498061"
       id="path19475" /></g><g
     id="g19477"
     transform="matrix(2.6770459,0,0,-2.6770459,1587.5202,410.43603)"
     clip-path="url(#clipPath27321)"
     style="stroke-width:0.498061"><path
       d="M 0,0 C -0.157,-0.447 -0.852,-2.458 -1.359,-3.769 L -2.74,0 h -0.876 l 1.802,-4.844 c -0.042,-0.109 -0.08,-0.209 -0.115,-0.303 -0.113,-0.305 -0.185,-0.507 -0.292,-0.613 -0.078,-0.078 -0.225,-0.193 -0.701,-0.193 h -0.313 v -0.739 h 0.464 c 1.114,0 1.304,0.432 1.612,1.259 0.066,0.18 0.142,0.384 0.243,0.62 C -0.386,-3.568 0.87,0 0.87,0 Z"
       style="fill:#000000;fill-opacity:1;fill-rule:nonzero;stroke:none;stroke-width:0.498061"
       id="path19479" /></g><g
     id="g19481"
     transform="matrix(2.6770459,0,0,-2.6770459,1335.9171,410.32661)"
     clip-path="url(#clipPath27315)"
     style="stroke-width:0.498061"><path
       d="m 0,0 c -0.971,0 -1.406,-0.444 -1.647,-0.889 v 0.957 h -0.854 v -4.863 h 0.854 v 2.134 c 0,1.129 0.336,1.807 1.647,1.807 z"
       style="fill:#000000;fill-opacity:1;fill-rule:nonzero;stroke:none;stroke-width:0.498061"
       id="path19483" /></g><g
     id="g19485"
     transform="matrix(2.6770459,0,0,-2.6770459,1487.1623,410.32661)"
     clip-path="url(#clipPath27309)"
     style="stroke-width:0.498061"><path
       d="m 0,0 c -0.971,0 -1.406,-0.444 -1.647,-0.889 v 0.957 h -0.854 v -4.863 h 0.854 v 2.134 c 0,1.129 0.336,1.807 1.647,1.807 z"
       style="fill:#000000;fill-opacity:1;fill-rule:nonzero;stroke:none;stroke-width:0.498061"
       id="path19487" /></g><g
     id="g19489"
     transform="matrix(2.6770459,0,0,-2.6770459,1369.0769,423.61091)"
     clip-path="url(#clipPath27303)"
     style="stroke-width:0.498061"><path
       d="M 0,0 C -0.84,0 -1.31,0.34 -1.556,0.624 -1.929,1.057 -1.958,1.54 -1.958,1.678 h 0.801 C -1.157,1.642 -1.145,0.8 0,0.8 0.569,0.8 1,0.966 1.153,1.245 1.243,1.409 1.227,1.604 1.104,1.796 0.922,2.085 0.4,2.189 -0.104,2.289 -0.701,2.408 -1.318,2.531 -1.607,3.014 -1.854,3.424 -1.866,3.885 -1.644,4.278 -1.36,4.777 -0.762,5.063 0,5.063 1.437,5.063 1.82,4.098 1.82,3.528 H 1.02 C 1.02,3.7 0.946,4.263 0,4.263 -0.458,4.263 -0.812,4.121 -0.947,3.884 -1.047,3.707 -0.988,3.537 -0.921,3.425 -0.813,3.246 -0.354,3.155 0.053,3.074 0.69,2.947 1.414,2.803 1.78,2.224 2.058,1.788 2.085,1.277 1.854,0.859 1.554,0.313 0.878,0 0,0"
       style="fill:#000000;fill-opacity:1;fill-rule:nonzero;stroke:none;stroke-width:0.498061"
       id="path19491" /></g><g
     id="g19493"
     transform="matrix(2.6770459,0,0,-2.6770459,1401.413,423.61091)"
     clip-path="url(#clipPath27297)"
     style="stroke-width:0.498061"><path
       d="M 0,0 C -0.84,0 -1.31,0.34 -1.556,0.624 -1.929,1.057 -1.958,1.54 -1.958,1.678 h 0.801 C -1.157,1.642 -1.145,0.8 0,0.8 0.569,0.8 1,0.966 1.153,1.245 1.243,1.409 1.227,1.604 1.104,1.796 0.922,2.085 0.4,2.189 -0.104,2.289 -0.701,2.408 -1.318,2.531 -1.607,3.014 -1.854,3.424 -1.866,3.885 -1.644,4.278 -1.36,4.777 -0.762,5.063 0,5.063 1.437,5.063 1.82,4.098 1.82,3.528 H 1.02 C 1.02,3.7 0.946,4.263 0,4.263 -0.458,4.263 -0.812,4.121 -0.947,3.884 -1.047,3.707 -0.988,3.537 -0.921,3.425 -0.813,3.246 -0.354,3.155 0.053,3.074 0.69,2.947 1.414,2.803 1.78,2.224 2.058,1.788 2.085,1.277 1.854,0.859 1.554,0.313 0.878,0 0,0"
       style="fill:#000000;fill-opacity:1;fill-rule:nonzero;stroke:none;stroke-width:0.498061"
       id="path19495" /></g><g
     id="g19497"
     transform="matrix(2.6770459,0,0,-2.6770459,1357.2472,409.99733)"
     clip-path="url(#clipPath27291)"
     style="stroke-width:0.498061"><path
       d="m 0,0 c -0.822,0 -1.277,-0.373 -1.525,-0.83 v 0.775 h -0.876 v -4.863 h 0.876 v 2.189 c 0,1.158 0.18,1.854 1.525,1.854 0.357,0 0.746,-0.147 0.746,-1.041 v -3.002 h 0.875 v 2.897 C 1.621,-1.207 1.621,0 0,0"
       style="fill:#000000;fill-opacity:1;fill-rule:nonzero;stroke:none;stroke-width:0.498061"
       id="path19499" /></g><g
     id="g19501"
     transform="matrix(2.6770459,0,0,-2.6770459,1459.9135,409.99733)"
     clip-path="url(#clipPath27285)"
     style="stroke-width:0.498061"><path
       d="m 0,0 c -0.822,0 -1.278,-0.373 -1.525,-0.83 v 0.775 h -0.876 v -4.863 h 0.876 v 2.189 c 0,1.158 0.18,1.854 1.525,1.854 0.357,0 0.746,-0.147 0.746,-1.041 v -3.002 h 0.875 v 2.897 C 1.621,-1.207 1.621,0 0,0"
       style="fill:#000000;fill-opacity:1;fill-rule:nonzero;stroke:none;stroke-width:0.498061"
       id="path19503" /></g><path
     d="m 1188.5563,1066.3731 h -1.1667 v -6.3373 h 1.1667 z"
     style="fill:#000000;fill-opacity:1;fill-rule:nonzero;stroke:none;stroke-width:0.66408"
     id="path19505"
     clip-path="url(#clipPath27279)"
     transform="matrix(2.0077845,0,0,2.0077845,-936.05205,-1717.8858)" /><path
     d="m 1188.5563,1058.9611 h -1.1667 v -1.3426 h 1.1667 z"
     style="fill:#000000;fill-opacity:1;fill-rule:nonzero;stroke:none;stroke-width:0.66408"
     id="path19507"
     clip-path="url(#clipPath27273)"
     transform="matrix(2.0077845,0,0,2.0077845,-936.05205,-1717.8858)" /><path
     d="m 1175.959,1066.3731 h -1.168 v -6.3373 h 1.168 z"
     style="fill:#000000;fill-opacity:1;fill-rule:nonzero;stroke:none;stroke-width:0.66408"
     id="path19509"
     clip-path="url(#clipPath27267)"
     transform="matrix(2.0077845,0,0,2.0077845,-936.05205,-1717.8858)" /><path
     d="m 1175.959,1058.9611 h -1.168 v -1.3426 h 1.168 z"
     style="fill:#000000;fill-opacity:1;fill-rule:nonzero;stroke:none;stroke-width:0.66408"
     id="path19511"
     clip-path="url(#clipPath27261)"
     transform="matrix(2.0077845,0,0,2.0077845,-936.05205,-1717.8858)" /><path
     d="m 1160.3136,1066.3731 h -1.1666 v -6.3373 h 1.1666 z"
     style="fill:#000000;fill-opacity:1;fill-rule:nonzero;stroke:none;stroke-width:0.66408"
     id="path19513"
     clip-path="url(#clipPath27255)"
     transform="matrix(2.0077845,0,0,2.0077845,-936.05205,-1717.8858)" /><path
     d="m 1160.3136,1058.9611 h -1.1666 v -1.3426 h 1.1666 z"
     style="fill:#000000;fill-opacity:1;fill-rule:nonzero;stroke:none;stroke-width:0.66408"
     id="path19515"
     clip-path="url(#clipPath27249)"
     transform="matrix(2.0077845,0,0,2.0077845,-936.05205,-1717.8858)" /><g
     id="g19517"
     transform="matrix(2.6770459,0,0,-2.6770459,1329.1826,405.65751)"
     clip-path="url(#clipPath27243)"
     style="stroke-width:0.498061"><path
       d="m 0,0 h -5.271 v -0.821 h 2.149 v -5.718 h 0.93 v 5.718 H 0 Z"
       style="fill:#000000;fill-opacity:1;fill-rule:nonzero;stroke:none;stroke-width:0.498061"
       id="path19519" /></g><path
     d="m 1185.8656,1066.3731 h -1.1666 v -8.7546 h 1.1666 z"
     style="fill:#000000;fill-opacity:1;fill-rule:nonzero;stroke:none;stroke-width:0.66408"
     id="path19521"
     clip-path="url(#clipPath27237)"
     transform="matrix(2.0077845,0,0,2.0077845,-936.05205,-1717.8858)" /><g
     id="g19523"
     transform="matrix(2.6770459,0,0,-2.6770459,1418.2598,418.51074)"
     clip-path="url(#clipPath27231)"
     style="stroke-width:0.498061"><path
       d="m 0,0 c -0.047,-0.228 -0.121,-0.425 -0.221,-0.574 -0.39,-0.598 -1.587,-0.628 -2.065,-0.152 -0.279,0.277 -0.422,0.735 -0.412,1.323 l 10e-4,0.007 -10e-4,0.007 c -0.01,0.588 0.133,1.046 0.412,1.324 0.47,0.467 1.703,0.466 2.095,-0.198 0.044,-0.073 0.082,-0.158 0.115,-0.25 H 0.78 C 0.718,1.741 0.629,1.968 0.513,2.159 -0.154,3.29 -2.01,3.367 -2.865,2.517 -3.306,2.079 -3.531,1.418 -3.519,0.604 c -0.012,-0.813 0.213,-1.475 0.654,-1.912 0.829,-0.825 2.642,-0.771 3.329,0.281 0.183,0.274 0.307,0.624 0.369,1.027 z"
       style="fill:#000000;fill-opacity:1;fill-rule:nonzero;stroke:none;stroke-width:0.498061"
       id="path19525" /></g><g
     id="g19527"
     transform="matrix(2.6770459,0,0,-2.6770459,1347.5117,420.25972)"
     clip-path="url(#clipPath27225)"
     style="stroke-width:0.498061"><path
       d="m 0,0 v 2.443 c 0,1.349 -1.282,1.349 -1.83,1.349 -1.116,0 -1.927,-0.685 -1.927,-1.628 h 0.801 c 0,0.569 0.584,0.828 1.126,0.828 0.971,0 1.095,-0.414 1.011,-0.918 -0.105,-0.631 -2.557,-0.073 -3.014,-1.492 -0.518,-1.566 1.929,-2.586 3.134,-1.091 0.042,-0.485 0.291,-0.638 1.146,-0.638 v 0.72 C 0.033,-0.427 0,-0.243 0,0 m -3.061,0.351 c 0.151,0.749 1.801,0.42 2.26,0.933 v -0.68 c 0,-1.31 -2.521,-1.556 -2.26,-0.253"
       style="fill:#000000;fill-opacity:1;fill-rule:nonzero;stroke:none;stroke-width:0.498061"
       id="path19529" /></g><g
     id="g19531"
     transform="matrix(2.6770459,0,0,-2.6770459,1476.9901,420.25972)"
     clip-path="url(#clipPath27219)"
     style="stroke-width:0.498061"><path
       d="m 0,0 v 2.443 c 0,1.349 -1.282,1.349 -1.83,1.349 -1.116,0 -1.926,-0.685 -1.926,-1.628 h 0.8 c 0,0.569 0.584,0.828 1.126,0.828 0.971,0 1.095,-0.414 1.011,-0.918 -0.105,-0.631 -2.557,-0.073 -3.014,-1.492 -0.517,-1.566 1.929,-2.586 3.134,-1.091 0.042,-0.485 0.292,-0.638 1.147,-0.638 v 0.72 C 0.033,-0.427 0,-0.243 0,0 M -3.061,0.351 C -2.909,1.1 -1.26,0.771 -0.8,1.284 v -0.68 c 0,-1.31 -2.522,-1.556 -2.261,-0.253"
       style="fill:#000000;fill-opacity:1;fill-rule:nonzero;stroke:none;stroke-width:0.498061"
       id="path19533" /></g><g
     id="g19535"
     transform="matrix(2.6770459,0,0,-2.6770459,1386.0178,405.58422)"
     clip-path="url(#clipPath27213)"
     style="stroke-width:0.498061"><path
       d="m 0,0 v -2.281 c -0.667,0.667 -2.129,0.772 -2.937,-0.031 -0.44,-0.438 -0.666,-1.099 -0.653,-1.912 -0.013,-0.814 0.213,-1.475 0.653,-1.913 C -2.145,-6.924 -0.672,-6.841 0,-6.195 V -6.566 H 0.821 V 0 Z M -0.292,-5.403 C -0.683,-6 -1.879,-6.031 -2.357,-5.555 c -0.28,0.278 -0.422,0.736 -0.413,1.324 l 10e-4,0.007 -10e-4,0.007 c -0.009,0.588 0.133,1.046 0.413,1.323 0.485,0.483 1.711,0.453 2.094,-0.198 0.16,-0.264 0.249,-0.666 0.25,-1.132 -0.001,-0.493 -0.098,-0.91 -0.279,-1.179"
       style="fill:#000000;fill-opacity:1;fill-rule:nonzero;stroke:none;stroke-width:0.498061"
       id="path19537" /></g><g
     id="g19539"
     transform="matrix(2.6770459,0,0,-2.6770459,1439.1375,412.73193)"
     clip-path="url(#clipPath27207)"
     style="stroke-width:0.498061"><path
       d="m 0,0 c -0.729,1.235 -2.737,1.12 -3.301,0.321 v 0.536 h -0.821 v -6.566 h 0.821 v 2.307 c 0.428,-0.806 2.489,-0.952 3.252,0.216 0.271,0.404 0.414,0.968 0.416,1.631 v 10e-4 C 0.365,-0.93 0.237,-0.392 0,0 m -0.733,-2.733 c -0.391,-0.598 -1.588,-0.627 -2.066,-0.152 -0.279,0.278 -0.422,0.735 -0.412,1.323 v 0.008 0.007 c -0.01,0.588 0.133,1.046 0.412,1.323 0.472,0.469 1.704,0.465 2.095,-0.198 0.16,-0.264 0.249,-0.666 0.25,-1.132 -0.001,-0.493 -0.099,-0.91 -0.279,-1.179"
       style="fill:#000000;fill-opacity:1;fill-rule:nonzero;stroke:none;stroke-width:0.498061"
       id="path19541" /></g><g
     id="g19543"
     transform="matrix(2.6770459,0,0,-2.6770459,1498.179,410.43603)"
     clip-path="url(#clipPath27201)"
     style="stroke-width:0.498061"><path
       d="M 0,0 C -0.157,-0.447 -0.852,-2.458 -1.359,-3.769 L -2.74,0 h -0.876 l 1.802,-4.844 c -0.042,-0.109 -0.08,-0.209 -0.115,-0.303 -0.113,-0.305 -0.185,-0.507 -0.292,-0.613 -0.078,-0.078 -0.225,-0.193 -0.701,-0.193 h -0.313 v -0.739 h 0.464 c 1.114,0 1.304,0.432 1.612,1.259 0.067,0.18 0.142,0.384 0.243,0.62 C -0.386,-3.568 0.87,0 0.87,0 Z"
       style="fill:#000000;fill-opacity:1;fill-rule:nonzero;stroke:none;stroke-width:0.498061"
       id="path19545" /></g><g
     id="g19547"
     transform="matrix(2.6770459,0,0,-2.6770459,1337.5221,359.87841)"
     clip-path="url(#clipPath27195)"
     style="stroke-width:0.498061"><path
       d="M 0,0 V -9.836 L -6.388,0 h -1.84 v -12.272 h 1.636 v 9.77 l 6.345,-9.77 H 1.637 V 0 Z"
       style="fill:#000000;fill-opacity:1;fill-rule:nonzero;stroke:none;stroke-width:0.498061"
       id="path19549" /></g><g
     id="g19551"
     transform="matrix(2.6770459,0,0,-2.6770459,1552.337,368.12559)"
     clip-path="url(#clipPath27189)"
     style="stroke-width:0.498061"><path
       d="m 0,0 c -1.537,0 -2.388,-0.698 -2.852,-1.551 v 1.448 h -1.635 v -9.088 h 1.635 V -5.1 c 0,2.164 0.339,3.465 2.852,3.465 0.669,0 1.395,-0.275 1.395,-1.944 V -9.191 H 3.03 v 5.414 C 3.03,-2.256 3.03,0 0,0"
       style="fill:#000000;fill-opacity:1;fill-rule:nonzero;stroke:none;stroke-width:0.498061"
       id="path19553" /></g><g
     id="g19555"
     transform="matrix(2.6770459,0,0,-2.6770459,1636.5043,368.73977)"
     clip-path="url(#clipPath27183)"
     style="stroke-width:0.498061"><path
       d="m 0,0 c -1.812,0 -2.627,-0.831 -3.078,-1.662 v 1.789 h -1.596 v -9.089 h 1.596 v 3.989 c 0,2.11 0.629,3.378 3.078,3.378 z"
       style="fill:#000000;fill-opacity:1;fill-rule:nonzero;stroke:none;stroke-width:0.498061"
       id="path19557" /></g><g
     id="g19559"
     transform="matrix(2.6770459,0,0,-2.6770459,1592.5449,368.94737)"
     clip-path="url(#clipPath27177)"
     style="stroke-width:0.498061"><path
       d="M 0,0 -2.433,-6.921 -4.866,0 h -1.669 l 3.304,-8.884 h 1.597 L 1.67,0 Z"
       style="fill:#000000;fill-opacity:1;fill-rule:nonzero;stroke:none;stroke-width:0.498061"
       id="path19561" /></g><g
     id="g19563"
     transform="matrix(2.6770459,0,0,-2.6770459,1615.3573,385.21726)"
     clip-path="url(#clipPath27171)"
     style="stroke-width:0.498061"><path
       d="m 0,0 c -0.13,-0.369 -0.314,-0.68 -0.555,-0.92 -0.831,-0.826 -2.818,-0.862 -3.686,0 -0.437,0.435 -0.695,1.102 -0.763,1.942 h 2.278 4.373 c 0.012,0.189 0.017,0.383 0.014,0.581 0.024,1.507 -0.393,2.73 -1.206,3.539 -1.413,1.404 -4.271,1.426 -5.705,0 -0.813,-0.809 -1.23,-2.031 -1.207,-3.539 -0.023,-1.506 0.394,-2.73 1.207,-3.538 1.426,-1.418 4.308,-1.389 5.705,0 0.5,0.498 0.85,1.153 1.04,1.935 z m -4.241,4.126 c 0.889,0.884 2.84,0.842 3.686,0 0.39,-0.387 0.638,-0.958 0.737,-1.672 h -5.159 c 0.098,0.714 0.346,1.285 0.736,1.672"
       style="fill:#000000;fill-opacity:1;fill-rule:nonzero;stroke:none;stroke-width:0.498061"
       id="path19565" /></g><g
     id="g19567"
     transform="matrix(2.6770459,0,0,-2.6770459,1683.8495,372.7451)"
     clip-path="url(#clipPath27165)"
     style="stroke-width:0.498061"><path
       d="M 0,0 V 1.432 H -1.727 V 4.068 H -3.261 V 1.432 H -4.726 V 0 h 1.465 v -4.635 c 0,-2.21 0.58,-2.83 2.369,-2.83 H 0 v 1.381 h -0.667 c -0.936,0 -1.06,0.224 -1.06,1.445 V 0 Z"
       style="fill:#000000;fill-opacity:1;fill-rule:nonzero;stroke:none;stroke-width:0.498061"
       id="path19569" /></g><g
     id="g19571"
     transform="matrix(2.6770459,0,0,-2.6770459,1357.7492,359.87841)"
     clip-path="url(#clipPath27159)"
     style="stroke-width:0.498061"><path
       d="m 0,0 -4.372,-12.272 h 1.737 l 1.271,3.568 H 3.919 L 5.19,-12.272 H 6.927 L 2.555,0 Z m -0.781,-7.068 2.058,5.779 2.059,-5.779 z"
       style="fill:#000000;fill-opacity:1;fill-rule:nonzero;stroke:none;stroke-width:0.498061"
       id="path19573" /></g><g
     id="g19575"
     transform="matrix(2.6770459,0,0,-2.6770459,1479.7375,359.87841)"
     clip-path="url(#clipPath27153)"
     style="stroke-width:0.498061"><path
       d="m 0,0 -4.372,-12.272 h 1.736 l 1.272,3.568 h 5.283 l 1.27,-3.568 H 6.927 L 2.555,0 Z m -0.781,-7.068 2.058,5.779 2.059,-5.779 z"
       style="fill:#000000;fill-opacity:1;fill-rule:nonzero;stroke:none;stroke-width:0.498061"
       id="path19577" /></g><g
     id="g19579"
     transform="matrix(2.6770459,0,0,-2.6770459,1453.9815,392.72998)"
     clip-path="url(#clipPath27147)"
     style="stroke-width:0.498061"><path
       d="m 0,0 h 1.738 v 4.909 l 4.72,7.363 H 4.554 L 0.869,6.3 -2.815,12.272 H -4.72 L 0,4.909 Z"
       style="fill:#000000;fill-opacity:1;fill-rule:nonzero;stroke:none;stroke-width:0.498061"
       id="path19581" /></g><g
     id="g19583"
     transform="matrix(2.6770459,0,0,-2.6770459,1521.7572,393.96357)"
     clip-path="url(#clipPath27141)"
     style="stroke-width:0.498061"><path
       d="m 0,0 c -2.986,0 -4.992,1.849 -4.992,4.603 v 8.129 h 1.636 V 4.603 c 0,-1.858 1.254,-2.967 3.356,-2.967 1.254,0 3.356,0.432 3.356,3.323 v 7.773 H 4.993 V 4.959 C 4.993,1.9 3.08,0 0,0"
       style="fill:#000000;fill-opacity:1;fill-rule:nonzero;stroke:none;stroke-width:0.498061"
       id="path19585" /></g><g
     id="g19587"
     transform="matrix(2.6770459,0,0,-2.6770459,1648.8281,393.56924)"
     clip-path="url(#clipPath27135)"
     style="stroke-width:0.498061"><path
       d="M 0,0 C -1.57,0 -2.447,0.635 -2.906,1.168 -3.604,1.977 -3.658,2.88 -3.658,3.137 h 1.495 c 0,-0.067 0.024,-1.641 2.163,-1.641 1.063,0 1.869,0.31 2.155,0.831 C 2.324,2.633 2.292,2.999 2.064,3.358 1.723,3.898 0.748,4.091 -0.193,4.279 -1.31,4.501 -2.463,4.73 -3.004,5.633 -3.463,6.4 -3.487,7.261 -3.071,7.996 -2.543,8.929 -1.423,9.464 0,9.464 2.686,9.464 3.402,7.66 3.402,6.594 H 1.906 C 1.906,6.916 1.769,7.968 0,7.968 -0.856,7.968 -1.519,7.703 -1.77,7.259 -1.956,6.929 -1.847,6.611 -1.721,6.402 -1.521,6.067 -0.661,5.897 0.098,5.746 1.291,5.508 2.644,5.239 3.328,4.158 3.845,3.342 3.896,2.388 3.466,1.606 2.904,0.586 1.642,0 0,0"
       style="fill:#000000;fill-opacity:1;fill-rule:nonzero;stroke:none;stroke-width:0.498061"
       id="path19589" /></g><path
     d="m 1296.5776,1051.2158 h -2.1826 v -11.8453 h 2.1826 z"
     style="fill:#000000;fill-opacity:1;fill-rule:nonzero;stroke:none;stroke-width:0.66408"
     id="path19591"
     clip-path="url(#clipPath27129)"
     transform="matrix(2.0077845,0,0,2.0077845,-936.05205,-1717.8858)" /><path
     d="m 1296.5776,1037.3638 h -2.1826 v -2.5093 h 2.1826 z"
     style="fill:#000000;fill-opacity:1;fill-rule:nonzero;stroke:none;stroke-width:0.66408"
     id="path19593"
     clip-path="url(#clipPath27123)"
     transform="matrix(2.0077845,0,0,2.0077845,-936.05205,-1717.8858)" /><path
     d="m 1248.2256,1051.2158 h -2.1826 v -11.8453 h 2.1826 z"
     style="fill:#000000;fill-opacity:1;fill-rule:nonzero;stroke:none;stroke-width:0.66408"
     id="path19595"
     clip-path="url(#clipPath27117)"
     transform="matrix(2.0077845,0,0,2.0077845,-936.05205,-1717.8858)" /><path
     d="m 1248.2256,1037.3638 h -2.1826 v -2.5093 h 2.1826 z"
     style="fill:#000000;fill-opacity:1;fill-rule:nonzero;stroke:none;stroke-width:0.66408"
     id="path19597"
     clip-path="url(#clipPath27111)"
     transform="matrix(2.0077845,0,0,2.0077845,-936.05205,-1717.8858)" /><g
     id="g19599"
     transform="matrix(2.6770459,0,0,-2.6770459,1415.5356,389.24487)"
     clip-path="url(#clipPath27105)"
     style="stroke-width:0.498061"><path
       d="M 0,0 C -1.079,1.071 -1.56,2.697 -1.562,4.834 -1.564,6.971 -1.079,8.597 0,9.668 c 0.946,0.94 2.256,1.354 3.899,1.354 1.64,0 2.953,-0.414 3.9,-1.354 C 8.878,8.597 9.36,6.971 9.36,4.834 9.36,2.697 8.878,1.071 7.799,0.001 6.853,-0.94 5.54,-1.35 3.899,-1.353 2.433,-1.356 1.041,-1.033 0,0 M 1.152,8.507 C 0.264,7.625 0.064,6.022 0.074,4.817 0.074,3.137 0.401,1.907 1.152,1.161 1.773,0.545 2.69,0.283 3.876,0.283 c 0.941,0 2.077,0.19 2.77,0.879 C 7.397,1.907 7.725,3.137 7.725,4.817 7.736,6.041 7.536,7.624 6.646,8.507 5.943,9.204 4.801,9.385 3.876,9.385 2.871,9.385 1.862,9.212 1.152,8.507"
       style="fill:#000000;fill-opacity:1;fill-rule:nonzero;stroke:none;stroke-width:0.498061"
       id="path19601" /></g><g
     id="g19603"
     transform="matrix(2.6770459,0,0,-2.6770459,1392.6318,375.6074)"
     clip-path="url(#clipPath27099)"
     style="stroke-width:0.498061"><path
       d="m 0,0 v -1.432 h 3.832 c 0,-1.099 -0.568,-1.938 -1.135,-2.5 -0.699,-0.695 -1.811,-0.879 -2.77,-0.879 -1.186,0 -2.103,0.262 -2.724,0.879 -0.889,0.882 -1.057,2.483 -1.057,3.689 0,1.68 0.306,2.91 1.057,3.655 0.59,0.586 1.444,0.882 2.544,0.882 1.083,0 2.132,-0.069 2.95,-0.882 C 3.039,3.073 3.3,2.633 3.479,2.097 h 1.7 C 4.932,3.11 4.488,3.94 3.85,4.574 2.902,5.514 1.589,5.93 -0.05,5.927 -1.692,5.93 -3.003,5.514 -3.949,4.574 -5.028,3.503 -5.514,1.876 -5.511,-0.26 c 0,-2.137 0.483,-3.763 1.562,-4.834 1.041,-1.034 2.413,-1.356 3.899,-1.353 1.598,-0.002 3.445,0.903 3.928,1.795 V -6.396 H 5.412 V 0 Z"
       style="fill:#000000;fill-opacity:1;fill-rule:nonzero;stroke:none;stroke-width:0.498061"
       id="path19605" /></g><g
     id="g19607"
     transform="matrix(2.6770459,0,0,-2.6770459,1704.4789,368.94737)"
     clip-path="url(#clipPath27093)"
     style="stroke-width:0.498061"><path
       d="M 0,0 C -0.295,-0.834 -1.593,-4.593 -2.541,-7.043 L -5.122,0 h -1.637 l 3.368,-9.053 c -0.08,-0.203 -0.149,-0.39 -0.214,-0.566 -0.212,-0.57 -0.347,-0.947 -0.546,-1.145 -0.147,-0.146 -0.421,-0.361 -1.311,-0.361 h -0.586 v -1.38 h 0.869 c 2.081,0 2.438,0.806 3.012,2.352 0.125,0.337 0.267,0.718 0.454,1.159 C -0.722,-6.668 1.626,0 1.626,0 Z"
       style="fill:#000000;fill-opacity:1;fill-rule:nonzero;stroke:none;stroke-width:0.498061"
       id="path19609" /></g><text
     xml:space="preserve"
     style="font-style:normal;font-variant:normal;font-weight:normal;font-stretch:normal;font-size:53.3333px;line-height:1.55;font-family:Calibri;-inkscape-font-specification:'Calibri, Normal';font-variant-ligatures:normal;font-variant-caps:normal;font-variant-numeric:normal;font-variant-east-asian:normal;text-align:center;text-anchor:middle;fill:#000000;fill-opacity:1;stroke-width:4;paint-order:markers fill stroke"
     x="816.24341"
     y="410.40231"
     id="text31228"><tspan
       sodipodi:role="line"
       id="tspan31226"
       x="816.24341"
       y="410.40231">supported by</tspan></text></svg>
