<?xml version="1.0" encoding="UTF-8" standalone="no"?>
<svg
   width="2383.4607"
   height="248.57901"
   viewBox="0 0 2383.4607 248.57902"
   version="1.1"
   xml:space="preserve"
   style="clip-rule:evenodd;fill-rule:evenodd;stroke-linecap:round;stroke-linejoin:round;stroke-miterlimit:1.5"
   id="svg14867"
   sodipodi:docname="onom_poster_logo.svg"
   inkscape:version="1.2.2 (732a01da63, 2022-12-09)"
   xmlns:inkscape="http://www.inkscape.org/namespaces/inkscape"
   xmlns:sodipodi="http://sodipodi.sourceforge.net/DTD/sodipodi-0.dtd"
   xmlns="http://www.w3.org/2000/svg"
   xmlns:svg="http://www.w3.org/2000/svg"><defs
     id="defs14871" /><sodipodi:namedview
     id="namedview14869"
     pagecolor="#ffffff"
     bordercolor="#000000"
     borderopacity="0.25"
     inkscape:showpageshadow="2"
     inkscape:pageopacity="0.0"
     inkscape:pagecheckerboard="0"
     inkscape:deskcolor="#d1d1d1"
     showgrid="false"
     inkscape:zoom="0.63422819"
     inkscape:cx="1214.8624"
     inkscape:cy="502.97354"
     inkscape:window-width="2787"
     inkscape:window-height="1384"
     inkscape:window-x="1034"
     inkscape:window-y="9"
     inkscape:window-maximized="0"
     inkscape:current-layer="svg14867" /><path
     d="m 85.533,77.51302 c 23.607,0 43.735,8.382 60.386,25.147 16.764,16.65 25.146,36.779 25.146,60.386 0,23.607 -8.382,43.79199 -25.146,60.55699 -16.651,16.65 -36.779,24.975 -60.386,24.975 -23.607,0 -43.793,-8.325 -60.557,-24.975 C 8.325,206.83801 0,186.65302 0,163.04602 c 0,-23.607 8.325,-43.736 24.976,-60.386 16.764,-16.765 36.95,-25.147 60.557,-25.147 z m 0,34.213 c -14.142,0 -26.23,5.018 -36.266,15.054 -10.036,10.036 -15.054,22.124 -15.054,36.266 0,14.141 5.018,26.23 15.054,36.265 10.036,10.03599 22.124,15.05399 36.266,15.05399 14.141,0 26.23,-5.018 36.265,-15.05399 10.036,-10.035 15.054,-22.124 15.054,-36.265 0,-14.142 -5.018,-26.23 -15.054,-36.266 -10.035,-10.036 -22.124,-15.054 -36.265,-15.054 z"
     style="fill:#808080;fill-rule:nonzero"
     id="path14789" /><path
     d="m 210.123,163.04602 v 85.53199 H 175.91 v -85.53199 c 0,-23.607 8.325,-43.736 24.975,-60.386 16.765,-16.765 36.95,-25.147 60.557,-25.147 23.607,0 43.736,8.382 60.386,25.147 16.765,16.65 25.147,36.779 25.147,60.386 v 85.53199 h -34.213 v -85.53199 c 0,-14.142 -5.018,-26.23 -15.054,-36.266 -10.036,-10.036 -22.124,-15.054 -36.266,-15.054 -14.141,0 -26.23,5.018 -36.266,15.054 -10.035,10.036 -15.053,22.124 -15.053,36.266 z"
     style="fill:#808080;fill-rule:nonzero"
     id="path14791" /><path
     d="m 437.352,77.51302 c 23.607,0 43.73604,8.382 60.38604,25.147 16.764,16.65 25.146,36.779 25.146,60.386 0,23.607 -8.382,43.79199 -25.146,60.55699 -16.65,16.65 -36.77904,24.975 -60.38604,24.975 -23.607,0 -43.793,-8.325 -60.557,-24.975 -16.65,-16.765 -24.976,-36.94999 -24.976,-60.55699 0,-23.607 8.326,-43.736 24.976,-60.386 16.764,-16.765 36.95,-25.147 60.557,-25.147 z m 0,34.213 c -14.141,0 -26.23,5.018 -36.266,15.054 -10.036,10.036 -15.054,22.124 -15.054,36.266 0,14.141 5.018,26.23 15.054,36.265 10.036,10.03599 22.125,15.05399 36.266,15.05399 14.141,0 26.23,-5.018 36.266,-15.05399 10.03604,-10.035 15.05304,-22.124 15.05304,-36.265 0,-14.142 -5.017,-26.23 -15.05304,-36.266 -10.036,-10.036 -22.125,-15.054 -36.266,-15.054 z"
     style="fill:#808080;fill-rule:nonzero"
     id="path14793" /><g
     id="g14799"
     transform="translate(0,2e-5)"><path
       d="m 1096.35,44.819 v 32.694 h 51.319 v 34.213 h -51.319 v 51.32 c 0,14.141 5.017,26.23 15.053,36.265 10.036,10.036 22.125,15.054 36.266,15.054 v 34.213 c -23.607,0 -43.793,-8.325 -60.557,-24.975 -16.65,-16.765 -24.976,-36.95 -24.976,-60.557 V 44.819 Z"
       style="fill:#808080"
       id="path14795" /><path
       d="m 1238.05,77.513 c 23.607,0 43.736,8.382 60.386,25.147 16.765,16.65 25.147,36.779 25.147,60.386 0,23.607 -8.382,43.792 -25.147,60.557 -16.65,16.65 -36.779,24.975 -60.386,24.975 -23.607,0 -43.793,-8.325 -60.557,-24.975 -16.65,-16.765 -24.975,-36.95 -24.975,-60.557 0,-23.607 8.325,-43.736 24.975,-60.386 16.764,-16.765 36.95,-25.147 60.557,-25.147 z m 0,34.213 c -14.141,0 -26.23,5.018 -36.266,15.054 -10.035,10.036 -15.053,22.124 -15.053,36.266 0,14.141 5.018,26.23 15.053,36.265 10.036,10.036 22.125,15.054 36.266,15.054 14.142,0 26.23,-5.018 36.266,-15.054 10.036,-10.035 15.054,-22.124 15.054,-36.265 0,-14.142 -5.018,-26.23 -15.054,-36.266 -10.036,-10.036 -22.124,-15.054 -36.266,-15.054 z"
       style="fill:#808080"
       id="path14797" /></g><path
     d="m 1618.67,77.51302 c 23.607,0 43.735,8.382 60.386,25.147 16.764,16.65 25.146,36.779 25.146,60.386 0,23.607 -8.382,43.79199 -25.146,60.55699 -16.651,16.65 -36.779,24.975 -60.386,24.975 -23.607,0 -43.793,-8.325 -60.557,-24.975 -16.651,-16.765 -24.976,-36.94999 -24.976,-60.55699 0,-23.607 8.325,-43.736 24.976,-60.386 16.764,-16.765 36.95,-25.147 60.557,-25.147 z m 0,34.213 c -14.142,0 -26.23,5.018 -36.266,15.054 -10.036,10.036 -15.054,22.124 -15.054,36.266 0,14.141 5.018,26.23 15.054,36.265 10.036,10.03599 22.124,15.05399 36.266,15.05399 14.141,0 26.23,-5.018 36.266,-15.05399 10.035,-10.035 15.053,-22.124 15.053,-36.265 0,-14.142 -5.018,-26.23 -15.053,-36.266 -10.036,-10.036 -22.125,-15.054 -36.266,-15.054 z"
     style="fill:#808080"
     id="path14801" /><path
     d="m 1843.16,145.93902 c -2.509,-7.071 -6.615,-13.457 -12.317,-19.159 -10.036,-10.036 -22.124,-15.054 -36.266,-15.054 -14.141,0 -26.23,5.018 -36.265,15.054 -5.703,5.702 -9.808,12.088 -12.317,19.159 z m -10.435,51.32 h 40.542 c -4.219,9.57899 -10.264,18.30399 -18.133,26.17299 -16.764,16.764 -36.95,25.146 -60.557,25.146 -23.607,0 -43.792,-8.325 -60.557,-24.975 -16.65,-16.765 -24.975,-36.94999 -24.975,-60.55699 0,-23.607 8.325,-43.736 24.975,-60.386 16.765,-16.765 36.95,-25.147 60.557,-25.147 23.607,0 43.736,8.382 60.386,25.147 16.765,16.65 25.147,36.779 25.147,60.386 0,5.93 -0.513,11.632 -1.54,17.106 h -132.575 c 2.509,7.071 6.614,13.457 12.317,19.159 10.035,10.03599 22.124,15.05399 36.265,15.05399 14.142,0 26.23,-5.018 36.266,-15.05399 0.684,-0.684 1.312,-1.368 1.882,-2.052 z"
     style="fill:#808080"
     id="path14803" /><rect
     x="1884.9598"
     y="108.35801"
     width="34.213001"
     height="140.22099"
     style="fill:#808080"
     id="rect14805" /><rect
     x="1884.9598"
     y="44.819008"
     width="34.213001"
     height="34.213001"
     style="fill:#808080"
     id="rect14807" /><path
     d="m 563.55104,244.88901 c -10.276,0 -17.634,-1.519 -22.071,-4.555 -4.438,-3.036 -7.124,-7.007 -8.058,-11.911 -0.934,-4.905 -1.401,-10.16 -1.401,-15.766 V 31.88102 c 0,-5.138 0.467,-10.043 1.401,-14.714 0.934,-4.905 3.62,-8.876 8.058,-11.912 4.437,-3.27 12.028,-4.905 22.772,-4.905 7.24,0 12.495,0.467 15.765,1.402 3.504,0.934 5.956,2.102 7.357,3.503 1.635,1.401 3.27,3.036 4.905,4.905 l 72.521,93.191 h -2.102 l 72.17,-92.841 c 2.336,-2.569 4.438,-4.554 6.30599,-5.956 2.102,-1.401 4.788,-2.452 8.058,-3.153 3.504,-0.7 8.408,-1.051 14.714,-1.051 10.511,0 17.985,1.635 22.422,4.905 4.438,3.036 7.124,7.007 8.058,11.912 0.934,4.905 1.402,10.043 1.402,15.415 v 180.77599 c 0,5.138 -0.468,10.16 -1.402,15.065 -0.934,4.904 -3.62,8.875 -8.058,11.911 -4.437,3.036 -12.028,4.555 -22.772,4.555 -10.51,0 -17.984,-1.519 -22.422,-4.555 -4.43699,-3.27 -7.12299,-7.357 -8.05799,-12.262 -0.934,-5.138 -1.401,-10.276 -1.401,-15.415 v -99.49699 l -40.99,55.705 c -0.934,1.167 -2.335,2.919 -4.204,5.255 -1.868,2.335 -4.554,4.437 -8.058,6.306 -3.503,1.868 -8.408,2.803 -14.714,2.803 -6.306,0 -11.328,-0.935 -15.065,-2.803 -3.503,-1.869 -6.189,-3.854 -8.058,-5.956 -1.868,-2.336 -3.27,-4.204 -4.204,-5.605 l -40.639,-55.354 v 99.84699 c 0,5.138 -0.467,10.16 -1.402,15.065 -0.934,4.904 -3.62,8.875 -8.058,11.911 -4.437,3.036 -12.028,4.555 -22.772,4.555 z"
     style="fill:#54dddc;fill-rule:nonzero"
     id="path14809" /><path
     d="m 1047.37,200.74602 c 3.503,7.00599 5.372,12.96199 5.605,17.86699 0.234,4.905 -1.285,9.226 -4.554,12.963 -3.27,3.737 -8.525,7.474 -15.766,11.211 -11.211,5.371 -19.852,7.006 -25.925,4.904 -6.073,-1.868 -11.79497,-8.525 -17.16697,-19.969 l -59.558,-121.91899 -58.857,122.26899 c -5.606,10.978 -11.445,17.401 -17.517,19.269 -6.073,2.102 -14.598,0.467 -25.575,-4.905 -7.24,-3.503 -12.612,-7.123 -16.116,-10.86 -3.27,-3.737 -4.788,-8.058 -4.554,-12.963 0.233,-4.905 2.102,-10.861 5.605,-17.86699 l 87.936,-182.178 c 2.803,-5.605 6.89,-10.043 12.262,-13.313 5.605,-3.503 11.328,-5.255 17.167,-5.255 4.204,0 8.057,0.817 11.561,2.452 3.737,1.402 7.123,3.504 10.16,6.307 3.036,2.802 5.488,6.189 7.357,10.159 z m -172.71897,-6.307 26.626,-54.653 h 57.807 l 26.626,54.653 z"
     style="fill:#54dddc;fill-rule:nonzero"
     id="path14811" /><path
     d="m 1364.6,248.57801 c -10.51,0 -17.984,-1.518 -22.422,-4.554 -4.438,-3.27 -7.124,-7.357 -8.058,-12.262 -0.934,-5.139 -1.401,-10.277 -1.401,-15.415 V 35.57102 c 0,-5.139 0.467,-10.16 1.401,-15.065 0.934,-4.905 3.62,-8.875 8.058,-11.912 4.438,-3.27 12.028,-4.904 22.772,-4.904 h 69.718 c 8.875,0 18.451,1.868 28.728,5.605 10.277,3.503 19.97,8.992 29.078,16.466 9.343,7.474 16.934,16.816 22.773,28.027 5.839,11.211 8.758,24.524 8.758,39.939 0,15.182 -2.919,28.378 -8.758,39.589 -5.839,11.211 -13.43,20.553 -22.773,28.027 -9.108,7.241 -18.801,12.729 -29.078,16.466 -10.277,3.504 -19.969,5.255 -29.078,5.255 h -37.487 v 33.63299 c 0,5.138 -0.467,10.16 -1.401,15.065 -0.934,4.905 -3.62,8.992 -8.058,12.262 -4.438,3.036 -12.028,4.554 -22.772,4.554 z m 32.231,-129.62599 h 37.837 c 3.036,0 6.54,-0.701 10.51,-2.102 3.971,-1.635 7.474,-4.321 10.511,-8.058 3.036,-3.737 4.554,-8.875 4.554,-15.415 0,-4.905 -1.168,-9.226 -3.503,-12.963 -2.336,-3.97 -5.489,-7.007 -9.46,-9.109 -3.737,-2.335 -8.057,-3.503 -12.962,-3.503 h -37.487 z"
     style="fill:#54dddc;fill-rule:nonzero"
     id="path14813" /><path
     d="m 2168.31,200.74602 c 3.503,7.00599 5.372,12.96199 5.605,17.86699 0.234,4.905 -1.284,9.226 -4.554,12.963 -3.27,3.737 -8.525,7.474 -15.766,11.211 -11.21,5.371 -19.852,7.006 -25.925,4.904 -6.072,-1.868 -11.795,-8.525 -17.167,-19.969 l -59.558,-121.91899 -58.857,122.26899 c -5.605,10.978 -11.444,17.401 -17.517,19.269 -6.073,2.102 -14.598,0.467 -25.575,-4.905 -7.24,-3.503 -12.612,-7.123 -16.116,-10.86 -3.269,-3.737 -4.788,-8.058 -4.554,-12.963 0.234,-4.905 2.102,-10.861 5.605,-17.86699 l 87.936,-182.178 c 2.803,-5.605 6.89,-10.043 12.262,-13.313 5.605,-3.503 11.328,-5.255 17.167,-5.255 4.204,0 8.058,0.817 11.561,2.452 3.737,1.402 7.124,3.504 10.16,6.307 3.036,2.802 5.489,6.189 7.357,10.159 z m -172.719,-6.307 26.626,-54.653 h 57.807 l 26.626,54.653 z"
     style="fill:#ff9292;fill-rule:nonzero"
     id="path14815" /><path
     d="m 2219.81,244.88901 c -10.51,0 -17.984,-1.519 -22.422,-4.555 -4.438,-3.27 -7.124,-7.357 -8.058,-12.262 -0.934,-5.138 -1.401,-10.276 -1.401,-15.415 V 31.88102 c 0,-5.138 0.467,-10.16 1.401,-15.065 0.934,-4.904 3.62,-8.875 8.058,-11.911 4.438,-3.27 12.028,-4.905 22.772,-4.905 h 70.419 c 8.875,0 18.451,1.868 28.728,5.605 10.277,3.504 19.969,8.993 29.078,16.467 9.109,7.473 16.583,16.816 22.422,28.027 5.839,11.211 8.759,24.524 8.759,39.939 0,10.744 -1.635,20.787 -4.905,30.129 -3.036,9.343 -7.708,17.867 -14.014,25.575 -6.072,7.474 -13.546,14.13 -22.422,19.969 -8.641,5.606 -18.568,10.044 -29.779,13.313 h -56.405 v 33.98399 c 0,5.138 -0.467,10.159 -1.401,15.064 -0.934,4.905 -3.62,8.992 -8.058,12.262 -4.438,3.036 -12.028,4.555 -22.772,4.555 z m 146.793,-8.409 c -10.51,7.941 -18.802,11.095 -24.874,9.46 -6.073,-1.402 -12.613,-6.774 -19.619,-16.116 l -64.463,-87.58499 72.871,-9.109 43.442,58.507 c 4.671,6.773 7.591,12.49499 8.759,17.16599 1.401,4.672 0.817,9.109 -1.752,13.313 -2.569,4.205 -7.357,8.993 -14.364,14.364 z M 2252.041,115.26202 h 38.538 c 2.102,0 4.554,-0.35 7.357,-1.051 3.036,-0.934 5.839,-2.335 8.408,-4.204 2.569,-2.102 4.671,-4.788 6.306,-8.058 1.869,-3.27 2.803,-7.357 2.803,-12.262 0,-4.904 -1.168,-9.225 -3.503,-12.962 -2.336,-3.971 -5.489,-7.007 -9.46,-9.109 -3.736,-2.336 -7.941,-3.504 -12.612,-3.504 h -37.837 z"
     style="fill:#ff9292;fill-rule:nonzero"
     id="path14817" /></svg>
