<?xml version="1.0" encoding="UTF-8" standalone="no"?><!DOCTYPE svg PUBLIC "-//W3C//DTD SVG 1.1//EN" "http://www.w3.org/Graphics/SVG/1.1/DTD/svg11.dtd"><svg width="100%" height="100%" viewBox="0 0 2384 488" version="1.1" xmlns="http://www.w3.org/2000/svg" xmlns:xlink="http://www.w3.org/1999/xlink" xml:space="preserve" xmlns:serif="http://www.serif.com/" style="fill-rule:evenodd;clip-rule:evenodd;stroke-linecap:round;stroke-linejoin:round;stroke-miterlimit:1.5;"><path d="M85.533,77.513c23.607,0 43.735,8.382 60.386,25.147c16.764,16.65 25.146,36.779 25.146,60.386c0,23.607 -8.382,43.792 -25.146,60.557c-16.651,16.65 -36.779,24.975 -60.386,24.975c-23.607,0 -43.793,-8.325 -60.557,-24.975c-16.651,-16.765 -24.976,-36.95 -24.976,-60.557c0,-23.607 8.325,-43.736 24.976,-60.386c16.764,-16.765 36.95,-25.147 60.557,-25.147Zm-0,34.213c-14.142,0 -26.23,5.018 -36.266,15.054c-10.036,10.036 -15.054,22.124 -15.054,36.266c0,14.141 5.018,26.23 15.054,36.265c10.036,10.036 22.124,15.054 36.266,15.054c14.141,0 26.23,-5.018 36.265,-15.054c10.036,-10.035 15.054,-22.124 15.054,-36.265c0,-14.142 -5.018,-26.23 -15.054,-36.266c-10.035,-10.036 -22.124,-15.054 -36.265,-15.054Z" style="fill:#808080;fill-rule:nonzero;"/><path d="M210.123,163.046l-0,85.532l-34.213,0l-0,-85.532c-0,-23.607 8.325,-43.736 24.975,-60.386c16.765,-16.765 36.95,-25.147 60.557,-25.147c23.607,0 43.736,8.382 60.386,25.147c16.765,16.65 25.147,36.779 25.147,60.386l-0,85.532l-34.213,0l-0,-85.532c-0,-14.142 -5.018,-26.23 -15.054,-36.266c-10.036,-10.036 -22.124,-15.054 -36.266,-15.054c-14.141,0 -26.23,5.018 -36.266,15.054c-10.035,10.036 -15.053,22.124 -15.053,36.266Z" style="fill:#808080;fill-rule:nonzero;"/><path d="M437.352,77.513c23.607,0 43.736,8.382 60.386,25.147c16.764,16.65 25.146,36.779 25.146,60.386c0,23.607 -8.382,43.792 -25.146,60.557c-16.65,16.65 -36.779,24.975 -60.386,24.975c-23.607,0 -43.793,-8.325 -60.557,-24.975c-16.65,-16.765 -24.976,-36.95 -24.976,-60.557c0,-23.607 8.326,-43.736 24.976,-60.386c16.764,-16.765 36.95,-25.147 60.557,-25.147Zm-0,34.213c-14.141,0 -26.23,5.018 -36.266,15.054c-10.036,10.036 -15.054,22.124 -15.054,36.266c0,14.141 5.018,26.23 15.054,36.265c10.036,10.036 22.125,15.054 36.266,15.054c14.141,0 26.23,-5.018 36.266,-15.054c10.036,-10.035 15.053,-22.124 15.053,-36.265c0,-14.142 -5.017,-26.23 -15.053,-36.266c-10.036,-10.036 -22.125,-15.054 -36.266,-15.054Z" style="fill:#808080;fill-rule:nonzero;"/><g><path d="M1096.35,44.819l-0,32.694l51.319,0l0,34.213l-51.319,0l-0,51.32c-0,14.141 5.017,26.23 15.053,36.265c10.036,10.036 22.125,15.054 36.266,15.054l0,34.213c-23.607,0 -43.793,-8.325 -60.557,-24.975c-16.65,-16.765 -24.976,-36.95 -24.976,-60.557l0,-118.227l34.214,-0Z" style="fill:#808080;"/><path d="M1238.05,77.513c23.607,0 43.736,8.382 60.386,25.147c16.765,16.65 25.147,36.779 25.147,60.386c-0,23.607 -8.382,43.792 -25.147,60.557c-16.65,16.65 -36.779,24.975 -60.386,24.975c-23.607,0 -43.793,-8.325 -60.557,-24.975c-16.65,-16.765 -24.975,-36.95 -24.975,-60.557c-0,-23.607 8.325,-43.736 24.975,-60.386c16.764,-16.765 36.95,-25.147 60.557,-25.147Zm0,34.213c-14.141,0 -26.23,5.018 -36.266,15.054c-10.035,10.036 -15.053,22.124 -15.053,36.266c-0,14.141 5.018,26.23 15.053,36.265c10.036,10.036 22.125,15.054 36.266,15.054c14.142,0 26.23,-5.018 36.266,-15.054c10.036,-10.035 15.054,-22.124 15.054,-36.265c-0,-14.142 -5.018,-26.23 -15.054,-36.266c-10.036,-10.036 -22.124,-15.054 -36.266,-15.054Z" style="fill:#808080;"/></g><path d="M1618.67,77.513c23.607,0 43.735,8.382 60.386,25.147c16.764,16.65 25.146,36.779 25.146,60.386c0,23.607 -8.382,43.792 -25.146,60.557c-16.651,16.65 -36.779,24.975 -60.386,24.975c-23.607,0 -43.793,-8.325 -60.557,-24.975c-16.651,-16.765 -24.976,-36.95 -24.976,-60.557c0,-23.607 8.325,-43.736 24.976,-60.386c16.764,-16.765 36.95,-25.147 60.557,-25.147Zm-0,34.213c-14.142,0 -26.23,5.018 -36.266,15.054c-10.036,10.036 -15.054,22.124 -15.054,36.266c0,14.141 5.018,26.23 15.054,36.265c10.036,10.036 22.124,15.054 36.266,15.054c14.141,0 26.23,-5.018 36.266,-15.054c10.035,-10.035 15.053,-22.124 15.053,-36.265c0,-14.142 -5.018,-26.23 -15.053,-36.266c-10.036,-10.036 -22.125,-15.054 -36.266,-15.054Z" style="fill:#808080;"/><path d="M1843.16,145.939c-2.509,-7.071 -6.615,-13.457 -12.317,-19.159c-10.036,-10.036 -22.124,-15.054 -36.266,-15.054c-14.141,0 -26.23,5.018 -36.265,15.054c-5.703,5.702 -9.808,12.088 -12.317,19.159l97.165,0Zm-10.435,51.32l40.542,-0c-4.219,9.579 -10.264,18.304 -18.133,26.173c-16.764,16.764 -36.95,25.146 -60.557,25.146c-23.607,0 -43.792,-8.325 -60.557,-24.975c-16.65,-16.765 -24.975,-36.95 -24.975,-60.557c-0,-23.607 8.325,-43.736 24.975,-60.386c16.765,-16.765 36.95,-25.147 60.557,-25.147c23.607,0 43.736,8.382 60.386,25.147c16.765,16.65 25.147,36.779 25.147,60.386c-0,5.93 -0.513,11.632 -1.54,17.106l-132.575,0c2.509,7.071 6.614,13.457 12.317,19.159c10.035,10.036 22.124,15.054 36.265,15.054c14.142,0 26.23,-5.018 36.266,-15.054c0.684,-0.684 1.312,-1.368 1.882,-2.052Z" style="fill:#808080;"/><rect x="1884.96" y="108.358" width="34.213" height="140.221" style="fill:#808080;"/><rect x="1884.96" y="44.819" width="34.213" height="34.213" style="fill:#808080;"/><path d="M563.551,244.889c-10.276,-0 -17.634,-1.519 -22.071,-4.555c-4.438,-3.036 -7.124,-7.007 -8.058,-11.911c-0.934,-4.905 -1.401,-10.16 -1.401,-15.766l-0,-180.776c-0,-5.138 0.467,-10.043 1.401,-14.714c0.934,-4.905 3.62,-8.876 8.058,-11.912c4.437,-3.27 12.028,-4.905 22.772,-4.905c7.24,0 12.495,0.467 15.765,1.402c3.504,0.934 5.956,2.102 7.357,3.503c1.635,1.401 3.27,3.036 4.905,4.905l72.521,93.191l-2.102,-0l72.17,-92.841c2.336,-2.569 4.438,-4.554 6.306,-5.956c2.102,-1.401 4.788,-2.452 8.058,-3.153c3.504,-0.7 8.408,-1.051 14.714,-1.051c10.511,0 17.985,1.635 22.422,4.905c4.438,3.036 7.124,7.007 8.058,11.912c0.934,4.905 1.402,10.043 1.402,15.415l-0,180.776c-0,5.138 -0.468,10.16 -1.402,15.065c-0.934,4.904 -3.62,8.875 -8.058,11.911c-4.437,3.036 -12.028,4.555 -22.772,4.555c-10.51,-0 -17.984,-1.519 -22.422,-4.555c-4.437,-3.27 -7.123,-7.357 -8.058,-12.262c-0.934,-5.138 -1.401,-10.276 -1.401,-15.415l0,-99.497l-40.99,55.705c-0.934,1.167 -2.335,2.919 -4.204,5.255c-1.868,2.335 -4.554,4.437 -8.058,6.306c-3.503,1.868 -8.408,2.803 -14.714,2.803c-6.306,-0 -11.328,-0.935 -15.065,-2.803c-3.503,-1.869 -6.189,-3.854 -8.058,-5.956c-1.868,-2.336 -3.27,-4.204 -4.204,-5.605l-40.639,-55.354l-0,99.847c-0,5.138 -0.467,10.16 -1.402,15.065c-0.934,4.904 -3.62,8.875 -8.058,11.911c-4.437,3.036 -12.028,4.555 -22.772,4.555Z" style="fill:#54dddc;fill-rule:nonzero;"/><path d="M1047.37,200.746c3.503,7.006 5.372,12.962 5.605,17.867c0.234,4.905 -1.285,9.226 -4.554,12.963c-3.27,3.737 -8.525,7.474 -15.766,11.211c-11.211,5.371 -19.852,7.006 -25.925,4.904c-6.073,-1.868 -11.795,-8.525 -17.167,-19.969l-59.558,-121.919l-58.857,122.269c-5.606,10.978 -11.445,17.401 -17.517,19.269c-6.073,2.102 -14.598,0.467 -25.575,-4.905c-7.24,-3.503 -12.612,-7.123 -16.116,-10.86c-3.27,-3.737 -4.788,-8.058 -4.554,-12.963c0.233,-4.905 2.102,-10.861 5.605,-17.867l87.936,-182.178c2.803,-5.605 6.89,-10.043 12.262,-13.313c5.605,-3.503 11.328,-5.255 17.167,-5.255c4.204,-0 8.057,0.817 11.561,2.452c3.737,1.402 7.123,3.504 10.16,6.307c3.036,2.802 5.488,6.189 7.357,10.159l87.936,181.828Zm-172.719,-6.307l26.626,-54.653l57.807,0l26.626,54.653l-111.059,0Z" style="fill:#54dddc;fill-rule:nonzero;"/><path d="M1364.6,248.578c-10.51,0 -17.984,-1.518 -22.422,-4.554c-4.438,-3.27 -7.124,-7.357 -8.058,-12.262c-0.934,-5.139 -1.401,-10.277 -1.401,-15.415l-0,-180.776c-0,-5.139 0.467,-10.16 1.401,-15.065c0.934,-4.905 3.62,-8.875 8.058,-11.912c4.438,-3.27 12.028,-4.904 22.772,-4.904l69.718,-0c8.875,-0 18.451,1.868 28.728,5.605c10.277,3.503 19.97,8.992 29.078,16.466c9.343,7.474 16.934,16.816 22.773,28.027c5.839,11.211 8.758,24.524 8.758,39.939c0,15.182 -2.919,28.378 -8.758,39.589c-5.839,11.211 -13.43,20.553 -22.773,28.027c-9.108,7.241 -18.801,12.729 -29.078,16.466c-10.277,3.504 -19.969,5.255 -29.078,5.255l-37.487,0l0,33.633c0,5.138 -0.467,10.16 -1.401,15.065c-0.934,4.905 -3.62,8.992 -8.058,12.262c-4.438,3.036 -12.028,4.554 -22.772,4.554Zm32.231,-129.626l37.837,-0c3.036,-0 6.54,-0.701 10.51,-2.102c3.971,-1.635 7.474,-4.321 10.511,-8.058c3.036,-3.737 4.554,-8.875 4.554,-15.415c0,-4.905 -1.168,-9.226 -3.503,-12.963c-2.336,-3.97 -5.489,-7.007 -9.46,-9.109c-3.737,-2.335 -8.057,-3.503 -12.962,-3.503l-37.487,-0l0,51.15Z" style="fill:#54dddc;fill-rule:nonzero;"/><path d="M2168.31,200.746c3.503,7.006 5.372,12.962 5.605,17.867c0.234,4.905 -1.284,9.226 -4.554,12.963c-3.27,3.737 -8.525,7.474 -15.766,11.211c-11.21,5.371 -19.852,7.006 -25.925,4.904c-6.072,-1.868 -11.795,-8.525 -17.167,-19.969l-59.558,-121.919l-58.857,122.269c-5.605,10.978 -11.444,17.401 -17.517,19.269c-6.073,2.102 -14.598,0.467 -25.575,-4.905c-7.24,-3.503 -12.612,-7.123 -16.116,-10.86c-3.269,-3.737 -4.788,-8.058 -4.554,-12.963c0.234,-4.905 2.102,-10.861 5.605,-17.867l87.936,-182.178c2.803,-5.605 6.89,-10.043 12.262,-13.313c5.605,-3.503 11.328,-5.255 17.167,-5.255c4.204,-0 8.058,0.817 11.561,2.452c3.737,1.402 7.124,3.504 10.16,6.307c3.036,2.802 5.489,6.189 7.357,10.159l87.936,181.828Zm-172.719,-6.307l26.626,-54.653l57.807,0l26.626,54.653l-111.059,0Z" style="fill:#ff9292;fill-rule:nonzero;"/><path d="M2219.81,244.889c-10.51,-0 -17.984,-1.519 -22.422,-4.555c-4.438,-3.27 -7.124,-7.357 -8.058,-12.262c-0.934,-5.138 -1.401,-10.276 -1.401,-15.415l-0,-180.776c-0,-5.138 0.467,-10.16 1.401,-15.065c0.934,-4.904 3.62,-8.875 8.058,-11.911c4.438,-3.27 12.028,-4.905 22.772,-4.905l70.419,-0c8.875,-0 18.451,1.868 28.728,5.605c10.277,3.504 19.969,8.993 29.078,16.467c9.109,7.473 16.583,16.816 22.422,28.027c5.839,11.211 8.759,24.524 8.759,39.939c-0,10.744 -1.635,20.787 -4.905,30.129c-3.036,9.343 -7.708,17.867 -14.014,25.575c-6.072,7.474 -13.546,14.13 -22.422,19.969c-8.641,5.606 -18.568,10.044 -29.779,13.313l-56.405,0l0,33.984c0,5.138 -0.467,10.159 -1.401,15.064c-0.934,4.905 -3.62,8.992 -8.058,12.262c-4.438,3.036 -12.028,4.555 -22.772,4.555Zm146.793,-8.409c-10.51,7.941 -18.802,11.095 -24.874,9.46c-6.073,-1.402 -12.613,-6.774 -19.619,-16.116l-64.463,-87.585l72.871,-9.109l43.442,58.507c4.671,6.773 7.591,12.495 8.759,17.166c1.401,4.672 0.817,9.109 -1.752,13.313c-2.569,4.205 -7.357,8.993 -14.364,14.364Zm-114.562,-121.218l38.538,0c2.102,0 4.554,-0.35 7.357,-1.051c3.036,-0.934 5.839,-2.335 8.408,-4.204c2.569,-2.102 4.671,-4.788 6.306,-8.058c1.869,-3.27 2.803,-7.357 2.803,-12.262c0,-4.904 -1.168,-9.225 -3.503,-12.962c-2.336,-3.971 -5.489,-7.007 -9.46,-9.109c-3.736,-2.336 -7.941,-3.504 -12.612,-3.504l-37.837,0l0,51.15Z" style="fill:#ff9292;fill-rule:nonzero;"/><g><path d="M356.041,384.754c10.107,-0 18.725,3.588 25.854,10.766c7.178,7.129 10.767,15.747 10.767,25.855c-0,10.107 -3.589,18.75 -10.767,25.927c-7.129,7.129 -15.747,10.694 -25.854,10.694c-10.108,-0 -18.75,-3.565 -25.928,-10.694c-7.129,-7.177 -10.693,-15.82 -10.693,-25.927c-0,-10.108 3.564,-18.726 10.693,-25.855c7.178,-7.178 15.82,-10.766 25.928,-10.766Zm-0,14.648c-6.055,-0 -11.231,2.148 -15.528,6.445c-4.297,4.297 -6.445,9.473 -6.445,15.528c0,6.054 2.148,11.23 6.445,15.527c4.297,4.297 9.473,6.445 15.528,6.445c6.054,0 11.23,-2.148 15.527,-6.445c4.297,-4.297 6.445,-9.473 6.445,-15.527c0,-6.055 -2.148,-11.231 -6.445,-15.528c-4.297,-4.297 -9.473,-6.445 -15.527,-6.445Z" style="fill:#808080;fill-rule:nonzero;"/><path d="M409.384,421.375l0,36.621l-14.648,-0l0,-36.621c0,-10.108 3.564,-18.726 10.693,-25.855c7.178,-7.178 15.821,-10.766 25.928,-10.766c10.108,-0 18.726,3.588 25.855,10.766c7.177,7.129 10.766,15.747 10.766,25.855l0,36.621l-14.648,-0l-0,-36.621c-0,-6.055 -2.149,-11.231 -6.446,-15.528c-4.296,-4.297 -9.472,-6.445 -15.527,-6.445c-6.055,-0 -11.23,2.148 -15.527,6.445c-4.297,4.297 -6.446,9.473 -6.446,15.528Z" style="fill:#808080;fill-rule:nonzero;"/><path d="M506.674,384.754c10.107,-0 18.725,3.588 25.854,10.766c7.178,7.129 10.767,15.747 10.767,25.855c-0,10.107 -3.589,18.75 -10.767,25.927c-7.129,7.129 -15.747,10.694 -25.854,10.694c-10.108,-0 -18.75,-3.565 -25.928,-10.694c-7.129,-7.177 -10.694,-15.82 -10.694,-25.927c0,-10.108 3.565,-18.726 10.694,-25.855c7.178,-7.178 15.82,-10.766 25.928,-10.766Zm-0,14.648c-6.055,-0 -11.231,2.148 -15.528,6.445c-4.297,4.297 -6.445,9.473 -6.445,15.528c-0,6.054 2.148,11.23 6.445,15.527c4.297,4.297 9.473,6.445 15.528,6.445c6.054,0 11.23,-2.148 15.527,-6.445c4.297,-4.297 6.445,-9.473 6.445,-15.527c0,-6.055 -2.148,-11.231 -6.445,-15.528c-4.297,-4.297 -9.473,-6.445 -15.527,-6.445Z" style="fill:#808080;fill-rule:nonzero;"/><path d="M603.963,421.375c-0,-6.055 -2.149,-11.231 -6.446,-15.528c-4.297,-4.297 -9.472,-6.445 -15.527,-6.445c-6.055,-0 -11.231,2.148 -15.527,6.445c-4.297,4.297 -6.446,9.473 -6.446,15.528l0,36.621l-14.648,-0l-0,-36.621c-0,-10.108 3.564,-18.726 10.693,-25.855c7.178,-7.178 15.82,-10.766 25.928,-10.766c10.107,-0 18.75,3.564 25.928,10.693c1.22,1.269 2.343,2.563 3.369,3.882c1.025,-1.319 2.173,-2.613 3.442,-3.882c7.129,-7.129 15.747,-10.693 25.855,-10.693c10.107,-0 18.725,3.588 25.854,10.766c7.178,7.129 10.767,15.747 10.767,25.855l-0,36.621l-14.649,-0l0,-36.621c0,-6.055 -2.148,-11.231 -6.445,-15.528c-4.297,-4.297 -9.473,-6.445 -15.527,-6.445c-6.055,-0 -11.231,2.148 -15.528,6.445c-4.297,4.297 -6.445,9.473 -6.445,15.528l0,36.621l-14.648,-0l-0,-36.621Z" style="fill:#808080;fill-rule:nonzero;"/><path d="M715.9,399.402c-6.055,-0 -11.23,2.148 -15.527,6.445c-4.297,4.297 -6.446,9.473 -6.446,15.528c0,6.054 2.149,11.23 6.446,15.527c4.297,4.297 9.472,6.445 15.527,6.445c6.055,0 11.231,-2.148 15.527,-6.445c4.297,-4.297 6.446,-9.473 6.446,-15.527c-0,-6.055 -2.149,-11.231 -6.446,-15.528c-4.296,-4.297 -9.472,-6.445 -15.527,-6.445Zm21.973,51.343c-6.299,4.834 -13.623,7.251 -21.973,7.251c-10.107,-0 -18.75,-3.565 -25.928,-10.694c-7.129,-7.177 -10.693,-15.82 -10.693,-25.927c-0,-10.108 3.564,-18.726 10.693,-25.855c7.178,-7.178 15.821,-10.766 25.928,-10.766c10.107,-0 18.726,3.588 25.855,10.766c7.177,7.129 10.766,15.747 10.766,25.855l0,36.621l-14.648,-0l-0,-7.251Z" style="fill:#808080;fill-rule:nonzero;"/><path d="M754.595,369.276l14.649,-0l-0,15.478l21.972,-0l0,14.648l-21.972,-0l-0,21.973c-0,6.054 2.148,11.23 6.445,15.527c4.297,4.297 9.473,6.445 15.527,6.445l0,14.649c-10.107,-0 -18.75,-3.565 -25.927,-10.694c-7.129,-7.177 -10.694,-15.82 -10.694,-25.927l0,-52.099Z" style="fill:#808080;fill-rule:nonzero;"/><path d="M829.912,384.754c10.107,-0 18.725,3.588 25.854,10.766c7.178,7.129 10.767,15.747 10.767,25.855c-0,10.107 -3.589,18.75 -10.767,25.927c-7.129,7.129 -15.747,10.694 -25.854,10.694c-10.108,-0 -18.75,-3.565 -25.928,-10.694c-7.129,-7.177 -10.693,-15.82 -10.693,-25.927c-0,-10.108 3.564,-18.726 10.693,-25.855c7.178,-7.178 15.82,-10.766 25.928,-10.766Zm-0,14.648c-6.055,-0 -11.231,2.148 -15.528,6.445c-4.296,4.297 -6.445,9.473 -6.445,15.528c0,6.054 2.149,11.23 6.445,15.527c4.297,4.297 9.473,6.445 15.528,6.445c6.054,0 11.23,-2.148 15.527,-6.445c4.297,-4.297 6.445,-9.473 6.445,-15.527c0,-6.055 -2.148,-11.231 -6.445,-15.528c-4.297,-4.297 -9.473,-6.445 -15.527,-6.445Z" style="fill:#808080;fill-rule:nonzero;"/><path d="M905.228,443.347c6.055,0 11.231,-2.148 15.528,-6.445c4.296,-4.297 6.445,-9.473 6.445,-15.527c-0,-6.055 -2.149,-11.231 -6.445,-15.528c-4.297,-4.297 -9.473,-6.445 -15.528,-6.445c-6.054,-0 -11.23,2.148 -15.527,6.445c-4.297,4.297 -6.445,9.473 -6.445,15.528c-0,6.054 2.148,11.23 6.445,15.527c4.297,4.297 9.473,6.445 15.527,6.445Zm-36.621,-21.972c0,-10.108 3.565,-18.726 10.693,-25.855c7.178,-7.178 15.821,-10.766 25.928,-10.766c10.108,-0 18.726,3.588 25.855,10.766c7.177,7.129 10.766,15.747 10.766,25.855c0,10.107 -3.589,18.75 -10.766,25.927c-7.129,7.129 -15.747,10.694 -25.855,10.694c-8.349,-0 -15.674,-2.417 -21.972,-7.251l-0,36.548l-14.649,-0l0,-65.918Z" style="fill:#808080;fill-rule:nonzero;"/><path d="M980.545,384.754c10.107,-0 18.725,3.588 25.854,10.766c7.178,7.129 10.767,15.747 10.767,25.855c-0,10.107 -3.589,18.75 -10.767,25.927c-7.129,7.129 -15.747,10.694 -25.854,10.694c-10.108,-0 -18.75,-3.565 -25.928,-10.694c-7.129,-7.177 -10.693,-15.82 -10.693,-25.927c-0,-10.108 3.564,-18.726 10.693,-25.855c7.178,-7.178 15.82,-10.766 25.928,-10.766Zm-0,14.648c-6.055,-0 -11.231,2.148 -15.528,6.445c-4.297,4.297 -6.445,9.473 -6.445,15.528c-0,6.054 2.148,11.23 6.445,15.527c4.297,4.297 9.473,6.445 15.528,6.445c6.054,0 11.23,-2.148 15.527,-6.445c4.297,-4.297 6.445,-9.473 6.445,-15.527c0,-6.055 -2.148,-11.231 -6.445,-15.528c-4.297,-4.297 -9.473,-6.445 -15.527,-6.445Z" style="fill:#808080;fill-rule:nonzero;"/><path d="M1076.66,414.05c-1.074,-3.027 -2.832,-5.761 -5.274,-8.203c-4.297,-4.297 -9.472,-6.445 -15.527,-6.445c-6.055,-0 -11.23,2.148 -15.527,6.445c-2.442,2.442 -4.2,5.176 -5.274,8.203l41.602,0Zm-4.468,21.973l17.358,0c-1.806,4.102 -4.394,7.837 -7.763,11.206c-7.178,7.178 -15.821,10.767 -25.928,10.767c-10.107,-0 -18.75,-3.565 -25.928,-10.694c-7.129,-7.177 -10.693,-15.82 -10.693,-25.927c-0,-10.108 3.564,-18.726 10.693,-25.855c7.178,-7.178 15.821,-10.766 25.928,-10.766c10.107,-0 18.726,3.588 25.854,10.766c7.178,7.129 10.767,15.747 10.767,25.855c0,2.539 -0.22,4.98 -0.659,7.324l-56.763,-0c1.074,3.027 2.832,5.762 5.274,8.203c4.297,4.297 9.472,6.445 15.527,6.445c6.055,0 11.23,-2.148 15.527,-6.445c0.293,-0.293 0.562,-0.586 0.806,-0.879Z" style="fill:#808080;fill-rule:nonzero;"/><path d="M1109.2,399.754l-0,58.242l-14.649,-0l0,-58.242l14.649,-0Zm-14.649,-14.649l0,-14.648l14.649,-0l-0,14.648l-14.649,0Z" style="fill:#808080;fill-rule:nonzero;"/><path d="M1147.9,399.402c-6.055,-0 -11.23,2.148 -15.527,6.445c-4.297,4.297 -6.446,9.473 -6.446,15.528c0,6.054 2.149,11.23 6.446,15.527c4.297,4.297 9.472,6.445 15.527,6.445c6.055,0 11.231,-2.148 15.527,-6.445c4.297,-4.297 6.446,-9.473 6.446,-15.527c-0,-6.055 -2.149,-11.231 -6.446,-15.528c-4.296,-4.297 -9.472,-6.445 -15.527,-6.445Zm21.973,51.343c-6.299,4.834 -13.623,7.251 -21.973,7.251c-10.107,-0 -18.75,-3.565 -25.928,-10.694c-7.129,-7.177 -10.693,-15.82 -10.693,-25.927c-0,-10.108 3.564,-18.726 10.693,-25.855c7.178,-7.178 15.821,-10.766 25.928,-10.766c10.107,-0 18.726,3.588 25.855,10.766c7.177,7.129 10.766,15.747 10.766,25.855l0,36.621l-14.648,-0l-0,-7.251Z" style="fill:#808080;fill-rule:nonzero;"/><path d="M1257.33,453.341l-10.474,-15.393l-10.738,15.393c-1.551,2.151 -2.874,3.685 -3.967,4.602c-1.058,0.917 -2.416,1.375 -4.073,1.375c-1.834,0 -3.403,-0.564 -4.708,-1.693c-1.269,-1.163 -1.904,-2.486 -1.904,-3.967c-0,-1.516 0.987,-3.685 2.962,-6.506l13.066,-18.726l-11.585,-15.604c-2.01,-2.575 -3.015,-4.814 -3.015,-6.718c-0,-1.481 0.599,-2.769 1.798,-3.862c1.199,-1.093 2.769,-1.64 4.708,-1.64c1.693,0 3.086,0.476 4.179,1.429c1.129,0.952 2.433,2.45 3.915,4.496l9.362,12.801l9.099,-12.801c1.516,-2.116 2.821,-3.632 3.914,-4.549c1.129,-0.917 2.522,-1.376 4.179,-1.376c1.904,0 3.474,0.547 4.708,1.64c1.269,1.058 1.904,2.345 1.904,3.862c0,1.093 -0.264,2.151 -0.793,3.173c-0.494,0.988 -1.27,2.169 -2.328,3.545l-11.584,15.604l13.065,18.726c2.046,2.927 3.068,5.131 3.068,6.612c0,1.516 -0.634,2.821 -1.904,3.914c-1.27,1.094 -2.839,1.64 -4.708,1.64c-1.657,0 -3.068,-0.476 -4.232,-1.428c-1.128,-0.952 -2.433,-2.469 -3.914,-4.549Z" style="fill-rule:nonzero;"/><path d="M1320.71,459.346c-3.6,-0 -6.2,-0.55 -7.8,-1.65c-1.5,-1.1 -2.45,-2.5 -2.85,-4.2c-0.4,-1.8 -0.6,-3.7 -0.6,-5.7l0,-82.05c0,-1.9 0.2,-3.65 0.6,-5.25c0.4,-1.7 1.4,-3.1 3,-4.2c1.6,-1.1 4.25,-1.65 7.95,-1.65c2.5,-0 4.4,0.15 5.7,0.45c1.3,0.3 2.25,0.75 2.85,1.35c0.6,0.5 1.25,1.1 1.95,1.8l33.75,45.6l-2.25,-0l33.9,-45.6c0.8,-1 1.6,-1.75 2.4,-2.25c0.8,-0.5 1.8,-0.85 3,-1.05c1.3,-0.2 3.1,-0.3 5.4,-0.3c3.6,-0 6.2,0.55 7.8,1.65c1.6,1.1 2.6,2.55 3,4.35c0.4,1.7 0.6,3.5 0.6,5.4l0,82.05c0,1.9 -0.2,3.7 -0.6,5.4c-0.4,1.7 -1.4,3.1 -3,4.2c-1.6,1.1 -4.25,1.65 -7.95,1.65c-3.6,-0 -6.2,-0.55 -7.8,-1.65c-1.6,-1.1 -2.6,-2.55 -3,-4.35c-0.4,-1.8 -0.6,-3.65 -0.6,-5.55l0,-53.55l-22.35,31.65c-0.4,0.5 -0.95,1.2 -1.65,2.1c-0.7,0.8 -1.7,1.5 -3,2.1c-1.2,0.6 -2.85,0.9 -4.95,0.9c-2.2,-0 -3.95,-0.3 -5.25,-0.9c-1.2,-0.6 -2.15,-1.3 -2.85,-2.1c-0.7,-0.8 -1.3,-1.5 -1.8,-2.1l-22.2,-31.5l0,53.7c0,1.9 -0.2,3.7 -0.6,5.4c-0.4,1.7 -1.4,3.1 -3,4.2c-1.5,1.1 -4.1,1.65 -7.8,1.65Z" style="fill:#54dddc;fill-rule:nonzero;"/><path d="M1523.21,443.446c1.2,2.5 1.85,4.65 1.95,6.45c0.1,1.7 -0.45,3.25 -1.65,4.65c-1.1,1.3 -2.95,2.6 -5.55,3.9c-4,1.9 -7.1,2.45 -9.3,1.65c-2.2,-0.7 -4.25,-3.05 -6.15,-7.05l-29.4,-61.5l-29.25,61.5c-2,3.9 -4.1,6.2 -6.3,6.9c-2.1,0.8 -5.15,0.25 -9.15,-1.65c-2.6,-1.2 -4.5,-2.45 -5.7,-3.75c-1.1,-1.4 -1.6,-3 -1.5,-4.8c0.1,-1.9 0.8,-4.1 2.1,-6.6l39.45,-82.05c1,-2 2.45,-3.6 4.35,-4.8c2,-1.2 4.05,-1.8 6.15,-1.8c1.5,-0 2.9,0.3 4.2,0.9c1.3,0.5 2.45,1.25 3.45,2.25c1.1,1 2,2.2 2.7,3.6l39.6,82.2Zm-75.3,-8.55l9.3,-19.35l31.95,-0l9.3,19.35l-50.55,-0Z" style="fill:#54dddc;fill-rule:nonzero;"/><path d="M1539.41,459.346c-3.7,-0 -6.35,-0.55 -7.95,-1.65c-1.5,-1.1 -2.45,-2.55 -2.85,-4.35c-0.4,-1.8 -0.6,-3.65 -0.6,-5.55l0,-81.9c0,-1.9 0.2,-3.7 0.6,-5.4c0.4,-1.8 1.4,-3.25 3,-4.35c1.6,-1.1 4.25,-1.65 7.95,-1.65l30.75,-0c4.2,-0 8.4,0.75 12.6,2.25c4.3,1.5 8.25,3.85 11.85,7.05c3.7,3.1 6.65,6.95 8.85,11.55c2.3,4.6 3.45,10 3.45,16.2c0,6.1 -1.15,11.45 -3.45,16.05c-2.2,4.6 -5.15,8.45 -8.85,11.55c-3.6,3 -7.55,5.3 -11.85,6.9c-4.3,1.5 -8.55,2.25 -12.75,2.25l-19.2,-0l0,19.65c0,1.9 -0.2,3.75 -0.6,5.55c-0.4,1.7 -1.4,3.1 -3,4.2c-1.6,1.1 -4.25,1.65 -7.95,1.65Zm11.55,-53.85l19.35,-0c2.2,-0 4.35,-0.45 6.45,-1.35c2.2,-1 4,-2.55 5.4,-4.65c1.5,-2.1 2.25,-4.8 2.25,-8.1c0,-2.8 -0.6,-5.25 -1.8,-7.35c-1.2,-2.1 -2.9,-3.75 -5.1,-4.95c-2.1,-1.2 -4.55,-1.8 -7.35,-1.8l-19.2,-0l0,28.2Z" style="fill:#54dddc;fill-rule:nonzero;"/><path d="M1653.82,409.595l9.416,32.267l8.569,-29.993c0.917,-3.138 1.587,-5.272 2.01,-6.4c0.459,-1.164 1.287,-2.257 2.486,-3.28c1.235,-1.058 2.91,-1.587 5.026,-1.587c2.151,0 3.826,0.529 5.025,1.587c1.234,1.023 2.098,2.151 2.592,3.386c0.493,1.199 1.181,3.297 2.063,6.294l8.569,29.993l9.522,-32.267c0.634,-2.328 1.146,-4.003 1.534,-5.025c0.387,-1.058 1.04,-1.975 1.957,-2.751c0.917,-0.811 2.239,-1.217 3.967,-1.217c1.728,0 3.227,0.6 4.496,1.799c1.27,1.199 1.905,2.609 1.905,4.232c-0,1.481 -0.547,3.72 -1.64,6.718l-11.796,34.594c-1.023,2.927 -1.816,5.043 -2.381,6.348c-0.564,1.305 -1.463,2.468 -2.697,3.491c-1.199,1.023 -2.857,1.534 -4.973,1.534c-2.186,0 -3.914,-0.546 -5.184,-1.64c-1.234,-1.093 -2.151,-2.433 -2.75,-4.02c-0.6,-1.587 -1.252,-3.65 -1.957,-6.189l-8.252,-28.141l-7.988,28.141c-1.058,3.915 -2.204,6.877 -3.438,8.887c-1.234,1.975 -3.403,2.962 -6.507,2.962c-1.586,0 -2.944,-0.317 -4.073,-0.952c-1.093,-0.599 -2.01,-1.463 -2.75,-2.592c-0.741,-1.164 -1.393,-2.521 -1.957,-4.073c-0.565,-1.587 -1.006,-2.839 -1.323,-3.756l-11.69,-34.594c-1.164,-3.245 -1.746,-5.484 -1.746,-6.718c0,-1.552 0.617,-2.945 1.852,-4.179c1.234,-1.235 2.75,-1.852 4.549,-1.852c2.398,0 4.02,0.688 4.866,2.063c0.847,1.34 1.746,3.65 2.698,6.93Z" style="fill-rule:nonzero;"/><path d="M1743.55,408.801l-0,41.736c-0,2.892 -0.688,5.078 -2.063,6.559c-1.376,1.482 -3.121,2.222 -5.237,2.222c-2.116,0 -3.844,-0.758 -5.184,-2.274c-1.305,-1.517 -1.957,-3.686 -1.957,-6.507l-0,-41.312c-0,-2.857 0.652,-5.008 1.957,-6.454c1.34,-1.446 3.068,-2.169 5.184,-2.169c2.116,0 3.861,0.723 5.237,2.169c1.375,1.446 2.063,3.456 2.063,6.03Zm-7.142,-14.917c-2.01,0 -3.738,-0.617 -5.184,-1.851c-1.41,-1.234 -2.115,-2.98 -2.115,-5.237c-0,-2.045 0.723,-3.72 2.168,-5.025c1.482,-1.34 3.192,-2.01 5.131,-2.01c1.869,-0 3.527,0.599 4.973,1.798c1.446,1.199 2.169,2.945 2.169,5.237c-0,2.222 -0.706,3.967 -2.116,5.237c-1.411,1.234 -3.086,1.851 -5.026,1.851Z" style="fill-rule:nonzero;"/><path d="M1755.47,401.872l1.587,-0l0,-8.675c0,-2.328 0.053,-4.144 0.159,-5.449c0.141,-1.34 0.494,-2.486 1.058,-3.438c0.564,-0.987 1.375,-1.781 2.433,-2.38c1.058,-0.635 2.239,-0.952 3.544,-0.952c1.834,-0 3.491,0.687 4.973,2.063c0.987,0.916 1.604,2.045 1.851,3.385c0.282,1.305 0.423,3.174 0.423,5.607l0,9.839l5.29,-0c2.045,-0 3.597,0.494 4.655,1.481c1.093,0.952 1.64,2.186 1.64,3.703c-0,1.939 -0.776,3.297 -2.328,4.073c-1.516,0.776 -3.703,1.164 -6.559,1.164l-2.698,-0l0,26.554c0,2.257 0.071,4.003 0.212,5.237c0.176,1.199 0.599,2.186 1.269,2.962c0.706,0.741 1.834,1.111 3.386,1.111c0.846,-0 1.992,-0.141 3.438,-0.423c1.446,-0.318 2.574,-0.476 3.385,-0.476c1.164,-0 2.204,0.476 3.121,1.428c0.952,0.917 1.429,2.063 1.429,3.438c-0,2.328 -1.27,4.109 -3.809,5.343c-2.539,1.234 -6.189,1.851 -10.95,1.851c-4.514,0 -7.934,-0.758 -10.262,-2.274c-2.327,-1.517 -3.861,-3.615 -4.602,-6.295c-0.705,-2.68 -1.058,-6.26 -1.058,-10.738l0,-27.718l-1.904,-0c-2.081,-0 -3.668,-0.494 -4.761,-1.481c-1.093,-0.988 -1.64,-2.24 -1.64,-3.756c0,-1.517 0.565,-2.751 1.693,-3.703c1.164,-0.987 2.839,-1.481 5.025,-1.481Z" style="fill-rule:nonzero;"/><path d="M1803.36,387.907l0,21.423c1.834,-2.116 3.615,-3.791 5.343,-5.025c1.763,-1.234 3.703,-2.151 5.818,-2.75c2.116,-0.635 4.391,-0.953 6.824,-0.953c3.668,0 6.912,0.776 9.733,2.328c2.857,1.551 5.096,3.808 6.718,6.771c1.023,1.728 1.711,3.667 2.063,5.818c0.353,2.116 0.529,4.567 0.529,7.353l0,27.665c0,2.892 -0.67,5.078 -2.01,6.559c-1.305,1.482 -3.05,2.222 -5.237,2.222c-4.761,0 -7.141,-2.927 -7.141,-8.781l0,-24.385c0,-4.62 -0.688,-8.164 -2.063,-10.633c-1.375,-2.503 -3.985,-3.755 -7.829,-3.755c-2.574,-0 -4.901,0.74 -6.982,2.221c-2.045,1.446 -3.579,3.439 -4.602,5.978c-0.776,2.151 -1.164,5.977 -1.164,11.478l0,19.096c0,2.857 -0.652,5.043 -1.957,6.559c-1.27,1.482 -3.05,2.222 -5.343,2.222c-4.76,0 -7.141,-2.927 -7.141,-8.781l0,-62.63c0,-2.927 0.617,-5.113 1.852,-6.559c1.269,-1.481 3.032,-2.222 5.289,-2.222c2.293,0 4.073,0.741 5.343,2.222c1.305,1.481 1.957,3.667 1.957,6.559Z" style="fill-rule:nonzero;"/><path d="M1978.57,443.446c1.2,2.5 1.85,4.65 1.95,6.45c0.1,1.7 -0.45,3.25 -1.65,4.65c-1.1,1.3 -2.95,2.6 -5.55,3.9c-4,1.9 -7.1,2.45 -9.3,1.65c-2.2,-0.7 -4.25,-3.05 -6.15,-7.05l-29.4,-61.5l-29.25,61.5c-2,3.9 -4.1,6.2 -6.3,6.9c-2.1,0.8 -5.15,0.25 -9.15,-1.65c-2.6,-1.2 -4.5,-2.45 -5.7,-3.75c-1.1,-1.4 -1.6,-3 -1.5,-4.8c0.1,-1.9 0.8,-4.1 2.1,-6.6l39.45,-82.05c1,-2 2.45,-3.6 4.35,-4.8c2,-1.2 4.05,-1.8 6.15,-1.8c1.5,-0 2.9,0.3 4.2,0.9c1.3,0.5 2.45,1.25 3.45,2.25c1.1,1 2,2.2 2.7,3.6l39.6,82.2Zm-75.3,-8.55l9.3,-19.35l31.95,-0l9.3,19.35l-50.55,-0Z" style="fill:#ff9292;fill-rule:nonzero;"/><path d="M1995.07,459.346c-3.6,-0 -6.2,-0.55 -7.8,-1.65c-1.6,-1.1 -2.6,-2.55 -3,-4.35c-0.3,-1.8 -0.45,-3.65 -0.45,-5.55l0,-82.05c0,-1.9 0.15,-3.7 0.45,-5.4c0.4,-1.7 1.4,-3.1 3,-4.2c1.6,-1.1 4.25,-1.65 7.95,-1.65l31.2,-0c4.1,-0 8.3,0.75 12.6,2.25c4.3,1.5 8.25,3.8 11.85,6.9c3.6,3.1 6.5,6.95 8.7,11.55c2.2,4.6 3.3,10.05 3.3,16.35c0,4.2 -0.65,8.25 -1.95,12.15c-1.2,3.9 -3.05,7.5 -5.55,10.8c-2.5,3.3 -5.6,6.15 -9.3,8.55c-3.7,2.3 -7.95,3.95 -12.75,4.95l-26.7,-0l0,19.95c0,1.9 -0.2,3.75 -0.6,5.55c-0.4,1.7 -1.4,3.1 -3,4.2c-1.6,1.1 -4.25,1.65 -7.95,1.65Zm63.3,-3c-3.7,2.7 -6.65,3.75 -8.85,3.15c-2.2,-0.6 -4.5,-2.55 -6.9,-5.85l-26.4,-37.8l25.65,-3.3l19.35,27.75c1.7,2.4 2.75,4.45 3.15,6.15c0.5,1.7 0.25,3.3 -0.75,4.8c-0.9,1.5 -2.65,3.2 -5.25,5.1Zm-51.75,-50.85l20.85,-0c1.4,-0 2.85,-0.25 4.35,-0.75c1.5,-0.6 2.85,-1.45 4.05,-2.55c1.2,-1.1 2.2,-2.55 3,-4.35c0.8,-1.8 1.2,-3.95 1.2,-6.45c0,-2.9 -0.6,-5.4 -1.8,-7.5c-1.1,-2.1 -2.7,-3.7 -4.8,-4.8c-2.1,-1.2 -4.55,-1.8 -7.35,-1.8l-19.5,-0l0,28.2Z" style="fill:#ff9292;fill-rule:nonzero;"/></g><path d="M672.251,327.131l1038.96,0" style="fill:none;stroke:#808080;stroke-width:4.17px;"/></svg>