<?xml version="1.0" encoding="UTF-8" standalone="no"?>
<svg
   width="387.47205"
   height="61.722351"
   viewBox="0 0 387.47205 61.722353"
   version="1.1"
   xml:space="preserve"
   style="clip-rule:evenodd;fill-rule:evenodd;stroke-linecap:round;stroke-linejoin:round;stroke-miterlimit:1.5"
   id="svg14867"
   sodipodi:docname="supported_by_TMI.svg"
   inkscape:version="1.2.2 (732a01da63, 2022-12-09)"
   xmlns:inkscape="http://www.inkscape.org/namespaces/inkscape"
   xmlns:sodipodi="http://sodipodi.sourceforge.net/DTD/sodipodi-0.dtd"
   xmlns="http://www.w3.org/2000/svg"
   xmlns:svg="http://www.w3.org/2000/svg"><sodipodi:namedview
     id="namedview99685"
     pagecolor="#ffffff"
     bordercolor="#000000"
     borderopacity="0.25"
     inkscape:showpageshadow="2"
     inkscape:pageopacity="0.0"
     inkscape:pagecheckerboard="0"
     inkscape:deskcolor="#d1d1d1"
     showgrid="false"
     inkscape:zoom="3.902217"
     inkscape:cx="153.11809"
     inkscape:cy="30.879882"
     inkscape:window-width="3761"
     inkscape:window-height="2131"
     inkscape:window-x="70"
     inkscape:window-y="-9"
     inkscape:window-maximized="1"
     inkscape:current-layer="svg14867" /><defs
     id="defs14871"><clipPath
       clipPathUnits="userSpaceOnUse"
       id="clipPath27111"><g
         id="g27115"><path
           d="M 859.67764,1534.3931 H 1419.0483 V 812.50382 H 859.67764 Z"
           id="path27113"
           style="stroke-width:1" /></g></clipPath><clipPath
       clipPathUnits="userSpaceOnUse"
       id="clipPath27117"><g
         id="g27121"><path
           d="M 859.67764,1534.3931 H 1419.0483 V 812.50382 H 859.67764 Z"
           id="path27119"
           style="stroke-width:1" /></g></clipPath><clipPath
       clipPathUnits="userSpaceOnUse"
       id="clipPath27123"><g
         id="g27127"><path
           d="M 859.67764,1534.3931 H 1419.0483 V 812.50382 H 859.67764 Z"
           id="path27125"
           style="stroke-width:1" /></g></clipPath><clipPath
       clipPathUnits="userSpaceOnUse"
       id="clipPath27129"><g
         id="g27133"><path
           d="M 859.67764,1534.3931 H 1419.0483 V 812.50382 H 859.67764 Z"
           id="path27131"
           style="stroke-width:1" /></g></clipPath><clipPath
       clipPathUnits="userSpaceOnUse"
       id="clipPath27237"><g
         id="g27241"><path
           d="M 859.67764,1534.3931 H 1419.0483 V 812.50382 H 859.67764 Z"
           id="path27239"
           style="stroke-width:1" /></g></clipPath><clipPath
       clipPathUnits="userSpaceOnUse"
       id="clipPath27249"><g
         id="g27253"><path
           d="M 859.67764,1534.3931 H 1419.0483 V 812.50382 H 859.67764 Z"
           id="path27251"
           style="stroke-width:1" /></g></clipPath><clipPath
       clipPathUnits="userSpaceOnUse"
       id="clipPath27255"><g
         id="g27259"><path
           d="M 859.67764,1534.3931 H 1419.0483 V 812.50382 H 859.67764 Z"
           id="path27257"
           style="stroke-width:1" /></g></clipPath><clipPath
       clipPathUnits="userSpaceOnUse"
       id="clipPath27261"><g
         id="g27265"><path
           d="M 859.67764,1534.3931 H 1419.0483 V 812.50382 H 859.67764 Z"
           id="path27263"
           style="stroke-width:1" /></g></clipPath><clipPath
       clipPathUnits="userSpaceOnUse"
       id="clipPath27267"><g
         id="g27271"><path
           d="M 859.67764,1534.3931 H 1419.0483 V 812.50382 H 859.67764 Z"
           id="path27269"
           style="stroke-width:1" /></g></clipPath><clipPath
       clipPathUnits="userSpaceOnUse"
       id="clipPath27273"><g
         id="g27277"><path
           d="M 859.67764,1534.3931 H 1419.0483 V 812.50382 H 859.67764 Z"
           id="path27275"
           style="stroke-width:1" /></g></clipPath><clipPath
       clipPathUnits="userSpaceOnUse"
       id="clipPath27279"><g
         id="g27283"><path
           d="M 859.67764,1534.3931 H 1419.0483 V 812.50382 H 859.67764 Z"
           id="path27281"
           style="stroke-width:1" /></g></clipPath><clipPath
       clipPathUnits="userSpaceOnUse"
       id="clipPath27375"><g
         id="g27379"><path
           d="M 859.67764,1534.3931 H 1419.0483 V 812.50382 H 859.67764 Z"
           id="path27377"
           style="stroke-width:1" /></g></clipPath><clipPath
       clipPathUnits="userSpaceOnUse"
       id="clipPath27381"><g
         id="g27385"><path
           d="M 859.67764,1534.3931 H 1419.0483 V 812.50382 H 859.67764 Z"
           id="path27383"
           style="stroke-width:1" /></g></clipPath><clipPath
       clipPathUnits="userSpaceOnUse"
       id="clipPath27387"><g
         id="g27391"><path
           d="M 859.67764,1534.3931 H 1419.0483 V 812.50382 H 859.67764 Z"
           id="path27389"
           style="stroke-width:1" /></g></clipPath><clipPath
       clipPathUnits="userSpaceOnUse"
       id="clipPath27393"><g
         id="g27397"><path
           d="M 859.67764,1534.3931 H 1419.0483 V 812.50382 H 859.67764 Z"
           id="path27395"
           style="stroke-width:1" /></g></clipPath><clipPath
       clipPathUnits="userSpaceOnUse"
       id="clipPath27399"><g
         id="g27403"><path
           d="M 859.67764,1534.3931 H 1419.0483 V 812.50382 H 859.67764 Z"
           id="path27401"
           style="stroke-width:1" /></g></clipPath><clipPath
       clipPathUnits="userSpaceOnUse"
       id="clipPath27405"><g
         id="g27409"><path
           d="M 859.67764,1534.3931 H 1419.0483 V 812.50382 H 859.67764 Z"
           id="path27407"
           style="stroke-width:1" /></g></clipPath><clipPath
       clipPathUnits="userSpaceOnUse"
       id="clipPath27411"><g
         id="g27415"><path
           d="M 859.67764,1534.3931 H 1419.0483 V 812.50382 H 859.67764 Z"
           id="path27413"
           style="stroke-width:1" /></g></clipPath><clipPath
       clipPathUnits="userSpaceOnUse"
       id="clipPath27447"><g
         id="g27451"><path
           d="M 859.67764,1534.3931 H 1419.0483 V 812.50382 H 859.67764 Z"
           id="path27449"
           style="stroke-width:1" /></g></clipPath><clipPath
       clipPathUnits="userSpaceOnUse"
       id="clipPath27453"><g
         id="g27457"><path
           d="M 859.67764,1534.3931 H 1419.0483 V 812.50382 H 859.67764 Z"
           id="path27455"
           style="stroke-width:1" /></g></clipPath><clipPath
       clipPathUnits="userSpaceOnUse"
       id="clipPath27465"><g
         id="g27469"><path
           d="M 859.67764,1534.3931 H 1419.0483 V 812.50382 H 859.67764 Z"
           id="path27467"
           style="stroke-width:1" /></g></clipPath><clipPath
       clipPathUnits="userSpaceOnUse"
       id="clipPath27471"><g
         id="g27475"><path
           d="M 859.67764,1534.3931 H 1419.0483 V 812.50382 H 859.67764 Z"
           id="path27473"
           style="stroke-width:1" /></g></clipPath><clipPath
       clipPathUnits="userSpaceOnUse"
       id="clipPath27477"><g
         id="g27481"><path
           d="M 859.67764,1534.3931 H 1419.0483 V 812.50382 H 859.67764 Z"
           id="path27479"
           style="stroke-width:1" /></g></clipPath><clipPath
       clipPathUnits="userSpaceOnUse"
       id="clipPath27483"><g
         id="g27487"><path
           d="M 859.67764,1534.3931 H 1419.0483 V 812.50382 H 859.67764 Z"
           id="path27485"
           style="stroke-width:1" /></g></clipPath><clipPath
       clipPathUnits="userSpaceOnUse"
       id="clipPath27489"><g
         id="g27493"><path
           d="M 859.67764,1534.3931 H 1419.0483 V 812.50382 H 859.67764 Z"
           id="path27491"
           style="stroke-width:1" /></g></clipPath><clipPath
       clipPathUnits="userSpaceOnUse"
       id="clipPath49707"><g
         id="g49713"><g
           id="g49711"
           style="stroke-width:0.49806"
           transform="matrix(2.0077845,0,0,2.0077845,-675.62361,-1318.6223)"><path
             d="M 859.67764,1534.3931 H 1419.0483 V 812.50382 H 859.67764 Z"
             id="path49709"
             style="stroke-width:0.49806" /></g></g></clipPath><clipPath
       clipPathUnits="userSpaceOnUse"
       id="clipPath49722"><g
         id="g49728"><g
           id="g49726"
           style="stroke-width:0.49806"
           transform="matrix(2.0077845,0,0,2.0077845,-675.62363,-1318.6223)"><path
             d="M 859.67764,1534.3931 H 1419.0483 V 812.50382 H 859.67764 Z"
             id="path49724"
             style="stroke-width:0.49806" /></g></g></clipPath><clipPath
       clipPathUnits="userSpaceOnUse"
       id="clipPath49737"><g
         id="g49743"><g
           id="g49741"
           style="stroke-width:0.49806"
           transform="matrix(2.0077845,0,0,2.0077845,-675.62365,-1318.6223)"><path
             d="M 859.67764,1534.3931 H 1419.0483 V 812.50382 H 859.67764 Z"
             id="path49739"
             style="stroke-width:0.49806" /></g></g></clipPath><clipPath
       clipPathUnits="userSpaceOnUse"
       id="clipPath49752"><g
         id="g49758"><g
           id="g49756"
           style="stroke-width:0.49806"
           transform="matrix(2.0077845,0,0,2.0077845,-675.62368,-1318.6223)"><path
             d="M 859.67764,1534.3931 H 1419.0483 V 812.50382 H 859.67764 Z"
             id="path49754"
             style="stroke-width:0.49806" /></g></g></clipPath><clipPath
       clipPathUnits="userSpaceOnUse"
       id="clipPath49767"><g
         id="g49773"><g
           id="g49771"
           style="stroke-width:0.49806"
           transform="matrix(2.0077845,0,0,2.0077845,-675.62364,-1318.6223)"><path
             d="M 859.67764,1534.3931 H 1419.0483 V 812.50382 H 859.67764 Z"
             id="path49769"
             style="stroke-width:0.49806" /></g></g></clipPath><clipPath
       clipPathUnits="userSpaceOnUse"
       id="clipPath49782"><g
         id="g49788"><g
           id="g49786"
           style="stroke-width:0.49806"
           transform="matrix(2.0077845,0,0,2.0077845,-675.62362,-1318.6223)"><path
             d="M 859.67764,1534.3931 H 1419.0483 V 812.50382 H 859.67764 Z"
             id="path49784"
             style="stroke-width:0.49806" /></g></g></clipPath><clipPath
       clipPathUnits="userSpaceOnUse"
       id="clipPath49797"><g
         id="g49803"><g
           id="g49801"
           style="stroke-width:0.49806"
           transform="matrix(2.0077845,0,0,2.0077845,-675.62363,-1318.6223)"><path
             d="M 859.67764,1534.3931 H 1419.0483 V 812.50382 H 859.67764 Z"
             id="path49799"
             style="stroke-width:0.49806" /></g></g></clipPath><clipPath
       clipPathUnits="userSpaceOnUse"
       id="clipPath49812"><g
         id="g49818"><g
           id="g49816"
           style="stroke-width:0.49806"
           transform="matrix(2.0077845,0,0,2.0077845,-675.62361,-1318.6223)"><path
             d="M 859.67764,1534.3931 H 1419.0483 V 812.50382 H 859.67764 Z"
             id="path49814"
             style="stroke-width:0.49806" /></g></g></clipPath><clipPath
       clipPathUnits="userSpaceOnUse"
       id="clipPath49827"><g
         id="g49833"><g
           id="g49831"
           style="stroke-width:0.49806"
           transform="matrix(2.0077845,0,0,2.0077845,-675.6236,-1318.6223)"><path
             d="M 859.67764,1534.3931 H 1419.0483 V 812.50382 H 859.67764 Z"
             id="path49829"
             style="stroke-width:0.49806" /></g></g></clipPath><clipPath
       clipPathUnits="userSpaceOnUse"
       id="clipPath49842"><g
         id="g49848"><g
           id="g49846"
           style="stroke-width:0.49806"
           transform="matrix(2.0077845,0,0,2.0077845,-675.62368,-1318.6223)"><path
             d="M 859.67764,1534.3931 H 1419.0483 V 812.50382 H 859.67764 Z"
             id="path49844"
             style="stroke-width:0.49806" /></g></g></clipPath><clipPath
       clipPathUnits="userSpaceOnUse"
       id="clipPath49857"><g
         id="g49863"><g
           id="g49861"
           style="stroke-width:0.49806"
           transform="matrix(2.0077845,0,0,2.0077845,-675.62365,-1318.6223)"><path
             d="M 859.67764,1534.3931 H 1419.0483 V 812.50382 H 859.67764 Z"
             id="path49859"
             style="stroke-width:0.49806" /></g></g></clipPath><clipPath
       clipPathUnits="userSpaceOnUse"
       id="clipPath49872"><g
         id="g49878"><g
           id="g49876"
           style="stroke-width:0.49806"
           transform="matrix(2.0077845,0,0,2.0077845,-675.62364,-1318.6223)"><path
             d="M 859.67764,1534.3931 H 1419.0483 V 812.50382 H 859.67764 Z"
             id="path49874"
             style="stroke-width:0.49806" /></g></g></clipPath><clipPath
       clipPathUnits="userSpaceOnUse"
       id="clipPath49887"><g
         id="g49893"><g
           id="g49891"
           style="stroke-width:0.49806"
           transform="matrix(2.0077845,0,0,2.0077845,-675.6237,-1318.6223)"><path
             d="M 859.67764,1534.3931 H 1419.0483 V 812.50382 H 859.67764 Z"
             id="path49889"
             style="stroke-width:0.49806" /></g></g></clipPath><clipPath
       clipPathUnits="userSpaceOnUse"
       id="clipPath49902"><g
         id="g49908"><g
           id="g49906"
           style="stroke-width:0.49806"
           transform="matrix(2.0077845,0,0,2.0077845,-675.62364,-1318.6223)"><path
             d="M 859.67764,1534.3931 H 1419.0483 V 812.50382 H 859.67764 Z"
             id="path49904"
             style="stroke-width:0.49806" /></g></g></clipPath><clipPath
       clipPathUnits="userSpaceOnUse"
       id="clipPath49917"><g
         id="g49923"><g
           id="g49921"
           style="stroke-width:0.49806"
           transform="matrix(2.0077845,0,0,2.0077845,-675.6236,-1318.6223)"><path
             d="M 859.67764,1534.3931 H 1419.0483 V 812.50382 H 859.67764 Z"
             id="path49919"
             style="stroke-width:0.49806" /></g></g></clipPath><clipPath
       clipPathUnits="userSpaceOnUse"
       id="clipPath49932"><g
         id="g49938"><g
           id="g49936"
           style="stroke-width:0.49806"
           transform="matrix(2.0077845,0,0,2.0077845,-675.62371,-1318.6223)"><path
             d="M 859.67764,1534.3931 H 1419.0483 V 812.50382 H 859.67764 Z"
             id="path49934"
             style="stroke-width:0.49806" /></g></g></clipPath><clipPath
       clipPathUnits="userSpaceOnUse"
       id="clipPath49947"><g
         id="g49953"><g
           id="g49951"
           style="stroke-width:0.49806"
           transform="matrix(2.0077845,0,0,2.0077845,-675.62368,-1318.6223)"><path
             d="M 859.67764,1534.3931 H 1419.0483 V 812.50382 H 859.67764 Z"
             id="path49949"
             style="stroke-width:0.49806" /></g></g></clipPath><clipPath
       clipPathUnits="userSpaceOnUse"
       id="clipPath49962"><g
         id="g49968"><g
           id="g49966"
           style="stroke-width:0.49806"
           transform="matrix(2.0077845,0,0,2.0077845,-675.62364,-1318.6223)"><path
             d="M 859.67764,1534.3931 H 1419.0483 V 812.50382 H 859.67764 Z"
             id="path49964"
             style="stroke-width:0.49806" /></g></g></clipPath><clipPath
       clipPathUnits="userSpaceOnUse"
       id="clipPath49977"><g
         id="g49983"><g
           id="g49981"
           style="stroke-width:0.49806"
           transform="matrix(2.0077845,0,0,2.0077845,-675.62367,-1318.6223)"><path
             d="M 859.67764,1534.3931 H 1419.0483 V 812.50382 H 859.67764 Z"
             id="path49979"
             style="stroke-width:0.49806" /></g></g></clipPath><clipPath
       clipPathUnits="userSpaceOnUse"
       id="clipPath49992"><g
         id="g49998"><g
           id="g49996"
           style="stroke-width:0.49806"
           transform="matrix(2.0077845,0,0,2.0077845,-675.6237,-1318.6223)"><path
             d="M 859.67764,1534.3931 H 1419.0483 V 812.50382 H 859.67764 Z"
             id="path49994"
             style="stroke-width:0.49806" /></g></g></clipPath><clipPath
       clipPathUnits="userSpaceOnUse"
       id="clipPath50007"><g
         id="g50013"><g
           id="g50011"
           style="stroke-width:0.49806"
           transform="matrix(2.0077845,0,0,2.0077845,-675.62367,-1318.6223)"><path
             d="M 859.67764,1534.3931 H 1419.0483 V 812.50382 H 859.67764 Z"
             id="path50009"
             style="stroke-width:0.49806" /></g></g></clipPath><clipPath
       clipPathUnits="userSpaceOnUse"
       id="clipPath50022"><g
         id="g50028"><g
           id="g50026"
           style="stroke-width:0.49806"
           transform="matrix(2.0077845,0,0,2.0077845,-675.6237,-1318.6223)"><path
             d="M 859.67764,1534.3931 H 1419.0483 V 812.50382 H 859.67764 Z"
             id="path50024"
             style="stroke-width:0.49806" /></g></g></clipPath><clipPath
       clipPathUnits="userSpaceOnUse"
       id="clipPath50037"><g
         id="g50043"><g
           id="g50041"
           style="stroke-width:0.49806"
           transform="matrix(2.0077845,0,0,2.0077845,-675.6236,-1318.6223)"><path
             d="M 859.67764,1534.3931 H 1419.0483 V 812.50382 H 859.67764 Z"
             id="path50039"
             style="stroke-width:0.49806" /></g></g></clipPath><clipPath
       clipPathUnits="userSpaceOnUse"
       id="clipPath50052"><g
         id="g50058"><g
           id="g50056"
           style="stroke-width:0.49806"
           transform="matrix(2.0077845,0,0,2.0077845,-675.62367,-1318.6223)"><path
             d="M 859.67764,1534.3931 H 1419.0483 V 812.50382 H 859.67764 Z"
             id="path50054"
             style="stroke-width:0.49806" /></g></g></clipPath><clipPath
       clipPathUnits="userSpaceOnUse"
       id="clipPath50067"><g
         id="g50073"><g
           id="g50071"
           style="stroke-width:0.49806"
           transform="matrix(2.0077845,0,0,2.0077845,-675.62363,-1318.6223)"><path
             d="M 859.67764,1534.3931 H 1419.0483 V 812.50382 H 859.67764 Z"
             id="path50069"
             style="stroke-width:0.49806" /></g></g></clipPath><clipPath
       clipPathUnits="userSpaceOnUse"
       id="clipPath54747"><g
         id="g54753"><g
           id="g54751"
           style="stroke-width:0.49806"
           transform="matrix(2.0077845,0,0,2.0077845,-675.62364,-1318.6223)"><path
             d="M 859.67764,1534.3931 H 1419.0483 V 812.50382 H 859.67764 Z"
             id="path54749"
             style="stroke-width:0.49806" /></g></g></clipPath><clipPath
       clipPathUnits="userSpaceOnUse"
       id="clipPath54762"><g
         id="g54768"><g
           id="g54766"
           style="stroke-width:0.49806"
           transform="matrix(2.0077845,0,0,2.0077845,-675.62366,-1318.6223)"><path
             d="M 859.67764,1534.3931 H 1419.0483 V 812.50382 H 859.67764 Z"
             id="path54764"
             style="stroke-width:0.49806" /></g></g></clipPath><clipPath
       clipPathUnits="userSpaceOnUse"
       id="clipPath54777"><g
         id="g54783"><g
           id="g54781"
           style="stroke-width:0.49806"
           transform="matrix(2.0077845,0,0,2.0077845,-675.62361,-1318.6223)"><path
             d="M 859.67764,1534.3931 H 1419.0483 V 812.50382 H 859.67764 Z"
             id="path54779"
             style="stroke-width:0.49806" /></g></g></clipPath><clipPath
       clipPathUnits="userSpaceOnUse"
       id="clipPath54792"><g
         id="g54798"><g
           id="g54796"
           style="stroke-width:0.49806"
           transform="matrix(2.0077845,0,0,2.0077845,-675.62361,-1318.6223)"><path
             d="M 859.67764,1534.3931 H 1419.0483 V 812.50382 H 859.67764 Z"
             id="path54794"
             style="stroke-width:0.49806" /></g></g></clipPath><clipPath
       clipPathUnits="userSpaceOnUse"
       id="clipPath54807"><g
         id="g54813"><g
           id="g54811"
           style="stroke-width:0.49806"
           transform="matrix(2.0077845,0,0,2.0077845,-675.62367,-1318.6223)"><path
             d="M 859.67764,1534.3931 H 1419.0483 V 812.50382 H 859.67764 Z"
             id="path54809"
             style="stroke-width:0.49806" /></g></g></clipPath><clipPath
       clipPathUnits="userSpaceOnUse"
       id="clipPath54822"><g
         id="g54828"><g
           id="g54826"
           style="stroke-width:0.49806"
           transform="matrix(2.0077845,0,0,2.0077845,-675.62364,-1318.6223)"><path
             d="M 859.67764,1534.3931 H 1419.0483 V 812.50382 H 859.67764 Z"
             id="path54824"
             style="stroke-width:0.49806" /></g></g></clipPath><clipPath
       clipPathUnits="userSpaceOnUse"
       id="clipPath54837"><g
         id="g54843"><g
           id="g54841"
           style="stroke-width:0.49806"
           transform="matrix(2.0077845,0,0,2.0077845,-675.62363,-1318.6223)"><path
             d="M 859.67764,1534.3931 H 1419.0483 V 812.50382 H 859.67764 Z"
             id="path54839"
             style="stroke-width:0.49806" /></g></g></clipPath><clipPath
       clipPathUnits="userSpaceOnUse"
       id="clipPath54852"><g
         id="g54858"><g
           id="g54856"
           style="stroke-width:0.49806"
           transform="matrix(2.0077845,0,0,2.0077845,-675.62366,-1318.6223)"><path
             d="M 859.67764,1534.3931 H 1419.0483 V 812.50382 H 859.67764 Z"
             id="path54854"
             style="stroke-width:0.49806" /></g></g></clipPath><clipPath
       clipPathUnits="userSpaceOnUse"
       id="clipPath54867"><g
         id="g54873"><g
           id="g54871"
           style="stroke-width:0.49806"
           transform="matrix(2.0077845,0,0,2.0077845,-675.62362,-1318.6223)"><path
             d="M 859.67764,1534.3931 H 1419.0483 V 812.50382 H 859.67764 Z"
             id="path54869"
             style="stroke-width:0.49806" /></g></g></clipPath><clipPath
       clipPathUnits="userSpaceOnUse"
       id="clipPath54882"><g
         id="g54888"><g
           id="g54886"
           style="stroke-width:0.49806"
           transform="matrix(2.0077845,0,0,2.0077845,-675.62367,-1318.6223)"><path
             d="M 859.67764,1534.3931 H 1419.0483 V 812.50382 H 859.67764 Z"
             id="path54884"
             style="stroke-width:0.49806" /></g></g></clipPath><clipPath
       clipPathUnits="userSpaceOnUse"
       id="clipPath54897"><g
         id="g54903"><g
           id="g54901"
           style="stroke-width:0.49806"
           transform="matrix(2.0077845,0,0,2.0077845,-675.62361,-1318.6223)"><path
             d="M 859.67764,1534.3931 H 1419.0483 V 812.50382 H 859.67764 Z"
             id="path54899"
             style="stroke-width:0.49806" /></g></g></clipPath><clipPath
       clipPathUnits="userSpaceOnUse"
       id="clipPath54912"><g
         id="g54918"><g
           id="g54916"
           style="stroke-width:0.49806"
           transform="matrix(2.0077845,0,0,2.0077845,-675.62364,-1318.6223)"><path
             d="M 859.67764,1534.3931 H 1419.0483 V 812.50382 H 859.67764 Z"
             id="path54914"
             style="stroke-width:0.49806" /></g></g></clipPath><clipPath
       clipPathUnits="userSpaceOnUse"
       id="clipPath54927"><g
         id="g54933"><g
           id="g54931"
           style="stroke-width:0.49806"
           transform="matrix(2.0077845,0,0,2.0077845,-675.62366,-1318.6223)"><path
             d="M 859.67764,1534.3931 H 1419.0483 V 812.50382 H 859.67764 Z"
             id="path54929"
             style="stroke-width:0.49806" /></g></g></clipPath><clipPath
       clipPathUnits="userSpaceOnUse"
       id="clipPath54942"><g
         id="g54948"><g
           id="g54946"
           style="stroke-width:0.49806"
           transform="matrix(2.0077845,0,0,2.0077845,-675.62368,-1318.6223)"><path
             d="M 859.67764,1534.3931 H 1419.0483 V 812.50382 H 859.67764 Z"
             id="path54944"
             style="stroke-width:0.49806" /></g></g></clipPath><clipPath
       clipPathUnits="userSpaceOnUse"
       id="clipPath54957"><g
         id="g54963"><g
           id="g54961"
           style="stroke-width:0.49806"
           transform="matrix(2.0077845,0,0,2.0077845,-675.6236,-1318.6223)"><path
             d="M 859.67764,1534.3931 H 1419.0483 V 812.50382 H 859.67764 Z"
             id="path54959"
             style="stroke-width:0.49806" /></g></g></clipPath><clipPath
       clipPathUnits="userSpaceOnUse"
       id="clipPath54972"><g
         id="g54978"><g
           id="g54976"
           style="stroke-width:0.49806"
           transform="matrix(2.0077845,0,0,2.0077845,-675.62362,-1318.6223)"><path
             d="M 859.67764,1534.3931 H 1419.0483 V 812.50382 H 859.67764 Z"
             id="path54974"
             style="stroke-width:0.49806" /></g></g></clipPath><clipPath
       clipPathUnits="userSpaceOnUse"
       id="clipPath54987"><g
         id="g54993"><g
           id="g54991"
           style="stroke-width:0.49806"
           transform="matrix(2.0077845,0,0,2.0077845,-675.62361,-1318.6223)"><path
             d="M 859.67764,1534.3931 H 1419.0483 V 812.50382 H 859.67764 Z"
             id="path54989"
             style="stroke-width:0.49806" /></g></g></clipPath><clipPath
       clipPathUnits="userSpaceOnUse"
       id="clipPath55002"><g
         id="g55008"><g
           id="g55006"
           style="stroke-width:0.49806"
           transform="matrix(2.0077845,0,0,2.0077845,-675.62368,-1318.6223)"><path
             d="M 859.67764,1534.3931 H 1419.0483 V 812.50382 H 859.67764 Z"
             id="path55004"
             style="stroke-width:0.49806" /></g></g></clipPath><clipPath
       clipPathUnits="userSpaceOnUse"
       id="clipPath55017"><g
         id="g55023"><g
           id="g55021"
           style="stroke-width:0.49806"
           transform="matrix(2.0077845,0,0,2.0077845,-675.62366,-1318.6223)"><path
             d="M 859.67764,1534.3931 H 1419.0483 V 812.50382 H 859.67764 Z"
             id="path55019"
             style="stroke-width:0.49806" /></g></g></clipPath><clipPath
       clipPathUnits="userSpaceOnUse"
       id="clipPath55032"><g
         id="g55038"><g
           id="g55036"
           style="stroke-width:0.49806"
           transform="matrix(2.0077845,0,0,2.0077845,-675.62364,-1318.6223)"><path
             d="M 859.67764,1534.3931 H 1419.0483 V 812.50382 H 859.67764 Z"
             id="path55034"
             style="stroke-width:0.49806" /></g></g></clipPath><clipPath
       clipPathUnits="userSpaceOnUse"
       id="clipPath55047"><g
         id="g55053"><g
           id="g55051"
           style="stroke-width:0.49806"
           transform="matrix(2.0077845,0,0,2.0077845,-675.62368,-1318.6223)"><path
             d="M 859.67764,1534.3931 H 1419.0483 V 812.50382 H 859.67764 Z"
             id="path55049"
             style="stroke-width:0.49806" /></g></g></clipPath><clipPath
       clipPathUnits="userSpaceOnUse"
       id="clipPath55062"><g
         id="g55068"><g
           id="g55066"
           style="stroke-width:0.49806"
           transform="matrix(2.0077845,0,0,2.0077845,-675.62369,-1318.6223)"><path
             d="M 859.67764,1534.3931 H 1419.0483 V 812.50382 H 859.67764 Z"
             id="path55064"
             style="stroke-width:0.49806" /></g></g></clipPath><clipPath
       clipPathUnits="userSpaceOnUse"
       id="clipPath55077"><g
         id="g55083"><g
           id="g55081"
           style="stroke-width:0.49806"
           transform="matrix(2.0077845,0,0,2.0077845,-675.62368,-1318.6223)"><path
             d="M 859.67764,1534.3931 H 1419.0483 V 812.50382 H 859.67764 Z"
             id="path55079"
             style="stroke-width:0.49806" /></g></g></clipPath><clipPath
       clipPathUnits="userSpaceOnUse"
       id="clipPath55092"><g
         id="g55098"><g
           id="g55096"
           style="stroke-width:0.49806"
           transform="matrix(2.0077845,0,0,2.0077845,-675.6236,-1318.6223)"><path
             d="M 859.67764,1534.3931 H 1419.0483 V 812.50382 H 859.67764 Z"
             id="path55094"
             style="stroke-width:0.49806" /></g></g></clipPath><clipPath
       clipPathUnits="userSpaceOnUse"
       id="clipPath55107"><g
         id="g55113"><g
           id="g55111"
           style="stroke-width:0.49806"
           transform="matrix(2.0077845,0,0,2.0077845,-675.62365,-1318.6223)"><path
             d="M 859.67764,1534.3931 H 1419.0483 V 812.50382 H 859.67764 Z"
             id="path55109"
             style="stroke-width:0.49806" /></g></g></clipPath><clipPath
       clipPathUnits="userSpaceOnUse"
       id="clipPath55122"><g
         id="g55128"><g
           id="g55126"
           style="stroke-width:0.49806"
           transform="matrix(2.0077845,0,0,2.0077845,-675.62363,-1318.6223)"><path
             d="M 859.67764,1534.3931 H 1419.0483 V 812.50382 H 859.67764 Z"
             id="path55124"
             style="stroke-width:0.49806" /></g></g></clipPath><clipPath
       clipPathUnits="userSpaceOnUse"
       id="clipPath55137"><g
         id="g55143"><g
           id="g55141"
           style="stroke-width:0.49806"
           transform="matrix(2.0077845,0,0,2.0077845,-675.62363,-1318.6223)"><path
             d="M 859.67764,1534.3931 H 1419.0483 V 812.50382 H 859.67764 Z"
             id="path55139"
             style="stroke-width:0.49806" /></g></g></clipPath><clipPath
       clipPathUnits="userSpaceOnUse"
       id="clipPath55152"><g
         id="g55158"><g
           id="g55156"
           style="stroke-width:0.49806"
           transform="matrix(2.0077845,0,0,2.0077845,-675.62363,-1318.6223)"><path
             d="M 859.67764,1534.3931 H 1419.0483 V 812.50382 H 859.67764 Z"
             id="path55154"
             style="stroke-width:0.49806" /></g></g></clipPath><clipPath
       clipPathUnits="userSpaceOnUse"
       id="clipPath55167"><g
         id="g55173"><g
           id="g55171"
           style="stroke-width:0.49806"
           transform="matrix(2.0077845,0,0,2.0077845,-675.6236,-1318.6223)"><path
             d="M 859.67764,1534.3931 H 1419.0483 V 812.50382 H 859.67764 Z"
             id="path55169"
             style="stroke-width:0.49806" /></g></g></clipPath><clipPath
       clipPathUnits="userSpaceOnUse"
       id="clipPath55182"><g
         id="g55188"><g
           id="g55186"
           style="stroke-width:0.49806"
           transform="matrix(2.0077845,0,0,2.0077845,-675.62363,-1318.6223)"><path
             d="M 859.67764,1534.3931 H 1419.0483 V 812.50382 H 859.67764 Z"
             id="path55184"
             style="stroke-width:0.49806" /></g></g></clipPath><clipPath
       clipPathUnits="userSpaceOnUse"
       id="clipPath55197"><g
         id="g55203"><g
           id="g55201"
           style="stroke-width:0.49806"
           transform="matrix(2.0077845,0,0,2.0077845,-675.62365,-1318.6223)"><path
             d="M 859.67764,1534.3931 H 1419.0483 V 812.50382 H 859.67764 Z"
             id="path55199"
             style="stroke-width:0.49806" /></g></g></clipPath><clipPath
       clipPathUnits="userSpaceOnUse"
       id="clipPath55212"><g
         id="g55218"><g
           id="g55216"
           style="stroke-width:0.49806"
           transform="matrix(2.0077845,0,0,2.0077845,-675.62365,-1318.6223)"><path
             d="M 859.67764,1534.3931 H 1419.0483 V 812.50382 H 859.67764 Z"
             id="path55214"
             style="stroke-width:0.49806" /></g></g></clipPath><clipPath
       clipPathUnits="userSpaceOnUse"
       id="clipPath55227"><g
         id="g55233"><g
           id="g55231"
           style="stroke-width:0.49806"
           transform="matrix(2.0077845,0,0,2.0077845,-675.62365,-1318.6223)"><path
             d="M 859.67764,1534.3931 H 1419.0483 V 812.50382 H 859.67764 Z"
             id="path55229"
             style="stroke-width:0.49806" /></g></g></clipPath><clipPath
       clipPathUnits="userSpaceOnUse"
       id="clipPath55242"><g
         id="g55248"><g
           id="g55246"
           style="stroke-width:0.49806"
           transform="matrix(2.0077845,0,0,2.0077845,-675.62362,-1318.6223)"><path
             d="M 859.67764,1534.3931 H 1419.0483 V 812.50382 H 859.67764 Z"
             id="path55244"
             style="stroke-width:0.49806" /></g></g></clipPath><clipPath
       clipPathUnits="userSpaceOnUse"
       id="clipPath55257"><g
         id="g55263"><g
           id="g55261"
           style="stroke-width:0.49806"
           transform="matrix(2.0077845,0,0,2.0077845,-675.62362,-1318.6223)"><path
             d="M 859.67764,1534.3931 H 1419.0483 V 812.50382 H 859.67764 Z"
             id="path55259"
             style="stroke-width:0.49806" /></g></g></clipPath><clipPath
       clipPathUnits="userSpaceOnUse"
       id="clipPath55272"><g
         id="g55278"><g
           id="g55276"
           style="stroke-width:0.49806"
           transform="matrix(2.0077845,0,0,2.0077845,-675.62363,-1318.6223)"><path
             d="M 859.67764,1534.3931 H 1419.0483 V 812.50382 H 859.67764 Z"
             id="path55274"
             style="stroke-width:0.49806" /></g></g></clipPath><clipPath
       clipPathUnits="userSpaceOnUse"
       id="clipPath55287"><g
         id="g55293"><g
           id="g55291"
           style="stroke-width:0.49806"
           transform="matrix(2.0077845,0,0,2.0077845,-675.62367,-1318.6223)"><path
             d="M 859.67764,1534.3931 H 1419.0483 V 812.50382 H 859.67764 Z"
             id="path55289"
             style="stroke-width:0.49806" /></g></g></clipPath><clipPath
       clipPathUnits="userSpaceOnUse"
       id="clipPath55302"><g
         id="g55308"><g
           id="g55306"
           style="stroke-width:0.49806"
           transform="matrix(2.0077845,0,0,2.0077845,-675.6237,-1318.6223)"><path
             d="M 859.67764,1534.3931 H 1419.0483 V 812.50382 H 859.67764 Z"
             id="path55304"
             style="stroke-width:0.49806" /></g></g></clipPath><clipPath
       clipPathUnits="userSpaceOnUse"
       id="clipPath55317"><g
         id="g55323"><g
           id="g55321"
           style="stroke-width:0.49806"
           transform="matrix(2.0077845,0,0,2.0077845,-675.62362,-1318.6223)"><path
             d="M 859.67764,1534.3931 H 1419.0483 V 812.50382 H 859.67764 Z"
             id="path55319"
             style="stroke-width:0.49806" /></g></g></clipPath><clipPath
       clipPathUnits="userSpaceOnUse"
       id="clipPath55332"><g
         id="g55338"><g
           id="g55336"
           style="stroke-width:0.49806"
           transform="matrix(2.0077845,0,0,2.0077845,-675.62365,-1318.6223)"><path
             d="M 859.67764,1534.3931 H 1419.0483 V 812.50382 H 859.67764 Z"
             id="path55334"
             style="stroke-width:0.49806" /></g></g></clipPath><clipPath
       clipPathUnits="userSpaceOnUse"
       id="clipPath55347"><g
         id="g55353"><g
           id="g55351"
           style="stroke-width:0.49806"
           transform="matrix(2.0077845,0,0,2.0077845,-675.6236,-1318.6223)"><path
             d="M 859.67764,1534.3931 H 1419.0483 V 812.50382 H 859.67764 Z"
             id="path55349"
             style="stroke-width:0.49806" /></g></g></clipPath><clipPath
       clipPathUnits="userSpaceOnUse"
       id="clipPath55362"><g
         id="g55368"><g
           id="g55366"
           style="stroke-width:0.49806"
           transform="matrix(2.0077845,0,0,2.0077845,-675.62367,-1318.6223)"><path
             d="M 859.67764,1534.3931 H 1419.0483 V 812.50382 H 859.67764 Z"
             id="path55364"
             style="stroke-width:0.49806" /></g></g></clipPath></defs><path
     d="m 1309.8753,755.8612 h -33.0508 c 8.5558,-4.55901 18.1316,-7.44486 28.3017,-8.23192 l 4.7491,8.23192"
     style="fill:#f39700;fill-opacity:1;fill-rule:nonzero;stroke:none;stroke-width:2.45892"
     id="path19295"
     clip-path="url(#clipPath49722)"
     transform="matrix(0.54224218,0,0,0.54224218,-680.34389,-397.93425)" /><path
     d="m 1315.0112,764.75408 h -16.7101 c -13.2568,0 -26.2003,1.33585 -38.7021,3.88439 -1.7267,1.73205 -3.3704,3.55244 -4.9124,5.45047 h 15.8883 9.5009 10.2718 10.7778 19.2747 l -5.3889,-9.33486"
     style="fill:#facd88;fill-opacity:1;fill-rule:nonzero;stroke:none;stroke-width:2.45892"
     id="path19299"
     clip-path="url(#clipPath49962)"
     transform="matrix(0.54224218,0,0,0.54224218,-680.34389,-397.93425)" /><path
     d="m 1309.8753,755.8612 v 0 h -5.3434 c -11.3801,0 -22.5006,1.12704 -33.2462,3.2767 -2.6208,1.71064 -5.1212,3.58725 -7.4877,5.61645 h 51.2119 l -2.4576,-4.26186 -2.677,-4.63129"
     style="fill:#f8b756;fill-opacity:1;fill-rule:nonzero;stroke:none;stroke-width:2.45892"
     id="path19303"
     clip-path="url(#clipPath50067)"
     transform="matrix(0.54224218,0,0,0.54224218,-680.34389,-397.93425)" /><path
     d="m 1280.0763,774.08807 -16.5254,28.62565 c 0.3319,-9.68555 2.6181,-19.42464 7.0246,-28.62565 h 9.5008"
     style="fill:#15ae68;fill-opacity:1;fill-rule:nonzero;stroke:none;stroke-width:2.45892"
     id="path19307"
     clip-path="url(#clipPath49797)"
     transform="matrix(0.54224218,0,0,0.54224218,-680.34389,-397.93425)" /><path
     d="m 1301.1254,774.08807 h -10.7778 l -8.355,14.47211 c -6.6284,11.47917 -11.945,23.3599 -15.9874,35.46283 0.6372,2.36115 1.3894,4.69286 2.2621,6.98173 l 7.9455,-13.76537 2.0105,-3.47748 22.9021,-39.67382"
     style="fill:#abd7b2;fill-opacity:1;fill-rule:nonzero;stroke:none;stroke-width:2.45892"
     id="path19311"
     clip-path="url(#clipPath49827)"
     transform="matrix(0.54224218,0,0,0.54224218,-680.34389,-397.93425)" /><path
     d="m 1290.3465,774.08807 h -10.2691 l -2.6717,4.62861 c -5.6914,9.85689 -10.2692,20.0484 -13.7868,30.43266 0.1767,3.12679 0.5488,6.22949 1.1163,9.29738 l 25.6113,-44.35865"
     style="fill:#81c692;fill-opacity:1;fill-rule:nonzero;stroke:none;stroke-width:2.45892"
     id="path19315"
     clip-path="url(#clipPath49857)"
     transform="matrix(0.54224218,0,0,0.54224218,-680.34389,-397.93425)" /><path
     d="m 1280.9637,809.01208 16.5281,28.62297 c -8.2239,-5.12922 -15.5162,-11.97978 -21.2772,-20.39373 l 4.7491,-8.22924"
     style="fill:#2ea7e0;fill-opacity:1;fill-rule:nonzero;stroke:none;stroke-width:2.45892"
     id="path19319"
     clip-path="url(#clipPath50052)"
     transform="matrix(0.54224218,0,0,0.54224218,-680.34389,-397.93425)" /><path
     d="m 1291.4904,790.7822 -5.3916,9.33754 8.3551,14.46943 c 6.6257,11.47917 14.2579,22.02138 22.7147,31.57308 2.3665,0.63178 4.7625,1.1431 7.1799,1.53395 l -7.9455,-13.7627 v 0 l -3.2446,-5.62179 -4.1815,-7.24141 -2.4602,-4.25918 -5.3916,-9.33486 v 0 l -9.6374,-16.69406"
     style="fill:#aed4f0;fill-opacity:1;fill-rule:nonzero;stroke:none;stroke-width:2.45892"
     id="path19323"
     clip-path="url(#clipPath49737)"
     transform="matrix(0.54224218,0,0,0.54224218,-680.34389,-397.93425)" /><path
     d="m 1286.0996,800.1192 -5.1346,8.89315 2.7494,4.76246 c 5.6726,9.80334 12.1832,18.82231 19.3818,27.01943 2.7921,1.4108 5.6726,2.64224 8.6093,3.67826 l -25.6059,-44.3533"
     style="fill:#86c1ea;fill-opacity:1;fill-rule:nonzero;stroke:none;stroke-width:2.45892"
     id="path19327"
     clip-path="url(#clipPath49947)"
     transform="matrix(0.54224218,0,0,0.54224218,-680.34389,-397.93425)" /><path
     d="m 1280.9637,809.01208 2.6717,4.62594 c 0.027,0.0455 0.054,0.091 0.078,0.13652 l -2.7493,-4.76246"
     style="fill:#30a8e1;fill-opacity:1;fill-rule:nonzero;stroke:none;stroke-width:2.45892"
     id="path19331"
     clip-path="url(#clipPath50007)"
     transform="matrix(0.54224218,0,0,0.54224218,-680.34389,-397.93425)" /><path
     d="m 1311.6518,825.70299 h 33.0481 c -8.5531,4.55901 -18.1289,7.44486 -28.299,8.23192 l -4.7491,-8.23192"
     style="fill:#093692;fill-opacity:1;fill-rule:nonzero;stroke:none;stroke-width:2.45892"
     id="path19335"
     clip-path="url(#clipPath49782)"
     transform="matrix(0.54224218,0,0,0.54224218,-680.34389,-397.93425)" /><path
     d="m 1366.8409,807.47632 h -65.7134 l 5.3888,9.33486 h 16.7075 c 13.2594,0 26.2002,-1.33852 38.7047,-3.88439 1.7267,-1.73205 3.3677,-3.55512 4.9124,-5.45047"
     style="fill:#8f8ec4;fill-opacity:1;fill-rule:nonzero;stroke:none;stroke-width:2.45892"
     id="path19339"
     clip-path="url(#clipPath49767)"
     transform="matrix(0.54224218,0,0,0.54224218,-680.34389,-397.93425)" /><path
     d="m 1301.128,807.47632 v 0 l 5.3916,9.33486 z"
     style="fill:#617cbd;fill-opacity:1;fill-rule:nonzero;stroke:none;stroke-width:2.45892"
     id="path19343"
     clip-path="url(#clipPath49932)"
     transform="matrix(0.54224218,0,0,0.54224218,-680.34389,-397.93425)" /><path
     d="m 1357.7302,816.81011 h -34.5071 -16.7075 l 2.4602,4.25918 2.6771,4.63397 h 5.3407 c 11.3801,0 22.5006,-1.12704 33.2489,-3.27671 2.6182,-1.71063 5.1185,-3.58724 7.4877,-5.61644"
     style="fill:#6165ad;fill-opacity:1;fill-rule:nonzero;stroke:none;stroke-width:2.45892"
     id="path19347"
     clip-path="url(#clipPath50037)"
     transform="matrix(0.54224218,0,0,0.54224218,-680.34389,-397.93425)" /><path
     d="m 1306.5161,816.81011 v 0 l 2.4602,4.25918 z"
     style="fill:#425eaa;fill-opacity:1;fill-rule:nonzero;stroke:none;stroke-width:2.45892"
     id="path19351"
     clip-path="url(#clipPath49992)"
     transform="matrix(0.54224218,0,0,0.54224218,-680.34389,-397.93425)" /><path
     d="m 1323.2228,816.81011 h -16.7074 z"
     style="fill:#3d4b9e;fill-opacity:1;fill-rule:nonzero;stroke:none;stroke-width:2.45892"
     id="path19355"
     clip-path="url(#clipPath49812)"
     transform="matrix(0.54224218,0,0,0.54224218,-680.34389,-397.93425)" /><path
     d="m 1341.4476,807.47632 16.5254,-28.62565 c -0.3293,9.68555 -2.6181,19.42464 -7.0219,28.62565 h -9.5035"
     style="fill:#963e92;fill-opacity:1;fill-rule:nonzero;stroke:none;stroke-width:2.45892"
     id="path19359"
     clip-path="url(#clipPath49842)"
     transform="matrix(0.54224218,0,0,0.54224218,-680.34389,-397.93425)" /><path
     d="m 1353.2598,750.56166 -32.8581,56.914 h 10.7805 l 8.3524,-14.47211 c 6.6284,-11.47918 11.9423,-23.35991 15.9873,-35.46015 -0.6345,-2.36384 -1.3921,-4.69554 -2.2621,-6.98174"
     style="fill:#c79fc8;fill-opacity:1;fill-rule:nonzero;stroke:none;stroke-width:2.45892"
     id="path19363"
     clip-path="url(#clipPath49752)"
     transform="matrix(0.54224218,0,0,0.54224218,-680.34389,-397.93425)" /><path
     d="m 1356.7891,763.11874 -25.6059,44.35865 h 10.2637 l 2.6717,-4.63129 c 5.6914,-9.85688 10.2772,-20.0484 13.7868,-30.42998 -0.1713,-3.12679 -0.5461,-6.22949 -1.1163,-9.29738"
     style="fill:#b378b1;fill-opacity:1;fill-rule:nonzero;stroke:none;stroke-width:2.45892"
     id="path19367"
     clip-path="url(#clipPath49977)"
     transform="matrix(0.54224218,0,0,0.54224218,-680.34389,-397.93425)" /><path
     d="m 1340.5628,772.55232 -16.5308,-28.62297 c 8.2266,5.12922 15.5189,11.97978 21.2826,20.39373 l -4.7518,8.22924"
     style="fill:#e83929;fill-opacity:1;fill-rule:nonzero;stroke:none;stroke-width:2.45892"
     id="path19371"
     clip-path="url(#clipPath49872)"
     transform="matrix(0.54224218,0,0,0.54224218,-680.34389,-397.93425)" /><path
     d="m 1297.1791,733.86813 7.9455,13.76269 3.2446,5.6218 4.1815,7.24141 2.4602,4.25918 v 0 0 l 5.3916,9.33486 v 0 l 9.6374,16.69406 5.3915,-9.33754 -8.355,-14.46943 c -6.6284,-11.47918 -14.2607,-22.02138 -22.7174,-31.57308 -2.3612,-0.63179 -4.7625,-1.1431 -7.1772,-1.53395"
     style="fill:#f4a587;fill-opacity:1;fill-rule:nonzero;stroke:none;stroke-width:2.45892"
     id="path19375"
     clip-path="url(#clipPath49887)"
     transform="matrix(0.54224218,0,0,0.54224218,-680.34389,-397.93425)" /><path
     d="m 1305.1251,747.62989 v 0 l 3.2446,5.6218 z"
     style="fill:#ed6c19;fill-opacity:1;fill-rule:nonzero;stroke:none;stroke-width:2.45892"
     id="path19379"
     clip-path="url(#clipPath50022)"
     transform="matrix(0.54224218,0,0,0.54224218,-680.34389,-397.93425)" /><path
     d="m 1315.0112,764.75408 v 0 l 5.3889,9.33486 v 0 z"
     style="fill:#f08950;fill-opacity:1;fill-rule:nonzero;stroke:none;stroke-width:2.45892"
     id="path19383"
     clip-path="url(#clipPath49902)"
     transform="matrix(0.54224218,0,0,0.54224218,-680.34389,-397.93425)" /><path
     d="m 1312.5513,760.49376 2.4602,4.25918 v 0 z"
     style="fill:#ef7e3b;fill-opacity:1;fill-rule:nonzero;stroke:none;stroke-width:2.45892"
     id="path19387"
     clip-path="url(#clipPath49917)"
     transform="matrix(0.54224218,0,0,0.54224218,-680.34389,-397.93425)" /><path
     d="m 1309.8191,737.09063 25.6086,44.35597 5.1346,-8.89314 -2.6744,-4.62862 c -5.6887,-9.8542 -12.226,-18.92136 -19.4567,-27.15327 -2.7922,-1.41348 -5.67,-2.64225 -8.6121,-3.68094"
     style="fill:#ee7d5b;fill-opacity:1;fill-rule:nonzero;stroke:none;stroke-width:2.45892"
     id="path19391"
     clip-path="url(#clipPath49707)"
     transform="matrix(0.54224218,0,0,0.54224218,-680.34389,-397.93425)" /><path
     d="m 1045.8883,1039.0558 h -17.0733 v -4.2027 h 17.0733 z"
     style="fill:#000000;fill-opacity:1;fill-rule:nonzero;stroke:none;stroke-width:1.22469"
     id="path19393"
     clip-path="url(#clipPath27489)"
     transform="matrix(1.0887055,0,0,1.0887055,-1046.6955,-1112.9469)" /><path
     d="m 1039.5576,1066.3731 h -4.412 v -26.5306 h 4.412 z"
     style="fill:#000000;fill-opacity:1;fill-rule:nonzero;stroke:none;stroke-width:1.22469"
     id="path19395"
     clip-path="url(#clipPath27483)"
     transform="matrix(1.0887055,0,0,1.0887055,-1046.6955,-1112.9469)" /><path
     d="m 1108.9323,1039.0558 h -17.0747 v -4.2027 h 17.0747 z"
     style="fill:#000000;fill-opacity:1;fill-rule:nonzero;stroke:none;stroke-width:1.22469"
     id="path19397"
     clip-path="url(#clipPath27477)"
     transform="matrix(1.0887055,0,0,1.0887055,-1046.6955,-1112.9469)" /><path
     d="m 1108.9323,1066.3731 h -17.0747 v -4.2026 h 17.0747 z"
     style="fill:#000000;fill-opacity:1;fill-rule:nonzero;stroke:none;stroke-width:1.22469"
     id="path19399"
     clip-path="url(#clipPath27471)"
     transform="matrix(1.0887055,0,0,1.0887055,-1046.6955,-1112.9469)" /><path
     d="m 1102.6016,1061.3825 h -4.4133 v -21.54 h 4.4133 z"
     style="fill:#000000;fill-opacity:1;fill-rule:nonzero;stroke:none;stroke-width:1.22469"
     id="path19401"
     clip-path="url(#clipPath27465)"
     transform="matrix(1.0887055,0,0,1.0887055,-1046.6955,-1112.9469)" /><path
     d="m 1482.1552,759.13791 -11.7121,55.10164 -11.7121,-55.10164 h -8.6281 l 13.23,62.23329 h 14.2205 l 13.2299,-62.23329 z"
     style="fill:#000000;fill-opacity:1;fill-rule:nonzero;stroke:none;stroke-width:2.45892"
     id="path19405"
     clip-path="url(#clipPath55257)"
     transform="matrix(0.54224218,0,0,0.54224218,-680.34389,-397.93425)" /><path
     d="m 1058.3696,1066.3731 h -4.4133 v -31.5213 h 4.4133 z"
     style="fill:#000000;fill-opacity:1;fill-rule:nonzero;stroke:none;stroke-width:1.22469"
     id="path19407"
     clip-path="url(#clipPath27453)"
     transform="matrix(1.0887055,0,0,1.0887055,-1046.6955,-1112.9469)" /><path
     d="m 1083.7896,1066.3731 h -4.4133 v -31.5213 h 4.4133 z"
     style="fill:#000000;fill-opacity:1;fill-rule:nonzero;stroke:none;stroke-width:1.22469"
     id="path19409"
     clip-path="url(#clipPath27447)"
     transform="matrix(1.0887055,0,0,1.0887055,-1046.6955,-1112.9469)" /><path
     d="m 1912.378,809.70115 -3.4855,9.9131 -3.4855,-9.9131 h -2.3906 l 4.733,12.724 h 2.2862 l 4.7357,-12.724 z"
     style="fill:#000000;fill-opacity:1;fill-rule:nonzero;stroke:none;stroke-width:2.45892"
     id="path19413"
     clip-path="url(#clipPath55107)"
     transform="matrix(0.54224218,0,0,0.54224218,-680.34389,-397.93425)" /><path
     d="m 1870.4342,809.26084 c -2.2005,0 -3.4186,0.99854 -4.0825,2.22195 v -2.07471 h -2.3424 v 13.01847 h 2.3424 v -5.86005 c 0,-3.10002 0.4846,-4.96324 4.0825,-4.96324 0.9584,0 1.9971,0.39352 1.9971,2.7868 v 8.03649 h 2.3451 v -7.7554 c 0,-2.17912 0,-5.41031 -4.3422,-5.41031"
     style="fill:#000000;fill-opacity:1;fill-rule:nonzero;stroke:none;stroke-width:2.45892"
     id="path19417"
     clip-path="url(#clipPath55272)"
     transform="matrix(0.54224218,0,0,0.54224218,-680.34389,-397.93425)" /><path
     d="m 1883.801,809.26084 c -2.2005,0 -3.4186,0.99854 -4.0825,2.22195 v -2.07471 h -2.3424 v 13.01847 h 2.3424 v -5.86005 c 0,-3.10002 0.4846,-4.96324 4.0825,-4.96324 0.9584,0 1.9971,0.39352 1.9971,2.7868 v 8.03649 h 2.3451 v -7.7554 c 0,-2.17912 0,-5.41031 -4.3422,-5.41031"
     style="fill:#000000;fill-opacity:1;fill-rule:nonzero;stroke:none;stroke-width:2.45892"
     id="path19421"
     clip-path="url(#clipPath55287)"
     transform="matrix(0.54224218,0,0,0.54224218,-680.34389,-397.93425)" /><path
     d="m 1963.3388,809.26084 c -2.2005,0 -3.4213,0.99854 -4.0825,2.22195 v -2.07471 h -2.3451 v 13.01847 h 2.3451 v -5.86005 c 0,-3.10002 0.4819,-4.96324 4.0825,-4.96324 0.9557,0 1.9971,0.39352 1.9971,2.7868 v 8.03649 h 2.3424 v -7.7554 c 0,-2.17912 0,-5.41031 -4.3395,-5.41031"
     style="fill:#000000;fill-opacity:1;fill-rule:nonzero;stroke:none;stroke-width:2.45892"
     id="path19425"
     clip-path="url(#clipPath55182)"
     transform="matrix(0.54224218,0,0,0.54224218,-680.34389,-397.93425)" /><path
     d="m 1780.3375,804.84773 -5.4398,14.32487 -5.4424,-14.32487 h -3.3838 v 17.57748 h 2.3451 v -14.15086 l 5.4317,14.15086 h 2.0962 l 5.4317,-14.15086 v 14.15086 h 2.3451 v -17.57748 z"
     style="fill:#000000;fill-opacity:1;fill-rule:nonzero;stroke:none;stroke-width:2.45892"
     id="path19429"
     clip-path="url(#clipPath55122)"
     transform="matrix(0.54224218,0,0,0.54224218,-680.34389,-397.93425)" /><path
     d="m 1302.9443,1066.3731 h -1.168 v -6.3373 h 1.168 z"
     style="fill:#000000;fill-opacity:1;fill-rule:nonzero;stroke:none;stroke-width:1.22469"
     id="path19431"
     clip-path="url(#clipPath27411)"
     transform="matrix(1.0887055,0,0,1.0887055,-1046.6955,-1112.9469)" /><path
     d="m 1302.9443,1058.9611 h -1.168 v -1.3426 h 1.168 z"
     style="fill:#000000;fill-opacity:1;fill-rule:nonzero;stroke:none;stroke-width:1.22469"
     id="path19433"
     clip-path="url(#clipPath27405)"
     transform="matrix(1.0887055,0,0,1.0887055,-1046.6955,-1112.9469)" /><path
     d="m 1246.8336,1066.3731 h -1.168 v -6.3373 h 1.168 z"
     style="fill:#000000;fill-opacity:1;fill-rule:nonzero;stroke:none;stroke-width:1.22469"
     id="path19435"
     clip-path="url(#clipPath27399)"
     transform="matrix(1.0887055,0,0,1.0887055,-1046.6955,-1112.9469)" /><path
     d="m 1246.8336,1058.9611 h -1.168 v -1.3426 h 1.168 z"
     style="fill:#000000;fill-opacity:1;fill-rule:nonzero;stroke:none;stroke-width:1.22469"
     id="path19437"
     clip-path="url(#clipPath27393)"
     transform="matrix(1.0887055,0,0,1.0887055,-1046.6955,-1112.9469)" /><path
     d="m 1241.3936,1066.3731 h -1.168 v -6.3373 h 1.168 z"
     style="fill:#000000;fill-opacity:1;fill-rule:nonzero;stroke:none;stroke-width:1.22469"
     id="path19439"
     clip-path="url(#clipPath27387)"
     transform="matrix(1.0887055,0,0,1.0887055,-1046.6955,-1112.9469)" /><path
     d="m 1241.3936,1058.9611 h -1.168 v -1.3426 h 1.168 z"
     style="fill:#000000;fill-opacity:1;fill-rule:nonzero;stroke:none;stroke-width:1.22469"
     id="path19441"
     clip-path="url(#clipPath27381)"
     transform="matrix(1.0887055,0,0,1.0887055,-1046.6955,-1112.9469)" /><path
     d="m 1244.143,1066.3731 h -1.168 v -8.7546 h 1.168 z"
     style="fill:#000000;fill-opacity:1;fill-rule:nonzero;stroke:none;stroke-width:1.22469"
     id="path19443"
     clip-path="url(#clipPath27375)"
     transform="matrix(1.0887055,0,0,1.0887055,-1046.6955,-1112.9469)" /><path
     d="m 1836.6729,811.73242 v -2.05062 h -2.4736 v -3.77463 h -2.1978 v 3.77463 h -2.0988 v 2.05062 h 2.0988 v 6.63907 c 0,3.16695 0.8298,4.05573 3.3918,4.05573 h 1.2796 v -1.97834 h -0.9557 c -1.3385,0 -1.5179,-0.32124 -1.5179,-2.07203 v -6.64443 z"
     style="fill:#000000;fill-opacity:1;fill-rule:nonzero;stroke:none;stroke-width:2.45892"
     id="path19447"
     clip-path="url(#clipPath55137)"
     transform="matrix(0.54224218,0,0,0.54224218,-680.34389,-397.93425)" /><path
     d="m 1935.2453,811.73242 v -2.05062 h -2.4736 v -3.77463 h -2.1952 v 3.77463 h -2.0988 v 2.05062 h 2.0988 v 6.63907 c 0,3.16695 0.8299,4.05573 3.3892,4.05573 h 1.2796 v -1.97834 h -0.953 c -1.3412,0 -1.5206,-0.32124 -1.5206,-2.07203 v -6.64443 z"
     style="fill:#000000;fill-opacity:1;fill-rule:nonzero;stroke:none;stroke-width:2.45892"
     id="path19451"
     clip-path="url(#clipPath55317)"
     transform="matrix(0.54224218,0,0,0.54224218,-680.34389,-397.93425)" /><path
     d="m 1787.7831,821.27643 c -1.1752,-1.17255 -1.7829,-2.94207 -1.7481,-5.12119 -0.035,-2.17644 0.5729,-3.94596 1.7481,-5.11851 2.064,-2.05329 6.2027,-2.06133 8.2774,0 1.1779,1.17255 1.7829,2.94207 1.7481,5.11851 0.035,2.17912 -0.5702,3.94864 -1.7481,5.12119 -2.0452,2.03188 -6.2188,2.04526 -8.2774,0 m 4.1655,-0.67997 c 2.6288,0 3.7077,-1.79094 3.6649,-4.4198 v -0.0214 -0.0187 c 0.027,-1.5741 -0.3561,-2.80019 -1.103,-3.54173 -1.2287,-1.22341 -6.3767,-2.12022 -6.2777,3.54173 v 0.0187 0.0214 c -0.083,4.85348 3.2901,4.4198 3.7158,4.4198"
     style="fill:#000000;fill-opacity:1;fill-rule:nonzero;stroke:none;stroke-width:2.45892"
     id="path19455"
     clip-path="url(#clipPath55302)"
     transform="matrix(0.54224218,0,0,0.54224218,-680.34389,-397.93425)" /><path
     d="m 1892.0729,821.27643 c -1.1752,-1.17255 -1.7829,-2.94207 -1.7481,-5.12119 -0.035,-2.17644 0.5729,-3.94596 1.7481,-5.11851 2.064,-2.05329 6.2027,-2.06133 8.2774,0 1.1779,1.17255 1.7829,2.94207 1.7481,5.11851 0.035,2.17912 -0.5702,3.94864 -1.7481,5.12119 -2.0452,2.03188 -6.2188,2.04526 -8.2774,0 m 4.1655,-0.67997 c 2.6288,0 3.7077,-1.79094 3.6649,-4.4198 v -0.0214 -0.0187 c 0.027,-1.5741 -0.3561,-2.80019 -1.103,-3.54173 -1.2287,-1.22341 -6.3767,-2.12022 -6.2777,3.54173 v 0.0187 0.0214 c -0.083,4.85348 3.2901,4.4198 3.7158,4.4198"
     style="fill:#000000;fill-opacity:1;fill-rule:nonzero;stroke:none;stroke-width:2.45892"
     id="path19459"
     clip-path="url(#clipPath55152)"
     transform="matrix(0.54224218,0,0,0.54224218,-680.34389,-397.93425)" /><path
     d="m 1944.6439,821.27643 c -1.1752,-1.17255 -1.7829,-2.94207 -1.7481,-5.12119 -0.035,-2.17644 0.5729,-3.94596 1.7481,-5.11851 2.064,-2.05329 6.2027,-2.06133 8.2774,0 1.1779,1.17255 1.7829,2.94207 1.7481,5.11851 0.035,2.17912 -0.5702,3.94864 -1.7481,5.12119 -2.0452,2.03188 -6.2188,2.04526 -8.2774,0 m 4.1655,-0.67997 c 2.6288,0 3.7077,-1.79094 3.6649,-4.4198 v -0.0214 -0.0187 c 0.027,-1.5741 -0.3561,-2.80019 -1.103,-3.54173 -1.2287,-1.22341 -6.3767,-2.12022 -6.2777,3.54173 v 0.0187 0.0214 c -0.083,4.85348 3.2901,4.4198 3.7158,4.4198"
     style="fill:#000000;fill-opacity:1;fill-rule:nonzero;stroke:none;stroke-width:2.45892"
     id="path19463"
     clip-path="url(#clipPath55332)"
     transform="matrix(0.54224218,0,0,0.54224218,-680.34389,-397.93425)" /><path
     d="M 1926.3177,819.47002 V 812.93 c 0,-3.61134 -3.432,-3.61134 -4.899,-3.61134 -2.9876,0 -5.156,1.83378 -5.156,4.35823 h 2.1417 c 0,-1.52324 1.5633,-2.21659 3.0143,-2.21659 2.5994,0 2.9314,1.1083 2.7065,2.4602 -0.2811,1.68654 -6.8452,0.19275 -8.0686,3.9888 -1.384,4.19761 5.164,6.92552 8.3898,2.92334 0.1125,1.29836 0.7791,1.70795 3.0679,1.70795 v -1.92747 c -1.1083,0 -1.1966,-0.49258 -1.1966,-1.1431 m -8.1944,-0.93964 c 0.4042,-2.00511 4.8213,-1.12169 6.0501,-2.49501 v 1.82039 c 0,3.50425 -6.7488,4.16281 -6.0501,0.67462"
     style="fill:#000000;fill-opacity:1;fill-rule:nonzero;stroke:none;stroke-width:2.45892"
     id="path19467"
     clip-path="url(#clipPath55347)"
     transform="matrix(0.54224218,0,0,0.54224218,-680.34389,-397.93425)" /><path
     d="m 1810.917,811.99544 c -1.9087,-3.2419 -7.1531,-3.08663 -8.7754,-0.76296 v -6.38475 h -2.2005 v 17.57748 h 2.2005 v -1.12436 c 1.7803,2.05865 6.7221,2.16573 8.6442,-0.77634 0.7255,-1.08153 1.111,-2.59138 1.1137,-4.36626 v -0.003 c 0,-1.6678 -0.3454,-3.11073 -0.9825,-4.16013 m -4.907,8.60135 c -0.3909,0 -1.6196,0.083 -2.5861,-0.87807 -0.7468,-0.74422 -1.1297,-1.96763 -1.1002,-3.54173 v -0.0214 -0.0187 c -0.029,-1.5741 0.3534,-2.80019 1.1002,-3.54173 1.2609,-1.25286 4.5591,-1.25018 5.6085,0.53005 0.4283,0.70674 0.6692,1.78292 0.6692,3.03042 -0.01,2.75736 -0.945,4.43051 -3.6916,4.44122"
     style="fill:#000000;fill-opacity:1;fill-rule:nonzero;stroke:none;stroke-width:2.45892"
     id="path19471"
     clip-path="url(#clipPath55362)"
     transform="matrix(0.54224218,0,0,0.54224218,-680.34389,-397.93425)" /><path
     d="m 1861.4253,806.89888 v -2.05062 h -6.7702 v 2.05062 h 2.2139 v 13.47625 h -2.2139 v 2.05062 h 6.7702 v -2.05062 h -2.2139 v -13.47625 z"
     style="fill:#000000;fill-opacity:1;fill-rule:nonzero;stroke:none;stroke-width:2.45892"
     id="path19475"
     clip-path="url(#clipPath55167)"
     transform="matrix(0.54224218,0,0,0.54224218,-680.34389,-397.93425)" /><path
     d="m 1847.9486,809.69954 c -0.4203,1.19664 -2.2808,6.58018 -3.6381,10.08979 l -3.697,-10.08979 h -2.3451 l 4.824,12.96761 c -0.1124,0.2918 -0.2141,0.5595 -0.3078,0.81115 -0.3025,0.81649 -0.4953,1.35726 -0.7817,1.64102 -0.2088,0.20881 -0.6024,0.51667 -1.8766,0.51667 h -0.8379 v 1.97834 h 1.2421 c 2.9822,0 3.4909,-1.15648 4.3154,-3.3704 0.1767,-0.48187 0.3801,-1.02799 0.6505,-1.65977 1.4189,-3.33292 4.7812,-12.88462 4.7812,-12.88462 z"
     style="fill:#000000;fill-opacity:1;fill-rule:nonzero;stroke:none;stroke-width:2.45892"
     id="path19479"
     clip-path="url(#clipPath55197)"
     transform="matrix(0.54224218,0,0,0.54224218,-680.34389,-397.93425)" /><path
     d="m 1596.3455,809.59012 c -2.5994,0 -3.7639,1.18861 -4.4091,2.37989 v -2.56193 h -2.2862 v 13.01848 h 2.2862 v -5.71282 c 0,-3.02239 0.8995,-4.83742 4.4091,-4.83742 z"
     style="fill:#000000;fill-opacity:1;fill-rule:nonzero;stroke:none;stroke-width:2.45892"
     id="path19483"
     clip-path="url(#clipPath55212)"
     transform="matrix(0.54224218,0,0,0.54224218,-680.34389,-397.93425)" /><path
     d="m 1747.5907,809.59012 c -2.5994,0 -3.7639,1.18861 -4.4091,2.37989 v -2.56193 h -2.2862 v 13.01848 h 2.2862 v -5.71282 c 0,-3.02239 0.8995,-4.83742 4.4091,-4.83742 z"
     style="fill:#000000;fill-opacity:1;fill-rule:nonzero;stroke:none;stroke-width:2.45892"
     id="path19487"
     clip-path="url(#clipPath55227)"
     transform="matrix(0.54224218,0,0,0.54224218,-680.34389,-397.93425)" /><path
     d="m 1629.5053,822.87442 c -2.2487,0 -3.5069,-0.9102 -4.1655,-1.67048 -0.9985,-1.15916 -1.0762,-2.45217 -1.0762,-2.8216 h 2.1444 c 0,0.0964 0.032,2.35044 3.0973,2.35044 1.5232,0 2.677,-0.44439 3.0866,-1.19128 0.241,-0.43904 0.1981,-0.96106 -0.1311,-1.47505 -0.4873,-0.77367 -1.8847,-1.05208 -3.2339,-1.31979 -1.5982,-0.31857 -3.2499,-0.64784 -4.0236,-1.94086 -0.6612,-1.09759 -0.6934,-2.3317 -0.099,-3.38378 0.7603,-1.33585 2.3612,-2.10148 4.4011,-2.10148 3.8469,0 4.8722,2.58335 4.8722,4.10926 h -2.1416 c 0,-0.46045 -0.1981,-1.96763 -2.7306,-1.96763 -1.2261,0 -2.1738,0.38014 -2.5352,1.0146 -0.2677,0.47384 -0.1097,0.92894 0.07,1.22877 0.2892,0.47919 1.5179,0.7228 2.6075,0.93964 1.7053,0.33999 3.6434,0.72548 4.6232,2.27549 0.7443,1.16719 0.8165,2.53516 0.1981,3.65417 -0.8031,1.46166 -2.6128,2.29958 -4.9632,2.29958"
     style="fill:#000000;fill-opacity:1;fill-rule:nonzero;stroke:none;stroke-width:2.45892"
     id="path19491"
     clip-path="url(#clipPath55242)"
     transform="matrix(0.54224218,0,0,0.54224218,-680.34389,-397.93425)" /><path
     d="m 1661.8414,822.87442 c -2.2487,0 -3.5069,-0.9102 -4.1655,-1.67048 -0.9985,-1.15916 -1.0762,-2.45217 -1.0762,-2.8216 h 2.1444 c 0,0.0964 0.032,2.35044 3.0973,2.35044 1.5232,0 2.677,-0.44439 3.0866,-1.19128 0.241,-0.43904 0.1981,-0.96106 -0.1311,-1.47505 -0.4873,-0.77367 -1.8847,-1.05208 -3.2339,-1.31979 -1.5982,-0.31857 -3.2499,-0.64784 -4.0236,-1.94086 -0.6612,-1.09759 -0.6934,-2.3317 -0.099,-3.38378 0.7603,-1.33585 2.3612,-2.10148 4.4011,-2.10148 3.8469,0 4.8722,2.58335 4.8722,4.10926 h -2.1416 c 0,-0.46045 -0.1981,-1.96763 -2.7306,-1.96763 -1.2261,0 -2.1738,0.38014 -2.5352,1.0146 -0.2677,0.47384 -0.1097,0.92894 0.07,1.22877 0.2892,0.47919 1.5179,0.7228 2.6075,0.93964 1.7053,0.33999 3.6434,0.72548 4.6232,2.27549 0.7443,1.16719 0.8165,2.53516 0.1981,3.65417 -0.8031,1.46166 -2.6128,2.29958 -4.9632,2.29958"
     style="fill:#000000;fill-opacity:1;fill-rule:nonzero;stroke:none;stroke-width:2.45892"
     id="path19495"
     clip-path="url(#clipPath55062)"
     transform="matrix(0.54224218,0,0,0.54224218,-680.34389,-397.93425)" /><path
     d="m 1617.6756,809.26084 c -2.2005,0 -3.4186,0.99854 -4.0825,2.22195 v -2.07471 h -2.3451 v 13.01847 h 2.3451 v -5.86005 c 0,-3.10002 0.4819,-4.96324 4.0825,-4.96324 0.9557,0 1.9971,0.39352 1.9971,2.7868 v 8.03649 h 2.3424 v -7.7554 c 0,-2.17912 0,-5.41031 -4.3395,-5.41031"
     style="fill:#000000;fill-opacity:1;fill-rule:nonzero;stroke:none;stroke-width:2.45892"
     id="path19499"
     clip-path="url(#clipPath54882)"
     transform="matrix(0.54224218,0,0,0.54224218,-680.34389,-397.93425)" /><path
     d="m 1720.3419,809.26084 c -2.2005,0 -3.4213,0.99854 -4.0825,2.22195 v -2.07471 h -2.3451 v 13.01847 h 2.3451 v -5.86005 c 0,-3.10002 0.4819,-4.96324 4.0825,-4.96324 0.9557,0 1.9971,0.39352 1.9971,2.7868 v 8.03649 h 2.3424 v -7.7554 c 0,-2.17912 0,-5.41031 -4.3395,-5.41031"
     style="fill:#000000;fill-opacity:1;fill-rule:nonzero;stroke:none;stroke-width:2.45892"
     id="path19503"
     clip-path="url(#clipPath55092)"
     transform="matrix(0.54224218,0,0,0.54224218,-680.34389,-397.93425)" /><path
     d="m 1188.5563,1066.3731 h -1.1667 v -6.3373 h 1.1667 z"
     style="fill:#000000;fill-opacity:1;fill-rule:nonzero;stroke:none;stroke-width:1.22469"
     id="path19505"
     clip-path="url(#clipPath27279)"
     transform="matrix(1.0887055,0,0,1.0887055,-1046.6955,-1112.9469)" /><path
     d="m 1188.5563,1058.9611 h -1.1667 v -1.3426 h 1.1667 z"
     style="fill:#000000;fill-opacity:1;fill-rule:nonzero;stroke:none;stroke-width:1.22469"
     id="path19507"
     clip-path="url(#clipPath27273)"
     transform="matrix(1.0887055,0,0,1.0887055,-1046.6955,-1112.9469)" /><path
     d="m 1175.959,1066.3731 h -1.168 v -6.3373 h 1.168 z"
     style="fill:#000000;fill-opacity:1;fill-rule:nonzero;stroke:none;stroke-width:1.22469"
     id="path19509"
     clip-path="url(#clipPath27267)"
     transform="matrix(1.0887055,0,0,1.0887055,-1046.6955,-1112.9469)" /><path
     d="m 1175.959,1058.9611 h -1.168 v -1.3426 h 1.168 z"
     style="fill:#000000;fill-opacity:1;fill-rule:nonzero;stroke:none;stroke-width:1.22469"
     id="path19511"
     clip-path="url(#clipPath27261)"
     transform="matrix(1.0887055,0,0,1.0887055,-1046.6955,-1112.9469)" /><path
     d="m 1160.3136,1066.3731 h -1.1666 v -6.3373 h 1.1666 z"
     style="fill:#000000;fill-opacity:1;fill-rule:nonzero;stroke:none;stroke-width:1.22469"
     id="path19513"
     clip-path="url(#clipPath27255)"
     transform="matrix(1.0887055,0,0,1.0887055,-1046.6955,-1112.9469)" /><path
     d="m 1160.3136,1058.9611 h -1.1666 v -1.3426 h 1.1666 z"
     style="fill:#000000;fill-opacity:1;fill-rule:nonzero;stroke:none;stroke-width:1.22469"
     id="path19515"
     clip-path="url(#clipPath27249)"
     transform="matrix(1.0887055,0,0,1.0887055,-1046.6955,-1112.9469)" /><path
     d="m 1589.611,804.92102 h -14.1107 v 2.19785 h 5.753 v 15.30735 h 2.4896 v -15.30735 h 5.8681 z"
     style="fill:#000000;fill-opacity:1;fill-rule:nonzero;stroke:none;stroke-width:2.45892"
     id="path19519"
     clip-path="url(#clipPath54912)"
     transform="matrix(0.54224218,0,0,0.54224218,-680.34389,-397.93425)" /><path
     d="m 1185.8656,1066.3731 h -1.1666 v -8.7546 h 1.1666 z"
     style="fill:#000000;fill-opacity:1;fill-rule:nonzero;stroke:none;stroke-width:1.22469"
     id="path19521"
     clip-path="url(#clipPath27237)"
     transform="matrix(1.0887055,0,0,1.0887055,-1046.6955,-1112.9469)" /><path
     d="m 1678.6882,817.77425 c -0.1258,0.61037 -0.3239,1.13774 -0.5916,1.53662 -1.0441,1.60088 -4.2485,1.68119 -5.5281,0.40692 -0.7469,-0.74155 -1.1297,-1.96763 -1.103,-3.54174 v -0.0187 -0.0187 c -0.027,-1.5741 0.3561,-2.80019 1.103,-3.5444 1.2582,-1.25018 4.559,-1.24751 5.6084,0.53005 0.1178,0.19543 0.2195,0.42297 0.3078,0.66926 h 2.2916 c -0.166,-0.67997 -0.4042,-1.28766 -0.7148,-1.79897 -1.7856,-3.02774 -6.7542,-3.23387 -9.043,-0.95838 -1.1806,1.17254 -1.7829,2.94207 -1.7508,5.12118 -0.032,2.17644 0.5702,3.94865 1.7508,5.11852 2.2192,2.20856 7.0727,2.064 8.9118,-0.75225 0.4899,-0.73351 0.8219,-1.67048 0.9879,-2.74933 z"
     style="fill:#000000;fill-opacity:1;fill-rule:nonzero;stroke:none;stroke-width:2.45892"
     id="path19525"
     clip-path="url(#clipPath54972)"
     transform="matrix(0.54224218,0,0,0.54224218,-680.34389,-397.93425)" /><path
     d="m 1607.9401,819.52323 v -6.54002 c 0,-3.61134 -3.432,-3.61134 -4.899,-3.61134 -2.9876,0 -5.1587,1.83378 -5.1587,4.35823 h 2.1444 c 0,-1.52324 1.5633,-2.21659 3.0143,-2.21659 2.5994,0 2.9314,1.1083 2.7065,2.45753 -0.2811,1.68921 -6.8452,0.19542 -8.0686,3.99415 -1.3867,4.19225 5.164,6.92284 8.3898,2.92066 0.1125,1.29836 0.7791,1.70795 3.0679,1.70795 v -1.92747 c -1.1083,0 -1.1966,-0.49258 -1.1966,-1.1431 m -8.1944,-0.93964 c 0.4042,-2.00511 4.8213,-1.12436 6.0501,-2.49769 v 1.82039 c 0,3.50693 -6.7488,4.16549 -6.0501,0.6773"
     style="fill:#000000;fill-opacity:1;fill-rule:nonzero;stroke:none;stroke-width:2.45892"
     id="path19529"
     clip-path="url(#clipPath54897)"
     transform="matrix(0.54224218,0,0,0.54224218,-680.34389,-397.93425)" /><path
     d="m 1737.4185,819.52323 v -6.54002 c 0,-3.61134 -3.432,-3.61134 -4.899,-3.61134 -2.9876,0 -5.156,1.83378 -5.156,4.35823 h 2.1417 c 0,-1.52324 1.5633,-2.21659 3.0143,-2.21659 2.5994,0 2.9314,1.1083 2.7065,2.45753 -0.2811,1.68921 -6.8452,0.19542 -8.0686,3.99415 -1.384,4.19225 5.164,6.92284 8.3898,2.92066 0.1125,1.29836 0.7817,1.70795 3.0706,1.70795 v -1.92747 c -1.111,0 -1.1993,-0.49258 -1.1993,-1.1431 m -8.1944,-0.93964 c 0.4069,-2.00511 4.8213,-1.12436 6.0528,-2.49769 v 1.82039 c 0,3.50693 -6.7515,4.16549 -6.0528,0.6773"
     style="fill:#000000;fill-opacity:1;fill-rule:nonzero;stroke:none;stroke-width:2.45892"
     id="path19533"
     clip-path="url(#clipPath54987)"
     transform="matrix(0.54224218,0,0,0.54224218,-680.34389,-397.93425)" /><path
     d="m 1646.4462,804.84773 v 6.10634 c -1.7856,-1.78559 -5.6994,-2.06668 -7.8625,0.083 -1.1779,1.17255 -1.7829,2.94207 -1.7481,5.11851 -0.035,2.17912 0.5702,3.94864 1.7481,5.12119 2.1202,2.10684 6.0635,1.88464 7.8625,0.15527 v 0.99318 h 2.1979 v -17.57748 z m -0.7817,14.46408 c -1.0467,1.5982 -4.2485,1.68118 -5.5281,0.40691 -0.7496,-0.74422 -1.1297,-1.97031 -1.1056,-3.54441 v -0.0187 -0.0187 c -0.024,-1.5741 0.356,-2.80019 1.1056,-3.54173 1.2984,-1.29301 4.5804,-1.2127 5.6057,0.53006 0.4284,0.70674 0.6666,1.78291 0.6693,3.03041 0,1.31979 -0.2624,2.43611 -0.7469,3.15624"
     style="fill:#000000;fill-opacity:1;fill-rule:nonzero;stroke:none;stroke-width:2.45892"
     id="path19537"
     clip-path="url(#clipPath54957)"
     transform="matrix(0.54224218,0,0,0.54224218,-680.34389,-397.93425)" /><path
     d="m 1699.5659,811.99544 c -1.9516,-3.30615 -7.3271,-2.99829 -8.8369,-0.85933 v -1.4349 h -2.1979 v 17.57749 h 2.1979 v -6.17595 c 1.1457,2.1577 6.6631,2.54855 8.7057,-0.57824 0.7255,-1.08153 1.1083,-2.59138 1.1137,-4.36626 v -0.003 c -0.01,-1.67048 -0.348,-3.11073 -0.9825,-4.16013 m -1.9623,7.31637 c -1.0467,1.60087 -4.2511,1.6785 -5.5308,0.40691 -0.7468,-0.74422 -1.1297,-1.96763 -1.1029,-3.54173 v -0.0214 -0.0187 c -0.027,-1.5741 0.3561,-2.80019 1.1029,-3.54173 1.2636,-1.25554 4.5617,-1.24483 5.6085,0.53005 0.4283,0.70674 0.6665,1.78292 0.6692,3.03042 0,1.31978 -0.265,2.43611 -0.7469,3.15624"
     style="fill:#000000;fill-opacity:1;fill-rule:nonzero;stroke:none;stroke-width:2.45892"
     id="path19541"
     clip-path="url(#clipPath54807)"
     transform="matrix(0.54224218,0,0,0.54224218,-680.34389,-397.93425)" /><path
     d="m 1758.6074,809.69954 c -0.4203,1.19664 -2.2808,6.58018 -3.6381,10.08979 l -3.697,-10.08979 h -2.3451 l 4.824,12.96761 c -0.1124,0.2918 -0.2141,0.5595 -0.3078,0.81115 -0.3025,0.81649 -0.4953,1.35726 -0.7817,1.64102 -0.2088,0.20881 -0.6024,0.51667 -1.8766,0.51667 h -0.8379 v 1.97834 h 1.2421 c 2.9822,0 3.4909,-1.15648 4.3154,-3.3704 0.1794,-0.48187 0.3801,-1.02799 0.6505,-1.65977 1.4189,-3.33292 4.7812,-12.88462 4.7812,-12.88462 z"
     style="fill:#000000;fill-opacity:1;fill-rule:nonzero;stroke:none;stroke-width:2.45892"
     id="path19545"
     clip-path="url(#clipPath54927)"
     transform="matrix(0.54224218,0,0,0.54224218,-680.34389,-397.93425)" /><path
     d="m 1597.9505,759.14192 v 26.33142 l -17.101,-26.33142 h -4.9257 v 32.85271 h 4.3796 v -26.15474 l 16.9859,26.15474 h 5.0435 v -32.85271 z"
     style="fill:#000000;fill-opacity:1;fill-rule:nonzero;stroke:none;stroke-width:2.45892"
     id="path19549"
     clip-path="url(#clipPath55047)"
     transform="matrix(0.54224218,0,0,0.54224218,-680.34389,-397.93425)" /><path
     d="m 1812.7654,767.3891 c -4.1146,0 -6.3928,1.86858 -7.6349,4.1521 v -3.87636 h -4.377 v 24.32899 h 4.377 v -10.9518 c 0,-5.79312 0.9075,-9.27596 7.6349,-9.27596 1.7909,0 3.7345,0.73619 3.7345,5.20418 v 15.02358 h 4.3769 V 777.5003 c 0,-4.07178 0,-10.1112 -8.1114,-10.1112"
     style="fill:#000000;fill-opacity:1;fill-rule:nonzero;stroke:none;stroke-width:2.45892"
     id="path19553"
     clip-path="url(#clipPath54822)"
     transform="matrix(0.54224218,0,0,0.54224218,-680.34389,-397.93425)" /><path
     d="m 1896.9327,768.00328 c -4.8508,0 -7.0326,2.22463 -8.2399,4.44925 v -4.78923 h -4.2726 v 24.33167 h 4.2726 v -10.67874 c 0,-5.64857 1.6838,-9.04306 8.2399,-9.04306 z"
     style="fill:#000000;fill-opacity:1;fill-rule:nonzero;stroke:none;stroke-width:2.45892"
     id="path19557"
     clip-path="url(#clipPath54942)"
     transform="matrix(0.54224218,0,0,0.54224218,-680.34389,-397.93425)" /><path
     d="m 1852.9733,768.21088 -6.5133,18.52783 -6.5132,-18.52783 h -4.468 l 8.845,23.78288 h 4.2752 l 8.845,-23.78288 z"
     style="fill:#000000;fill-opacity:1;fill-rule:nonzero;stroke:none;stroke-width:2.45892"
     id="path19561"
     clip-path="url(#clipPath54837)"
     transform="matrix(0.54224218,0,0,0.54224218,-680.34389,-397.93425)" /><path
     d="m 1875.7857,784.48077 c -0.348,0.98783 -0.8406,1.82039 -1.4858,2.46288 -2.2246,2.21124 -7.5439,2.30762 -9.8676,0 -1.1698,-1.16451 -1.8605,-2.9501 -2.0425,-5.19882 h 6.0983 11.7067 c 0.032,-0.50596 0.045,-1.02531 0.037,-1.55536 0.064,-4.03431 -1.0521,-7.30834 -3.2285,-9.47407 -3.7827,-3.75857 -11.4337,-3.81747 -15.2726,0 -2.1764,2.16573 -3.2928,5.43708 -3.2312,9.47407 -0.062,4.03163 1.0548,7.30833 3.2312,9.47138 3.8175,3.79605 11.5327,3.71842 15.2726,0 1.3385,-1.33317 2.2754,-3.08663 2.7841,-5.18008 z m -11.3534,-11.04549 c 2.3799,-2.36651 7.6029,-2.25407 9.8676,0 1.0441,1.03602 1.708,2.56461 1.973,4.47602 h -13.8109 c 0.2624,-1.91141 0.9263,-3.44 1.9703,-4.47602"
     style="fill:#000000;fill-opacity:1;fill-rule:nonzero;stroke:none;stroke-width:2.45892"
     id="path19565"
     clip-path="url(#clipPath55002)"
     transform="matrix(0.54224218,0,0,0.54224218,-680.34389,-397.93425)" /><path
     d="m 1944.2779,772.00861 v -3.83353 h -4.6233 v -7.05669 h -4.1065 v 7.05669 h -3.9219 v 3.83353 h 3.9219 v 12.40811 c 0,5.91627 1.5526,7.57604 6.3419,7.57604 h 2.3879 v -3.697 h -1.7856 c -2.5057,0 -2.8377,-0.59966 -2.8377,-3.86833 v -12.41882 z"
     style="fill:#000000;fill-opacity:1;fill-rule:nonzero;stroke:none;stroke-width:2.45892"
     id="path19569"
     clip-path="url(#clipPath54747)"
     transform="matrix(0.54224218,0,0,0.54224218,-680.34389,-397.93425)" /><path
     d="m 1618.1776,759.14192 -11.704,32.85271 h 4.65 l 3.4025,-9.5517 h 14.1428 l 3.4026,9.5517 h 4.65 l -11.704,-32.85271 z m -2.0908,18.92136 5.5094,-15.47065 5.512,15.47065 z"
     style="fill:#000000;fill-opacity:1;fill-rule:nonzero;stroke:none;stroke-width:2.45892"
     id="path19573"
     clip-path="url(#clipPath54777)"
     transform="matrix(0.54224218,0,0,0.54224218,-680.34389,-397.93425)" /><path
     d="m 1740.1659,759.14192 -11.704,32.85271 h 4.6473 l 3.4052,-9.5517 h 14.1428 l 3.3999,9.5517 h 4.6527 l -11.704,-32.85271 z m -2.0908,18.92136 5.5094,-15.47065 5.512,15.47065 z"
     style="fill:#000000;fill-opacity:1;fill-rule:nonzero;stroke:none;stroke-width:2.45892"
     id="path19577"
     clip-path="url(#clipPath54852)"
     transform="matrix(0.54224218,0,0,0.54224218,-680.34389,-397.93425)" /><path
     d="m 1714.4099,791.99349 h 4.6527 v -13.14162 l 12.6357,-19.71109 h -5.0971 l -9.8649,15.98732 -9.8623,-15.98732 h -5.0998 l 12.6357,19.71109 z"
     style="fill:#000000;fill-opacity:1;fill-rule:nonzero;stroke:none;stroke-width:2.45892"
     id="path19581"
     clip-path="url(#clipPath54867)"
     transform="matrix(0.54224218,0,0,0.54224218,-680.34389,-397.93425)" /><path
     d="m 1782.1856,793.22708 c -7.9937,0 -13.3638,-4.94986 -13.3638,-12.32244 v -21.76171 h 4.3796 v 21.76171 c 0,4.97395 3.357,7.94279 8.9842,7.94279 3.357,0 8.9842,-1.15648 8.9842,-8.89582 v -20.80868 h 4.3823 v 20.80868 c 0,8.18908 -5.1212,13.27547 -13.3665,13.27547"
     style="fill:#000000;fill-opacity:1;fill-rule:nonzero;stroke:none;stroke-width:2.45892"
     id="path19585"
     clip-path="url(#clipPath55077)"
     transform="matrix(0.54224218,0,0,0.54224218,-680.34389,-397.93425)" /><path
     d="m 1909.2565,792.83275 c -4.203,0 -6.5507,-1.69992 -7.7795,-3.12679 -1.8686,-2.16573 -2.0131,-4.5831 -2.0131,-5.2711 h 4.0021 c 0,0.17936 0.064,4.39303 5.7905,4.39303 2.8457,0 5.0034,-0.82988 5.769,-2.22463 0.4525,-0.81917 0.3668,-1.79897 -0.2436,-2.76003 -0.9128,-1.4456 -3.523,-1.96227 -6.0421,-2.46556 -2.9902,-0.5943 -6.0769,-1.20735 -7.5251,-3.62472 -1.2288,-2.05329 -1.2931,-4.35823 -0.1794,-6.32586 1.4135,-2.49768 4.4118,-3.9299 8.2212,-3.9299 7.1905,0 9.1073,4.82939 9.1073,7.68312 h -4.0049 c 0,-0.86201 -0.3667,-3.67826 -5.1024,-3.67826 -2.2916,0 -4.0664,0.70942 -4.7384,1.89802 -0.4979,0.88343 -0.2061,1.73473 0.1312,2.29423 0.5354,0.89681 2.8377,1.35191 4.8696,1.75614 3.1937,0.63714 6.8157,1.35727 8.6468,4.25115 1.384,2.18447 1.5206,4.73837 0.3694,6.83182 -1.5045,2.73059 -4.8829,4.29934 -9.2786,4.29934"
     style="fill:#000000;fill-opacity:1;fill-rule:nonzero;stroke:none;stroke-width:2.45892"
     id="path19589"
     clip-path="url(#clipPath54762)"
     transform="matrix(0.54224218,0,0,0.54224218,-680.34389,-397.93425)" /><path
     d="m 1296.5776,1051.2158 h -2.1826 v -11.8453 h 2.1826 z"
     style="fill:#000000;fill-opacity:1;fill-rule:nonzero;stroke:none;stroke-width:1.22469"
     id="path19591"
     clip-path="url(#clipPath27129)"
     transform="matrix(1.0887055,0,0,1.0887055,-1046.6955,-1112.9469)" /><path
     d="m 1296.5776,1037.3638 h -2.1826 v -2.5093 h 2.1826 z"
     style="fill:#000000;fill-opacity:1;fill-rule:nonzero;stroke:none;stroke-width:1.22469"
     id="path19593"
     clip-path="url(#clipPath27123)"
     transform="matrix(1.0887055,0,0,1.0887055,-1046.6955,-1112.9469)" /><path
     d="m 1248.2256,1051.2158 h -2.1826 v -11.8453 h 2.1826 z"
     style="fill:#000000;fill-opacity:1;fill-rule:nonzero;stroke:none;stroke-width:1.22469"
     id="path19595"
     clip-path="url(#clipPath27117)"
     transform="matrix(1.0887055,0,0,1.0887055,-1046.6955,-1112.9469)" /><path
     d="m 1248.2256,1037.3638 h -2.1826 v -2.5093 h 2.1826 z"
     style="fill:#000000;fill-opacity:1;fill-rule:nonzero;stroke:none;stroke-width:1.22469"
     id="path19597"
     clip-path="url(#clipPath27111)"
     transform="matrix(1.0887055,0,0,1.0887055,-1046.6955,-1112.9469)" /><path
     d="m 1675.964,788.50838 c -2.8885,-2.86712 -4.1762,-7.21999 -4.1815,-12.94084 -0.01,-5.72085 1.293,-10.07372 4.1815,-12.94084 2.5325,-2.51642 6.0394,-3.62472 10.4378,-3.62472 4.3904,0 7.9053,1.1083 10.4405,3.62472 2.8885,2.86712 4.1788,7.21999 4.1788,12.94084 0,5.72085 -1.2903,10.07372 -4.1788,12.93816 -2.5325,2.5191 -6.0475,3.61669 -10.4405,3.62472 -3.9245,0.008 -7.651,-0.85665 -10.4378,-3.62204 m 3.084,-22.77363 c -2.3773,2.36116 -2.9127,6.65246 -2.8859,9.8783 0,4.49744 0.8754,7.7902 2.8859,9.78728 1.6624,1.64906 4.1173,2.35045 7.2922,2.35045 2.5191,0 5.5603,-0.50864 7.4154,-2.35313 2.0105,-1.9944 2.8886,-5.28716 2.8886,-9.7846 0.029,-3.2767 -0.506,-7.51447 -2.8886,-9.8783 -1.8819,-1.8659 -4.9391,-2.35045 -7.4154,-2.35045 -2.6904,0 -5.3915,0.46313 -7.2922,2.35045"
     style="fill:#000000;fill-opacity:1;fill-rule:nonzero;stroke:none;stroke-width:2.45892"
     id="path19601"
     clip-path="url(#clipPath55017)"
     transform="matrix(0.54224218,0,0,0.54224218,-680.34389,-397.93425)" /><path
     d="m 1653.0602,774.87091 v 3.83353 h 10.2584 c 0,2.94207 -1.5205,5.18811 -3.0384,6.69261 -1.8713,1.86055 -4.8481,2.35313 -7.4154,2.35313 -3.175,0 -5.6299,-0.70139 -7.2923,-2.35313 -2.3799,-2.36115 -2.8296,-6.6471 -2.8296,-9.87562 0,-4.49743 0.8191,-7.7902 2.8296,-9.7846 1.5795,-1.56875 3.8657,-2.36116 6.8104,-2.36116 2.8992,0 5.7075,0.18472 7.8973,2.36116 0.9155,0.90752 1.6143,2.08542 2.0934,3.52031 h 4.551 c -0.6612,-2.71184 -1.8498,-4.93379 -3.5578,-6.63104 -2.5378,-2.51642 -6.0528,-3.63007 -10.4405,-3.62204 -4.3957,-0.008 -7.9053,1.10562 -10.4378,3.62204 -2.8885,2.86712 -4.1895,7.22267 -4.1815,12.94084 0,5.72085 1.293,10.07373 4.1815,12.94084 2.7869,2.76807 6.4598,3.63008 10.4378,3.62204 4.278,0.005 9.2225,-2.41737 10.5155,-4.80529 v 4.66877 h 4.1066 v -17.12239 z"
     style="fill:#000000;fill-opacity:1;fill-rule:nonzero;stroke:none;stroke-width:2.45892"
     id="path19605"
     clip-path="url(#clipPath55032)"
     transform="matrix(0.54224218,0,0,0.54224218,-680.34389,-397.93425)" /><path
     d="m 1964.9073,768.21088 c -0.7897,2.23266 -4.2645,12.29567 -6.8024,18.85443 l -6.9094,-18.85443 h -4.3824 l 9.0163,24.2353 c -0.2141,0.54344 -0.3988,1.04404 -0.5729,1.5152 -0.5675,1.52592 -0.9289,2.53517 -1.4616,3.06522 -0.3935,0.39085 -1.1271,0.96642 -3.5096,0.96642 h -1.5688 v 3.69432 h 2.3264 c 5.5709,0 6.5266,-2.1577 8.0632,-6.29641 0.3347,-0.90217 0.7148,-1.92212 1.2154,-3.1027 2.653,-6.22681 8.9387,-24.07735 8.9387,-24.07735 z"
     style="fill:#000000;fill-opacity:1;fill-rule:nonzero;stroke:none;stroke-width:2.45892"
     id="path19609"
     clip-path="url(#clipPath54792)"
     transform="matrix(0.54224218,0,0,0.54224218,-680.34389,-397.93425)"
     inkscape:label="path19609" /></svg>
